<svg xmlns="http://www.w3.org/2000/svg" viewBox="0 0 74.33 74.32">
  <path d="m38 16.14-9.69 5.59-9.69 5.59V4.95l9.69 5.59Z" fill="#ff5555"/>
  <path d="m16.17 37.94 5.59-9.69 5.59-9.69H5l5.59 9.69Z" fill="#214478"/>
  <path d="M19.38 48.33V26l-9.69 5.55L0 37.15l9.69 5.59Z" fill="#ffe680"/>
  <path d="M27.36 55.73 21.76 46l-5.59-9.69-5.6 9.69L5 55.73h22.36Z" fill="#ff5555"/>
  <path d="m38 58.15-9.69-5.59L18.58 47v22.34l9.69-5.59Z" fill="#214478"/>
  <path d="M48.36 54.94H26l5.59 9.69 5.59 9.69 5.59-9.69Z" fill="#ffe680"/>
  <path d="m55.76 47-9.69 5.59-9.69 5.59 9.69 5.59 9.69 5.59V47Z" fill="#ff5555"/>
  <path d="M58.16 36.35 52.57 46 47 55.73h22.35L63.76 46Z" fill="#214478"/>
  <path d="M55 26v22.33l9.69-5.59 9.69-5.59-9.69-5.59Z" fill="#ffe680"/>
  <path d="m47 18.56 5.59 9.69 5.59 9.69 5.59-9.69 5.59-9.69H47Z" fill="#ff5555"/>
  <path d="m55.76 27.33-9.69-5.59-4.84-2.8v-5.6l4.84-2.8 9.69-5.59v22.38Z" fill="#214478"/>
  <path d="m37.17 0-5.63 9.66-1.18 2.08 7.57 4.38-5.49 3.2h15.92L42.8 9.66Z" fill="#ffe680"/>
</svg>
