<svg xmlns="http://www.w3.org/2000/svg" viewBox="0 0 480 360">
  <defs>
    <linearGradient id="b" x1=".5" x2="479.5" y1="180" y2="180" gradientUnits="userSpaceOnUse">
      <stop offset="0"/>
      <stop offset="1" stop-color="#fff"/>
    </linearGradient>
    <filter id="a" color-interpolation-filters="sRGB" filterUnits="userSpaceOnUse">
      <feColorMatrix values="-1 0 0 0 1 0 -1 0 0 1 0 0 -1 0 1 0 0 0 1 0"/>
    </filter>
    <mask id="c" width="479" height="359" x=".5" y=".5" maskUnits="userSpaceOnUse">
      <g style="filter:url(#a)">
        <path d="M.5.5h479v359H.5z" style="fill:url(#b)"/>
      </g>
    </mask>
  </defs>
  <g style="mask:url(#c)">
    <path d="m-56.807 95.315 28.649-93.04L76.256-11.293l48.755-1.857 15.482 6.296 18.401-8.821 41.341-6.383 104.164-14.408 20.475-15.289 24.936 7.361 74.666-42.124 36.121 34.168" style="fill:none;stroke:#fff;stroke-miterlimit:10;stroke-width:.25px"/>
    <path d="m-56.519 95.82 21.521-65.009 8.481-26.104 6.706-.925 64.314-7.958 25.001-3.643 7.87-.912 9-.233 39.546-1.782 15.445 6.012 18.369-8.764 41.187-6.551 44.816-6.422 24.395-3.107 34.14-5.348 20.508-14.733 12.349 3.66 12.532 3.577 21.723-12.022 32.367-18.426 20.44-11.339 36.318 33.136" style="opacity:.994;fill:none;stroke:#fff;stroke-miterlimit:10;stroke-width:.25px"/>
    <path d="m-56.231 96.324 22.542-63.438 8.814-25.747 6.672-.975 64.144-7.535 24.726-4.003 7.826-.795 8.947-.121 39.388-2.053 15.408 5.73 18.338-8.708 41.033-6.719 44.646-6.623 24.301-2.826 33.591-5.898 20.541-14.176 12.315 3.663 12.511 3.449 21.737-11.796 32.208-18.501L423.906-81.9l36.515 32.104" style="opacity:.988;fill:none;stroke:#fff;stroke-miterlimit:10;stroke-width:.25px"/>
    <path d="m-55.943 96.829 23.563-61.868 9.146-25.389 6.639-1.025 63.973-7.114 24.451-4.361 7.782-.678 8.895-.009 39.23-2.325 15.372 5.447 18.306-8.65 40.879-6.889 44.476-6.822 24.207-2.545 33.042-6.449 20.573-13.618 12.281 3.666 12.49 3.32 21.752-11.57 32.049-18.576 20.458-10.965 36.712 31.071" style="opacity:.982;fill:none;stroke:#fff;stroke-miterlimit:10;stroke-width:.25px"/>
    <path d="m-55.655 97.333 24.583-60.297 9.479-25.032 6.606-1.074 63.803-6.693 24.175-4.72 7.738-.561 8.842.103 39.073-2.595 15.336 5.163 18.275-8.593 40.725-7.057 44.305-7.022 24.113-2.265 32.493-6.998 20.606-13.062 12.247 3.67 12.469 3.192 21.766-11.345 31.89-18.652 20.468-10.776 36.909 30.038" style="opacity:.976;fill:none;stroke:#fff;stroke-miterlimit:10;stroke-width:.25px"/>
    <path d="m-55.367 97.838 25.604-58.728 9.812-24.674 6.573-1.124 63.631-6.27 23.901-5.079 7.693-.445 8.79.215 38.916-2.866 15.298 4.881 18.244-8.537 40.571-7.225 44.135-7.222 24.018-1.984 31.946-7.549 20.638-12.504 12.213 3.673 12.448 3.063 21.779-11.119 31.733-18.727 20.476-10.589 37.106 29.006" style="opacity:.97;fill:none;stroke:#fff;stroke-miterlimit:10;stroke-width:.25px"/>
    <path d="m-55.079 98.342 26.625-57.157 10.144-24.317 6.54-1.173 63.461-5.849 23.625-5.438 7.65-.328 8.737.327 38.758-3.137 15.262 4.598 18.212-8.48 40.417-7.393 43.965-7.422 23.924-1.704 31.397-8.099 20.671-11.947 12.179 3.677 12.427 2.934 21.793-10.893 31.574-18.802 20.485-10.402 37.303 27.974" style="opacity:.963;fill:none;stroke:#fff;stroke-miterlimit:10;stroke-width:.25px"/>
    <path d="m-54.791 98.847 27.646-55.587 10.477-23.959 6.506-1.224 63.29-5.426 23.351-5.797 7.605-.212 8.684.439 38.601-3.407 15.226 4.315 18.18-8.423 40.263-7.562 43.794-7.622 23.831-1.423 30.848-8.65 20.704-11.39 12.144 3.681 12.407 2.805 21.807-10.667 31.415-18.877 20.494-10.215 37.501 26.942" style="opacity:.957;fill:none;stroke:#fff;stroke-miterlimit:10;stroke-width:.25px"/>
    <path d="m-54.503 99.351 28.666-54.016 10.81-23.602 6.473-1.273 63.119-5.005 23.076-6.156 7.561-.095 8.632.551 38.443-3.678 15.189 4.032 18.149-8.366 40.109-7.731 43.624-7.821 23.736-1.143 30.3-9.199 20.736-10.833 12.111 3.684 12.386 2.677 21.821-10.442 31.256-18.953 20.503-10.027 37.698 25.91" style="opacity:.951;fill:none;stroke:#fff;stroke-miterlimit:10;stroke-width:.25px"/>
    <path d="m-54.215 99.856 29.687-52.447 11.143-23.244 6.439-1.322 62.949-4.584 22.8-6.514 7.517.022 8.58.662 38.286-3.949 15.152 3.749 18.118-8.309 39.954-7.899L249.864-12l23.642-.863 29.751-9.749 20.769-10.276 12.077 3.688 12.364 2.548 21.836-10.216 31.098-19.028 20.511-9.839 37.895 24.876" style="fill:none;stroke:#fff;stroke-miterlimit:10;stroke-width:.25px;opacity:.945"/>
    <path d="m-53.927 100.36 30.708-50.876 11.475-22.886 6.406-1.373 62.778-4.161 22.526-6.874 7.473.139 8.526.774 38.129-4.219 15.116 3.466 18.086-8.253 39.801-8.067 43.283-8.221 23.548-.582 29.202-10.3 20.802-9.719 12.043 3.692 12.343 2.419 21.85-9.99 30.939-19.103 20.52-9.652 38.092 23.844" style="opacity:.939;fill:none;stroke:#fff;stroke-miterlimit:10;stroke-width:.25px"/>
    <path d="m-53.639 100.865 31.728-49.306 11.808-22.529 6.374-1.422 62.607-3.74 22.25-7.232 7.429.255 8.474.886 37.971-4.49 15.079 3.183 18.055-8.196L207.783.039l43.113-8.421 23.453-.302 28.654-10.85 20.835-9.161L335.847-25l12.322 2.291 21.864-9.765 30.78-19.178 20.529-9.465 38.29 22.812" style="opacity:.933;fill:none;stroke:#fff;stroke-miterlimit:10;stroke-width:.25px"/>
    <path d="m-53.351 101.369 32.749-47.735 12.141-22.172 6.34-1.471 62.436-3.318 21.976-7.592 7.384.372 8.421.998 37.814-4.761 15.043 2.901 18.023-8.139 39.493-8.404 42.943-8.621 23.359-.021 28.105-11.4 20.868-8.605 11.974 3.699 12.302 2.162 21.878-9.539 30.621-19.254 20.539-9.277 38.486 21.78" style="opacity:.927;fill:none;stroke:#fff;stroke-miterlimit:10;stroke-width:.25px"/>
    <path d="m-53.063 101.874 33.77-46.166L-6.82 33.894l6.307-1.521 62.265-2.896 21.701-7.95 7.34.488 8.369 1.11 37.657-5.031 15.006 2.617 17.992-8.082 39.338-8.572 42.772-8.821 23.266.259 27.556-11.95 20.9-8.047L335.59-20.8l12.281 2.033 21.891-9.313 30.464-19.329 20.547-9.089 38.683 20.747" style="opacity:.921;fill:none;stroke:#fff;stroke-miterlimit:10;stroke-width:.25px"/>
    <path d="m-52.775 102.378 34.79-44.595 12.807-21.456 6.273-1.571 62.095-2.475 21.425-8.309 7.297.606 8.316 1.222 37.499-5.303 14.969 2.334 17.961-8.025 39.184-8.741 42.602-9.02 23.171.54 27.008-12.501 20.933-7.49 11.907 3.706 12.26 1.904 21.905-9.087 30.305-19.404 20.556-8.902 38.88 19.715" style="opacity:.915;fill:none;stroke:#fff;stroke-miterlimit:10;stroke-width:.25px"/>
    <path d="m-52.487 102.883 35.811-43.025 13.139-21.099 6.24-1.621 61.924-2.052 21.151-8.668 7.252.722 8.263 1.334 37.342-5.574 14.933 2.052 17.929-7.969 39.03-8.909 42.432-9.22 23.077.82 26.46-13.051 20.965-6.933 11.873 3.71 12.239 1.776 21.919-8.862 30.146-19.479 20.565-8.715 39.078 18.682" style="opacity:.909;fill:none;stroke:#fff;stroke-miterlimit:10;stroke-width:.25px"/>
    <path d="m-52.199 103.387 36.832-41.454 13.472-20.742 6.206-1.67 61.754-1.631 20.875-9.027 7.208.839 8.211 1.446 37.184-5.844 14.897 1.768 17.897-7.912 38.877-9.077 42.261-9.42 22.983 1.101 25.911-13.601 20.998-6.376 11.839 3.713 12.217 1.647 21.934-8.636 29.987-19.555 20.574-8.527 39.275 17.65" style="opacity:.902;fill:none;stroke:#fff;stroke-miterlimit:10;stroke-width:.25px"/>
    <path d="m-51.911 103.892 37.852-39.885L-.254 43.624l6.174-1.72 61.582-1.21 20.601-9.385 7.163.955 8.159 1.558 37.026-6.115 14.86 1.486 17.866-7.855 38.723-9.246 42.091-9.62 22.888 1.381 25.363-14.151 21.031-5.819 11.804 3.717 12.197 1.518 21.948-8.41 29.828-19.63 20.583-8.339 39.472 16.617" style="opacity:.896;fill:none;stroke:#fff;stroke-miterlimit:10;stroke-width:.25px"/>
    <path d="m-51.623 104.396 38.873-38.314L1.388 46.056l6.14-1.77 61.411-.787 20.326-9.745 7.12 1.072 8.105 1.67 36.87-6.386 14.823 1.203 17.835-7.798 38.568-9.414 41.921-9.82 22.794 1.662 24.814-14.702 21.063-5.262 11.771 3.721 12.176 1.39 21.962-8.185 29.67-19.705 20.591-8.152 39.67 15.585" style="opacity:.89;fill:none;stroke:#fff;stroke-miterlimit:10;stroke-width:.25px"/>
    <path d="m-51.335 104.901 39.894-36.744 14.47-19.669 6.107-1.819 61.241-.366 20.05-10.104 7.076 1.189 8.053 1.782 36.712-6.657 14.787.92 17.803-7.741 38.414-9.583 41.75-10.019 22.701 1.942L301.988-7.22l21.096-4.704L334.821-8.2l12.155 1.261 21.976-7.959 29.511-19.78 20.601-7.965L458.93-28.09" style="opacity:.884;fill:none;stroke:#fff;stroke-miterlimit:10;stroke-width:.25px"/>
    <path d="m-51.047 105.405 40.914-35.173L4.67 50.92l6.074-1.868 61.07.056L91.59 38.645l7.031 1.306 8.001 1.893 36.554-6.927 14.75.637 17.772-7.685 38.26-9.751 41.58-10.219 22.607 2.222L301.861-5.68l21.129-4.148L334.693-6.1l12.134 1.132 21.99-7.733 29.352-19.856 20.61-7.777 40.063 13.521" style="opacity:.878;fill:none;stroke:#fff;stroke-miterlimit:10;stroke-width:.25px"/>
    <path d="m-50.759 105.91 41.935-33.604L6.312 53.353l6.04-1.919 60.9.478 19.5-10.822 6.987 1.423 7.948 2.005 36.397-7.198 14.714.354 17.74-7.627 38.107-9.92 41.409-10.419 22.512 2.503 23.168-16.352 21.162-3.59L334.564-4l12.114 1.003 22.004-7.507 29.193-19.931 20.619-7.589 40.26 12.487" style="opacity:.872;fill:none;stroke:#fff;stroke-miterlimit:10;stroke-width:.25px"/>
    <path d="m-50.471 106.414 42.956-32.033L7.953 55.785l6.008-1.968 60.728.899 19.226-11.18 6.943 1.539 7.895 2.117 36.24-7.469 14.677.072 17.709-7.571 37.952-10.088 41.239-10.619 22.418 2.783 22.619-16.902 21.195-3.033L334.436-1.9l12.092.875 22.018-7.282 29.036-20.006 20.627-7.402 40.458 11.455" style="opacity:.866;fill:none;stroke:#fff;stroke-miterlimit:10;stroke-width:.25px"/>
    <path d="m-50.183 106.919 43.977-30.463L9.595 58.217l5.974-2.018 60.558 1.322 18.95-11.54 6.899 1.656 7.842 2.229 36.083-7.739 14.64-.212 17.678-7.514 37.798-10.256 41.069-10.82 22.324 3.065 22.07-17.453 21.228-2.476L334.308.2l12.071.746 22.032-7.056 28.877-20.081 20.636-7.215 40.655 10.423" style="opacity:.86;fill:none;stroke:#fff;stroke-miterlimit:10;stroke-width:.25px"/>
    <path d="m-49.896 107.423 44.998-28.892 16.134-17.882 5.941-2.067 60.387 1.743 18.675-11.898 6.855 1.772 7.79 2.341 35.925-8.01 14.604-.495 17.646-7.457 37.644-10.424 40.899-11.02 22.229 3.345L301.354.477l21.259-1.919L334.18 2.3l12.05.617 22.046-6.83 28.718-20.157 20.645-7.027 40.852 9.391" style="opacity:.854;fill:none;stroke:#fff;stroke-miterlimit:10;stroke-width:.25px"/>
    <path d="m-49.608 107.928 46.019-27.323 16.467-17.523 5.907-2.117 60.216 2.165 18.401-12.258 6.81 1.89 7.738 2.453 35.767-8.282 14.568-.777 17.614-7.401 37.49-10.593 40.728-11.219 22.136 3.626 20.974-18.553L322.519.654 334.052 4.4l12.029.489 22.06-6.605L396.7-21.948l20.654-6.839 41.05 8.358" style="opacity:.848;fill:none;stroke:#fff;stroke-miterlimit:10;stroke-width:.25px"/>
    <path d="M-49.32 108.432-2.28 82.68l16.799-17.166 5.874-2.167 60.046 2.587 18.125-12.616 6.767 2.006 7.684 2.565 35.611-8.552 14.53-1.061 17.583-7.343 37.336-10.762 40.558-11.419 22.042 3.906L301.1 3.555l21.325-.804L333.923 6.5l12.009.36L368.006.481l28.401-20.307 20.663-6.652 41.246 7.326" style="opacity:.841;fill:none;stroke:#fff;stroke-miterlimit:10;stroke-width:.25px"/>
    <path d="m-49.032 108.937 48.06-24.182L16.16 67.946l5.841-2.216 59.875 3.008 17.85-12.975 6.723 2.123 7.632 2.677 35.453-8.823 14.494-1.343 17.552-7.287 37.182-10.93 40.387-11.619 21.947 4.187 19.877-19.654 21.358-.247L333.795 8.6l11.988.231 22.088-6.153 28.242-20.382 20.672-6.465 41.443 6.293" style="opacity:.835;fill:none;stroke:#fff;stroke-miterlimit:10;stroke-width:.25px"/>
    <path d="M-48.744 109.441.337 86.83l17.465-16.451 5.808-2.266 59.704 3.43 17.575-13.334 6.678 2.239 7.58 2.789 35.295-9.094 14.458-1.626 17.52-7.23 37.028-11.098 40.217-11.819 21.853 4.467 19.328-20.203 21.391.309 11.43 3.757 11.967.102 22.102-5.927 28.083-20.458L416.5-21.86l41.64 5.261" style="opacity:.829;fill:none;stroke:#fff;stroke-miterlimit:10;stroke-width:.25px"/>
    <path d="M-48.456 109.946 1.646 88.904l17.797-16.093 5.775-2.316 59.533 3.852 17.3-13.693 6.634 2.356 7.527 2.901 35.138-9.364 14.421-1.91 17.489-7.173 36.874-11.266 40.047-12.019 21.759 4.748 18.779-20.754 21.423.867 11.397 3.76 11.945-.026 22.117-5.702 27.924-20.533 20.69-6.089 41.838 4.228" style="opacity:.823;fill:none;stroke:#fff;stroke-miterlimit:10;stroke-width:.25px"/>
    <path d="M-48.168 110.45 2.954 90.979l18.131-15.736 5.741-2.365 59.362 4.274L103.214 63.1l6.59 2.472 7.474 3.013 34.981-9.635 14.384-2.192 17.457-7.117 36.72-11.435 39.877-12.218 21.664 5.028 18.231-21.304 21.456 1.424L333.41 14.9l11.925-.155 22.13-5.476 27.766-20.608 20.699-5.902 42.035 3.196" style="opacity:.817;fill:none;stroke:#fff;stroke-miterlimit:10;stroke-width:.25px"/>
    <path d="M-47.88 110.955 4.263 93.054l18.463-15.379 5.708-2.415 59.192 4.696 16.75-14.411 6.546 2.59 7.422 3.124 34.823-9.906 14.348-2.475 17.426-7.059 36.565-11.604 39.706-12.418 21.571 5.308 17.682-21.853 21.489 1.98L333.282 17l11.904-.284 22.144-5.25 27.608-20.683 20.707-5.715 42.232 2.164" style="opacity:.811;fill:none;stroke:#fff;stroke-miterlimit:10;stroke-width:.25px"/>
    <path d="m-47.592 111.459 53.164-16.33 18.796-15.021 5.674-2.465 59.021 5.117 16.475-14.769 6.502 2.706 7.369 3.236 34.666-10.176 14.311-2.758 17.395-7.003 36.411-11.772 39.536-12.618 21.477 5.589 17.133-22.404 21.522 2.538 11.294 3.771 11.883-.412 22.158-5.025 27.449-20.759 20.716-5.527 42.429 1.132" style="opacity:.805;fill:none;stroke:#fff;stroke-miterlimit:10;stroke-width:.25px"/>
    <path d="M-47.304 111.964 6.88 97.203 26.009 82.54l5.641-2.514 58.851 5.539 16.2-15.129 6.457 2.823 7.317 3.348 34.508-10.447 14.275-3.041 17.363-6.946 36.258-11.94 39.365-12.818 21.382 5.869 16.585-22.954 21.555 3.095 11.26 3.775 11.862-.541 22.172-4.799 27.29-20.834 20.725-5.339 42.627.098" style="opacity:.799;fill:none;stroke:#fff;stroke-miterlimit:10;stroke-width:.25px"/>
    <path d="m-47.016 112.468 55.205-13.19 19.462-14.306 5.608-2.564 58.679 5.961 15.925-15.487 6.414 2.939 7.264 3.46 34.351-10.718 14.238-3.324 17.331-6.889 36.104-12.108 39.195-13.018 21.288 6.15 16.037-23.505 21.586 3.653 11.227 3.778 11.841-.67 22.186-4.573 27.131-20.909 20.735-5.152 42.823-.934" style="opacity:.793;fill:none;stroke:#fff;stroke-miterlimit:10;stroke-width:.25px"/>
    <path d="m-46.728 112.973 56.226-11.62 19.794-13.949 5.575-2.613 58.509 6.383 15.65-15.847 6.369 3.056 7.211 3.572L156.8 70.967l14.201-3.607 17.3-6.832 35.95-12.277 39.025-13.218 21.194 6.43 15.488-24.054 21.619 4.209 11.192 3.782 11.82-.799 22.201-4.347L393.763-.73l20.743-4.965 43.02-1.966" style="opacity:.787;fill:none;stroke:#fff;stroke-miterlimit:10;stroke-width:.25px"/>
    <path d="m-46.44 113.477 57.246-10.049 20.127-13.591 5.542-2.664 58.338 6.805 15.375-16.205 6.325 3.173 7.159 3.684 34.036-11.26 14.165-3.89 17.269-6.775 35.795-12.446 38.855-13.417 21.1 6.711 14.939-24.605 21.652 4.766 11.158 3.786 11.799-.927 22.215-4.122 26.814-21.06 20.752-4.777 43.218-2.998" style="opacity:.78;fill:none;stroke:#fff;stroke-miterlimit:10;stroke-width:.25px"/>
    <path d="m-46.152 113.982 58.267-8.48 20.46-13.233 5.508-2.713 58.167 7.226 15.1-16.564 6.281 3.29 7.106 3.796 33.879-11.531 14.129-4.172 17.237-6.719 35.641-12.614 38.684-13.617 21.006 6.991 14.391-25.155 21.685 5.324 11.124 3.789 11.778-1.056 22.229-3.896 26.655-21.135 20.761-4.589 43.415-4.031" style="opacity:.774;fill:none;stroke:#fff;stroke-miterlimit:10;stroke-width:.25px"/>
    <path d="m-45.864 114.486 59.288-6.909 20.792-12.876 5.475-2.762 57.997 7.648 14.825-16.923 6.237 3.406 7.053 3.908 33.721-11.801 14.092-4.456 17.206-6.662 35.488-12.782 38.513-13.817 20.912 7.272 13.842-25.706 21.718 5.881 11.09 3.793 11.757-1.185 22.243-3.67 26.496-21.21 20.77-4.402 43.612-5.063" style="opacity:.768;fill:none;stroke:#fff;stroke-miterlimit:10;stroke-width:.25px"/>
    <path d="m-45.576 114.991 60.308-5.339 21.126-12.518 5.441-2.813 57.826 8.07 14.55-17.282 6.193 3.523 7.001 4.02 33.564-12.072 14.055-4.739 17.174-6.605 35.334-12.95 38.343-14.017 20.818 7.552 13.293-26.255 21.75 6.437 11.056 3.797 11.737-1.313 22.256-3.445 26.339-21.285 20.778-4.215 43.809-6.096" style="opacity:.762;fill:none;stroke:#fff;stroke-miterlimit:10;stroke-width:.25px"/>
    <path d="m-45.288 115.495 61.329-3.768 21.458-12.161 5.409-2.862 57.655 8.492 14.275-17.641 6.148 3.639 6.948 4.132 33.407-12.343 14.019-5.021 17.143-6.548 35.179-13.119 38.173-14.217 20.723 7.833 12.745-26.806 21.783 6.995 11.022 3.8 11.716-1.442 22.27-3.219 26.18-21.361 20.787-4.027 44.007-7.128" style="opacity:.756;fill:none;stroke:#fff;stroke-miterlimit:10;stroke-width:.25px"/>
    <path d="m-45 116 62.35-2.199 27.166-14.714L102 108l14-18 13 8 137.371-52.113L287 54l12.196-27.356L332 38l33.979-4.564L392 12l65-12" style="opacity:.75;fill:none;stroke:#fff;stroke-miterlimit:10;stroke-width:.25px"/>
    <path d="m-45.191 119.729 62.016-3.47 28.961-15.212 56.551 9.11 15.346-18.328 14.561 7.878L266.289 47.67l21.703 7.965 12.529-27.279 32.308 11.162 34.102-5.264 26.191-20.669L457.366 0" style="opacity:.738;fill:none;stroke:#fff;stroke-miterlimit:10;stroke-width:.25px"/>
    <path d="m-45.382 123.457 61.683-4.741 30.755-15.709 55.618 9.307 16.692-18.655 16.122 7.756 130.718-51.962 22.777 7.818 12.864-27.204 31.811 10.968 34.225-5.962 26.361-19.902L457.732 0" style="opacity:.726;fill:none;stroke:#fff;stroke-miterlimit:10;stroke-width:.25px"/>
    <path d="m-45.573 127.186 61.349-6.013 32.55-16.206 54.686 9.504 18.037-18.983 17.683 7.634 127.392-51.886 23.851 7.67 13.197-27.127 31.314 10.774 34.348-6.661 26.532-19.136L458.098 0" style="opacity:.713;fill:none;stroke:#fff;stroke-miterlimit:10;stroke-width:.25px"/>
    <path d="m-45.764 130.914 61.016-7.284 34.344-16.703 53.753 9.7 19.383-19.31 19.244 7.512L266.042 53.02l24.924 7.521 13.531-27.05 30.818 10.579 34.471-7.36 26.702-18.369L458.463 0" style="opacity:.701;fill:none;stroke:#fff;stroke-miterlimit:10;stroke-width:.25px"/>
    <path d="m-45.955 134.643 60.682-8.556 36.139-17.2 52.82 9.897 20.729-19.638 20.805 7.391 120.74-51.734 25.998 7.373 13.864-26.974 30.322 10.386 34.594-8.059 26.872-17.602L458.829 0" style="opacity:.689;fill:none;stroke:#fff;stroke-miterlimit:10;stroke-width:.25px"/>
    <path d="m-46.146 138.372 60.349-9.828 37.932-17.697 51.888 10.094 22.075-19.965 22.365 7.268 117.415-51.658 27.071 7.226 14.198-26.898 29.826 10.191 34.717-8.758 27.042-16.835L459.195 0" style="opacity:.677;fill:none;stroke:#fff;stroke-miterlimit:10;stroke-width:.25px"/>
    <path d="m-46.337 142.1 60.015-11.099 39.727-18.193 50.956 10.29 23.419-20.293 23.927 7.146 114.088-51.582 28.146 7.078 14.531-26.821 29.329 9.997 34.84-9.457 27.213-16.068L459.561 0" style="opacity:.665;fill:none;stroke:#fff;stroke-miterlimit:10;stroke-width:.25px"/>
    <path d="m-46.528 145.829 59.681-12.371 41.522-18.69 50.023 10.487 24.765-20.621 25.488 7.025 110.762-51.506 29.219 6.929 14.866-26.744 28.832 9.802 34.963-10.155 27.383-15.302L459.927 0" style="opacity:.652;fill:none;stroke:#fff;stroke-miterlimit:10;stroke-width:.25px"/>
    <path d="m-46.719 149.558 59.348-13.643 43.316-19.187 49.09 10.684 26.111-20.949 27.049 6.903 107.436-51.43 30.293 6.781 15.199-26.668 28.336 9.609 35.086-10.855 27.553-14.535L460.293 0" style="opacity:.64;fill:none;stroke:#fff;stroke-miterlimit:10;stroke-width:.25px"/>
    <path d="m-46.909 153.286 59.013-14.914 45.111-19.684 48.157 10.881 27.457-21.276 28.61 6.78 104.11-51.354 31.366 6.634 15.533-26.592 27.84 9.414 35.208-11.553 27.724-13.768L460.659 0" style="opacity:.628;fill:none;stroke:#fff;stroke-miterlimit:10;stroke-width:.25px"/>
    <path d="m-47.1 157.015 58.68-16.186 46.905-20.181 47.225 11.077 28.802-21.603 30.171 6.658 100.783-51.278 32.441 6.486 15.866-26.515 27.343 9.22 35.332-12.252 27.893-13.002L461.024 0" style="opacity:.616;fill:none;stroke:#fff;stroke-miterlimit:10;stroke-width:.25px"/>
    <path d="m-47.291 160.743 58.346-17.457 48.7-20.678 46.292 11.274 30.148-21.931 31.732 6.537 97.457-51.202 33.515 6.337 16.199-26.439 26.847 9.026L377.4 43.259l28.063-12.235L461.39 0" style="opacity:.604;fill:none;stroke:#fff;stroke-miterlimit:10;stroke-width:.25px"/>
    <path d="m-47.482 164.472 58.013-18.728 50.494-21.176 45.359 11.471 31.494-22.259 33.293 6.415 94.131-51.126 34.588 6.19 16.533-26.363 26.351 8.832 35.578-13.65 28.233-11.468L461.756 0" style="opacity:.591;fill:none;stroke:#fff;stroke-miterlimit:10;stroke-width:.25px"/>
    <path d="m-47.673 168.201 57.679-20 52.289-21.672 44.426 11.667 32.84-22.586 34.854 6.292 90.805-51.05 35.662 6.042 16.867-26.286 25.854 8.637 35.7-14.348 28.404-10.702L462.122 0" style="opacity:.579;fill:none;stroke:#fff;stroke-miterlimit:10;stroke-width:.25px"/>
    <path d="m-47.864 171.929 57.346-21.271 54.083-22.169 43.493 11.864 34.186-22.914 36.415 6.171 87.479-50.975 36.735 5.894 17.201-26.21 25.357 8.444 35.824-15.048 28.574-9.935L462.488 0" style="opacity:.567;fill:none;stroke:#fff;stroke-miterlimit:10;stroke-width:.25px"/>
    <path d="m-48.055 175.658 57.012-22.543 55.878-22.666 42.561 12.061 35.531-23.242 37.975 6.049 84.153-50.898 37.81 5.745 17.534-26.133 24.861 8.249 35.947-15.746 28.744-9.168L462.854 0" style="opacity:.555;fill:none;stroke:#fff;stroke-miterlimit:10;stroke-width:.25px"/>
    <path d="m-48.246 179.387 56.679-23.815 57.672-23.163 41.628 12.258 36.877-23.569 39.536 5.926 80.827-50.822 38.883 5.598 17.868-26.057 24.365 8.055 36.07-16.445 28.914-8.402L463.22 0" style="opacity:.543;fill:none;stroke:#fff;stroke-miterlimit:10;stroke-width:.25px"/>
    <path d="m-48.437 183.115 56.345-25.086 59.467-23.66 40.695 12.454 38.223-23.896 41.097 5.805 77.501-50.747 39.957 5.45 18.201-25.981 23.869 7.861 36.192-17.144 29.085-7.634L463.585 0" style="opacity:.53;fill:none;stroke:#fff;stroke-miterlimit:10;stroke-width:.25px"/>
    <path d="m-48.628 186.844 56.011-26.358 61.262-24.157 39.762 12.651 39.569-24.224 42.658 5.683 74.175-50.671 41.03 5.302 18.535-25.904 23.372 7.667 36.316-17.843 29.255-6.868L463.951 0" style="opacity:.518;fill:none;stroke:#fff;stroke-miterlimit:10;stroke-width:.25px"/>
    <path d="m-48.819 190.572 55.678-27.629 63.056-24.654 38.83 12.848 40.914-24.552 44.219 5.561 70.849-50.594 42.104 5.153L325.7 60.878l22.875 7.472 36.439-18.542 29.425-6.101L464.317 0" style="opacity:.506;fill:none;stroke:#fff;stroke-miterlimit:10;stroke-width:.25px"/>
    <path d="M-49.01 194.301 6.334 165.4l64.851-25.15 37.897 13.044 42.259-24.879 45.781 5.439 67.522-50.519 43.178 5.006 19.203-25.752 22.379 7.279 36.561-19.241 29.596-5.334L464.683 0" style="opacity:.494;fill:none;stroke:#fff;stroke-miterlimit:10;stroke-width:.25px"/>
    <path d="M-49.201 198.03 5.81 167.857l66.645-25.647 36.964 13.241 43.605-25.207 47.342 5.317 64.196-50.443 44.252 4.858 19.536-25.675 21.883 7.085 36.684-19.94 29.766-4.568L465.049 0" style="opacity:.482;fill:none;stroke:#fff;stroke-miterlimit:10;stroke-width:.25px"/>
    <path d="m-49.392 201.758 54.677-31.444 68.44-26.144 36.031 13.438 44.951-25.535 48.903 5.195 60.87-50.367 45.326 4.71 19.869-25.598 21.387 6.89 36.807-20.639 29.936-3.801L465.415 0" style="opacity:.47;fill:none;stroke:#fff;stroke-miterlimit:10;stroke-width:.25px"/>
    <path d="m-49.583 205.487 54.344-32.716 70.234-26.641 35.098 13.635 46.297-25.863 50.464 5.074 57.544-50.291 46.399 4.561L331 67.724l20.89 6.697 36.931-21.338 30.106-3.034L465.78 0" style="opacity:.457;fill:none;stroke:#fff;stroke-miterlimit:10;stroke-width:.25px"/>
    <path d="m-49.774 209.216 54.01-33.988 72.029-27.138 34.166 13.831 47.642-26.189 52.025 4.951 54.217-50.215 47.474 4.414 20.536-25.446 20.394 6.502 37.053-22.036 30.277-2.268L466.146 0" style="opacity:.445;fill:none;stroke:#fff;stroke-miterlimit:10;stroke-width:.25px"/>
    <path d="m-49.965 212.944 53.677-35.258 73.823-27.636 33.233 14.028 48.988-26.517 53.585 4.829 50.892-50.139 48.547 4.266 20.871-25.369 19.897 6.308 37.176-22.736 30.447-1.5L466.512 0" style="opacity:.433;fill:none;stroke:#fff;stroke-miterlimit:10;stroke-width:.25px"/>
    <path d="m-50.156 216.673 53.343-36.53 75.617-28.133 32.301 14.225 50.334-26.845 55.146 4.708 47.566-50.064 49.621 4.118 21.204-25.293 19.401 6.114 37.299-23.434 30.617-.734L466.878 0" style="opacity:.421;fill:none;stroke:#fff;stroke-miterlimit:10;stroke-width:.25px"/>
    <path d="M-50.346 220.401 2.663 182.6l77.411-28.629 31.368 14.421 51.68-27.172 56.707 4.585 44.24-49.987 50.694 3.97 21.538-25.217 18.904 5.92 37.423-24.133 30.787.032L467.244 0" style="opacity:.409;fill:none;stroke:#fff;stroke-miterlimit:10;stroke-width:.25px"/>
    <path d="m-50.537 224.13 52.675-39.073 79.206-29.126 30.436 14.618 53.025-27.5 58.268 4.463 40.914-49.911 51.768 3.822 21.871-25.14 18.408 5.725 37.545-24.832 30.958.8L467.61 0" style="opacity:.396;fill:none;stroke:#fff;stroke-miterlimit:10;stroke-width:.25px"/>
    <path d="m-50.728 227.859 52.341-40.345 81.001-29.623 29.503 14.815 54.371-27.828 59.829 4.342 37.587-49.836 52.842 3.674 22.205-25.064 17.912 5.532 37.668-25.531 31.128 1.566L467.976 0" style="opacity:.384;fill:none;stroke:#fff;stroke-miterlimit:10;stroke-width:.25px"/>
    <path d="m-50.919 231.587 52.008-41.616 82.795-30.12 28.57 15.012 55.717-28.156 61.39 4.22 34.261-49.76 53.916 3.526 22.538-24.987 17.416 5.337 37.791-26.229 31.297 2.332L468.341 0" style="opacity:.372;fill:none;stroke:#fff;stroke-miterlimit:10;stroke-width:.25px"/>
    <path d="M-51.11 235.316.564 192.428l84.59-30.617 27.637 15.208 57.063-28.482 62.951 4.097 30.935-49.683 54.989 3.378 22.873-24.911 16.918 5.143 37.914-26.929 31.468 3.1L468.707 0" style="opacity:.36;fill:none;stroke:#fff;stroke-miterlimit:10;stroke-width:.25px"/>
    <path d="M-51.301 239.045.04 194.885l86.384-31.114 26.705 15.405 58.408-28.81 64.512 3.975 27.609-49.607 56.063 3.23 23.206-24.835 16.422 4.949 38.037-27.627 31.638 3.866L469.073 0" style="opacity:.348;fill:none;stroke:#fff;stroke-miterlimit:10;stroke-width:.25px"/>
    <path d="m-51.492 242.773 51.007-45.431 88.179-31.611 25.772 15.602 59.754-29.138 66.073 3.854 24.283-49.532 57.136 3.082 23.54-24.758 15.926 4.755 38.16-28.327 31.808 4.633L469.439 0" style="opacity:.335;fill:none;stroke:#fff;stroke-miterlimit:10;stroke-width:.25px"/>
    <path d="m-51.683 246.502 50.674-46.703 89.973-32.107 24.839 15.798 61.099-29.466 67.635 3.732 20.956-49.456 58.211 2.934 23.873-24.681 15.43 4.56 38.283-29.025 31.978 5.4L469.805 0" style="opacity:.323;fill:none;stroke:#fff;stroke-miterlimit:10;stroke-width:.25px"/>
    <path d="m-51.874 250.23 50.34-47.974 91.768-32.604 23.906 15.995 62.445-29.793 69.195 3.609 17.631-49.379 59.285 2.786 24.206-24.606 14.933 4.367 38.406-29.724 32.149 6.166L470.171 0" style="opacity:.311;fill:none;stroke:#fff;stroke-miterlimit:10;stroke-width:.25px"/>
    <path d="m-52.065 253.959 50.007-49.246 93.562-33.101 22.973 16.192 63.791-30.121 70.756 3.488 14.305-49.304 60.358 2.638 24.54-24.529 14.437 4.172 38.529-30.423 32.319 6.934L470.537 0" style="opacity:.299;fill:none;stroke:#fff;stroke-miterlimit:10;stroke-width:.25px"/>
    <path d="m-52.256 257.688 49.673-50.517 95.357-33.599 22.041 16.389 65.136-30.449 72.317 3.366 10.979-49.228 61.432 2.49 24.874-24.452 13.94 3.978 38.652-31.122 32.489 7.7L470.902 0" style="opacity:.287;fill:none;stroke:#fff;stroke-miterlimit:10;stroke-width:.25px"/>
    <path d="m-52.447 261.416 49.34-51.788 97.151-34.096 21.108 16.585 66.482-30.776 73.878 3.244 7.652-49.152 62.506 2.343 25.208-24.377 13.444 3.784 38.775-31.82 32.659 8.466L471.268 0" style="opacity:.274;fill:none;stroke:#fff;stroke-miterlimit:10;stroke-width:.25px"/>
    <path d="m-52.638 265.145 49.006-53.06 98.946-34.593 20.175 16.782 67.828-31.103 75.439 3.122 4.326-49.076 63.58 2.194 25.541-24.3 12.947 3.59 38.898-32.52 32.83 9.234L471.634 0" style="opacity:.262;fill:none;stroke:#fff;stroke-miterlimit:10;stroke-width:.25px"/>
    <path d="m-52.829 268.874 48.672-54.332 100.741-35.09 19.242 16.979L185 165l77 3 1-49 64.653 2.046 25.875-24.223 12.451 3.396L405 67l33 10 34-77" style="opacity:.25;fill:none;stroke:#fff;stroke-miterlimit:10;stroke-width:.25px"/>
    <path d="m-51.54 271.096 48.902-54.346 22.556-7.378 42.581-15.009 27.818-9.062 7.836-2.518 19.27 17.043 5.372-2.278 63.517-29.65 70.836 1.311 5.748.224 2.293-47.753 29.977.955 34.579.429 25.934-24.291 12.398 3.074 37.971-33.685 19.329 5.352 12.994 3.587 11.885-26.747L472.195 0" style="opacity:.244;fill:none;stroke:#fff;stroke-miterlimit:10;stroke-width:.25px"/>
    <path d="m-50.252 273.319 49.132-54.36 22.587-6.911 42.62-15.2 27.83-8.439 7.806-2.295 19.296 17.107 5.357-2.107 63.248-30.319 70.406-.154 5.763.224 3.585-46.505 30.051.963 34.407-.242 25.995-24.357 12.345 2.752 36.92-34.152 18.805 4.688 12.84 3.191 11.955-26.734L472.39 0" style="opacity:.238;fill:none;stroke:#fff;stroke-miterlimit:10;stroke-width:.25px"/>
    <path d="M-48.963 275.541.399 221.168l22.616-6.444 42.66-15.39 27.842-7.817 7.775-2.073 19.323 17.172 5.341-1.936 62.98-30.987 69.977-1.62 5.776.225 4.878-45.259 30.126.972 34.235-.912 26.054-24.425 12.292 2.431 35.871-34.619 18.28 4.023 12.687 2.795 12.024-26.721L472.585 0" style="opacity:.232;fill:none;stroke:#fff;stroke-miterlimit:10;stroke-width:.25px"/>
    <path d="m-47.675 277.764 49.592-54.388 22.647-5.976 42.699-15.581 27.854-7.194 7.744-1.85 19.351 17.236 5.324-1.765 62.712-31.655 69.548-3.086 5.79.226 6.17-44.012 30.2.981 34.064-1.583 26.113-24.493 12.239 2.11 34.821-35.085 17.756 3.358 12.534 2.399 12.093-26.708L472.78 0" style="opacity:.226;fill:none;stroke:#fff;stroke-miterlimit:10;stroke-width:.25px"/>
    <path d="m-46.386 279.987 49.822-54.402 22.677-5.509 42.737-15.772 27.866-6.571 7.715-1.628 19.377 17.301 5.308-1.594 62.444-32.323 69.119-4.552 5.803.227 7.463-42.765 30.274.989 33.892-2.253 26.174-24.56 12.185 1.788 33.771-35.552 17.233 2.694 12.38 2.002 12.162-26.694L472.976 0" style="opacity:.22;fill:none;stroke:#fff;stroke-miterlimit:10;stroke-width:.25px"/>
    <path d="m-45.098 282.209 50.052-54.416 22.708-5.041 42.776-15.962 27.878-5.949 7.684-1.405 19.405 17.365 5.292-1.423 62.175-32.992 68.689-6.017 5.818.227 8.755-41.517 30.349.998 33.72-2.925 26.233-24.627 12.132 1.467 32.721-36.019 16.709 2.03 12.226 1.606 12.232-26.682L473.171 0" style="opacity:.213;fill:none;stroke:#fff;stroke-miterlimit:10;stroke-width:.25px"/>
    <path d="m-43.809 284.432 50.281-54.43 22.738-4.574 42.816-16.153 27.89-5.326 7.654-1.183 19.431 17.43 5.276-1.252 61.907-33.66 68.26-7.483 5.831.228 10.048-40.271 30.423 1.007 33.548-3.595 26.293-24.694 12.079 1.144 31.672-36.485 16.184 1.366 12.073 1.209 12.301-26.668L473.366 0" style="opacity:.207;fill:none;stroke:#fff;stroke-miterlimit:10;stroke-width:.25px"/>
    <path d="m-42.521 286.654 50.512-54.443 22.768-4.107 42.855-16.344 27.902-4.703 7.623-.96 19.458 17.494 5.26-1.081 61.639-34.328 67.831-8.949 5.844.229 11.341-39.024 30.497 1.015 33.377-4.265 26.353-24.762 12.026.823 30.621-36.952 15.66.702 11.92.813 12.37-26.655L473.561 0" style="opacity:.201;fill:none;stroke:#fff;stroke-miterlimit:10;stroke-width:.25px"/>
    <path d="m-41.232 288.877 50.741-54.458 22.799-3.639 42.894-16.534 27.914-4.081 7.593-.738 19.485 17.559 5.243-.91 61.371-34.997 67.402-10.413 5.858.228 12.633-37.776 30.572 1.024 33.205-4.937 26.412-24.829 11.973.502 29.571-37.419 15.136.037 11.767.417 12.438-26.642L473.756 0" style="opacity:.195;fill:none;stroke:#fff;stroke-miterlimit:10;stroke-width:.25px"/>
    <path d="m-39.944 291.1 50.972-54.472 22.829-3.172 42.933-16.725 27.926-3.458 7.562-.515 19.512 17.623 5.228-.74 61.102-35.664 66.972-11.879 5.872.229 13.926-36.529 30.646 1.032 33.033-5.607 26.472-24.896 11.92.18 28.521-37.886 14.613-.627 11.612.02 12.508-26.628L473.951 0" style="opacity:.189;fill:none;stroke:#fff;stroke-miterlimit:10;stroke-width:.25px"/>
    <path d="m-38.655 293.322 51.201-54.486 22.86-2.704 42.972-16.916 27.938-2.835 7.531-.293 19.539 17.688 5.212-.569 60.834-36.332 66.543-13.345 5.886.23 15.218-35.283 30.72 1.041 32.862-6.277 26.531-24.964 11.867-.141 27.472-38.353 14.088-1.291 11.459-.376 12.577-26.615L474.146 0" style="opacity:.183;fill:none;stroke:#fff;stroke-miterlimit:10;stroke-width:.25px"/>
    <path d="m-37.367 295.545 51.432-54.5 22.889-2.237 43.012-17.106 27.949-2.213 7.502-.07 19.566 17.752 5.195-.398 60.567-37.001 66.113-14.81 5.899.231 16.511-34.036 30.795 1.05 32.689-6.949 26.592-25.031 11.813-.462 26.422-38.819 13.564-1.956 11.306-.773 12.646-26.601L474.341 0" style="opacity:.177;fill:none;stroke:#fff;stroke-miterlimit:10;stroke-width:.25px"/>
    <path d="m-36.078 297.767 51.661-54.513 22.92-1.769 43.05-17.298 27.962-1.59 7.471.153 19.593 17.816 5.179-.227 60.299-37.669 65.684-16.276 5.913.231 17.803-32.788 30.869 1.058 32.518-7.619 26.651-25.098 11.761-.784 25.371-39.286 13.04-2.62 11.153-1.169 12.715-26.589L474.537 0" style="opacity:.171;fill:none;stroke:#fff;stroke-miterlimit:10;stroke-width:.25px"/>
    <path d="m-34.79 299.99 51.891-54.528 22.951-1.301 43.089-17.489 27.974-.967 7.441.375 19.62 17.881 5.163-.056 60.03-38.337 65.254-17.742 5.927.232 19.096-31.541 30.943 1.067 32.347-8.29 26.71-25.166 11.708-1.106 24.321-39.752 12.516-3.284 10.999-1.566 12.785-26.575L474.732 0" style="opacity:.165;fill:none;stroke:#fff;stroke-miterlimit:10;stroke-width:.25px"/>
    <path d="m-33.501 302.213 52.121-54.542 22.981-.834 43.128-17.68 27.986-.344 7.41.598 19.647 17.945 5.147.115 59.762-39.005 64.825-19.208 5.94.233 20.389-30.294 31.018 1.075 32.174-8.961 26.771-25.232 11.654-1.428 23.271-40.219 11.993-3.949 10.845-1.961 12.854-26.562L474.927 0" style="opacity:.159;fill:none;stroke:#fff;stroke-miterlimit:10;stroke-width:.25px"/>
    <path d="m-32.213 304.435 52.351-54.555 23.011-.367 43.168-17.87 27.998.278 7.38.82 19.673 18.01 5.131.286 59.494-39.674 64.396-20.673 5.954.234 21.681-29.048 31.092 1.084 32.003-9.631 26.83-25.3 11.601-1.749 22.222-40.686 11.468-4.613 10.692-2.358 12.923-26.549L475.122 0" style="opacity:.152;fill:none;stroke:#fff;stroke-miterlimit:10;stroke-width:.25px"/>
    <path d="m-30.924 306.658 52.581-54.57 23.041.101 43.207-18.061 28.01.901 7.349 1.043 19.701 18.074 5.114.457 59.226-40.342 63.967-22.139 5.967.234 22.974-27.8 31.166 1.093 31.831-10.302 26.89-25.368 11.548-2.07 21.172-41.153 10.944-5.277 10.539-2.755 12.991-26.535L475.317 0" style="opacity:.146;fill:none;stroke:#fff;stroke-miterlimit:10;stroke-width:.25px"/>
    <path d="m-29.636 308.88 52.811-54.583 23.072.568 43.246-18.252 28.022 1.524 7.318 1.265 19.728 18.139 5.099.628 58.957-41.01 63.537-23.604 5.982.234 24.266-26.553 31.241 1.101 31.659-10.972 26.949-25.435 11.495-2.392 20.122-41.62 10.42-5.941 10.385-3.151 13.061-26.522L475.512 0" style="opacity:.14;fill:none;stroke:#fff;stroke-miterlimit:10;stroke-width:.25px"/>
    <path d="m-28.347 311.103 53.04-54.598 23.103 1.036 43.285-18.442 28.033 2.146 7.289 1.488 19.754 18.203 5.083.799 58.689-41.679 63.108-25.069 5.995.235 25.559-25.306 31.315 1.11 31.488-11.644 27.009-25.502 11.442-2.713 19.071-42.087 9.896-6.605 10.232-3.548 13.13-26.509L475.707 0" style="opacity:.134;fill:none;stroke:#fff;stroke-miterlimit:10;stroke-width:.25px"/>
    <path d="m-27.059 313.326 53.271-54.612 23.133 1.503 43.323-18.633 28.046 2.769 7.258 1.71 19.782 18.268 5.066.969 58.421-42.346 62.679-26.535 6.009.235 26.851-24.059 31.389 1.119 31.316-12.314 27.069-25.569 11.389-3.035 18.022-42.553 9.372-7.27 10.078-3.944 13.199-26.496L475.902 0" style="opacity:.128;fill:none;stroke:#fff;stroke-miterlimit:10;stroke-width:.25px"/>
    <path d="m-25.77 315.548 53.5-54.625 23.163 1.97 43.363-18.824 28.058 3.393 7.228 1.932 19.808 18.332 5.05 1.14 58.153-43.014 62.249-28.001 6.023.236 28.144-22.812 31.464 1.127 31.144-12.984 27.128-25.637 11.336-3.357 16.972-43.019 8.848-7.935 9.925-4.34 13.268-26.482L476.098 0" style="opacity:.122;fill:none;stroke:#fff;stroke-miterlimit:10;stroke-width:.25px"/>
    <path d="m-24.482 317.771 53.731-54.64 23.193 2.438 43.402-19.014 28.07 4.015 7.197 2.154 19.836 18.397 5.033 1.311 57.885-43.683 61.82-29.466 6.036.237 29.437-21.565 31.538 1.136 30.972-13.656 27.189-25.704 11.282-3.678 15.922-43.486 8.324-8.599 9.771-4.736 13.338-26.469L476.293 0" style="opacity:.116;fill:none;stroke:#fff;stroke-miterlimit:10;stroke-width:.25px"/>
    <path d="m-23.193 319.993 53.96-54.653 23.224 2.905 43.441-19.205 28.082 4.638 7.166 2.377 19.863 18.461 5.018 1.482 57.616-44.351 61.391-30.932 6.05.238 30.729-20.318 31.613 1.144 30.8-14.326 27.248-25.771 11.229-4 14.872-43.953 7.8-9.263 9.618-5.133 13.407-26.456L476.488 0" style="opacity:.11;fill:none;stroke:#fff;stroke-miterlimit:10;stroke-width:.25px"/>
    <path d="m-21.905 322.216 54.191-54.668 23.254 3.373 43.48-19.396 28.094 5.261 7.136 2.599 19.889 18.526 5.002 1.653 57.348-45.019 60.962-32.398 6.063.238 32.023-19.071 31.686 1.153 30.629-14.996 27.307-25.839 11.177-4.321 13.821-44.42 7.277-9.927 9.464-5.529 13.476-26.443L476.683 0" style="opacity:.104;fill:none;stroke:#fff;stroke-miterlimit:10;stroke-width:.25px"/>
    <path d="m-20.616 324.438 54.42-54.681 23.284 3.84 43.52-19.586 28.106 5.883 7.105 2.822 19.917 18.59 4.985 1.824 57.08-45.687 60.532-33.864 6.078.239 33.315-17.824 31.76 1.162 30.457-15.668 27.368-25.905 11.123-4.643 12.772-44.887 6.752-10.591 9.311-5.926 13.544-26.429L476.878 0" style="opacity:.098;fill:none;stroke:#fff;stroke-miterlimit:10;stroke-width:.25px"/>
    <path d="m-19.328 326.661 54.65-54.695 23.315 4.307 43.559-19.777 28.117 6.506 7.076 3.045 19.943 18.654 4.969 1.995 56.812-46.356 60.103-35.328 6.091.239 34.608-16.577 31.835 1.17 30.285-16.338 27.427-25.973 11.07-4.964 11.722-45.354 6.228-11.255 9.157-6.323 13.614-26.416L477.073 0" style="opacity:.091;fill:none;stroke:#fff;stroke-miterlimit:10;stroke-width:.25px"/>
    <path d="m-18.039 328.884 54.88-54.71 23.345 4.775 43.597-19.968 28.13 7.129 7.045 3.267 19.971 18.719 4.953 2.166 56.543-47.024 59.674-36.794 6.105.239 35.9-15.329 31.909 1.179 30.113-17.009 27.487-26.041 11.017-5.286 10.672-45.82 5.704-11.92 9.004-6.718 13.683-26.403L477.268 0" style="opacity:.085;fill:none;stroke:#fff;stroke-miterlimit:10;stroke-width:.25px"/>
    <path d="m-16.751 331.106 55.11-54.723 23.376 5.242 43.636-20.158 28.142 7.751 7.015 3.49 19.997 18.783 4.937 2.337 56.275-47.692 59.245-38.26 6.118.24 37.193-14.082 31.983 1.187 29.942-17.68 27.546-26.107 10.964-5.608 9.622-46.286 5.18-12.585 8.851-7.115 13.752-26.389L477.463 0" style="opacity:.079;fill:none;stroke:#fff;stroke-miterlimit:10;stroke-width:.25px"/>
    <path d="m-15.462 333.329 55.34-54.737 23.406 5.709 43.675-20.349 28.154 8.374 6.984 3.712 20.024 18.848 4.921 2.507 56.007-48.36 58.815-39.725 6.132.241 38.486-12.836 32.058 1.196 29.77-18.35 27.606-26.175 10.91-5.929 8.573-46.753 4.656-13.249 8.697-7.511 13.821-26.376L477.659 0" style="opacity:.073;fill:none;stroke:#fff;stroke-miterlimit:10;stroke-width:.25px"/>
    <path d="m-14.174 335.551 55.57-54.751 23.436 6.177 43.715-20.54 28.166 8.997 6.953 3.935 20.052 18.912 4.904 2.678 55.739-49.028 58.386-41.191 6.146.242 39.778-11.589 32.132 1.205 29.598-19.021 27.666-26.242 10.858-6.251 7.522-47.22 4.132-13.913 8.543-7.908 13.891-26.363L477.854 0" style="opacity:.067;fill:none;stroke:#fff;stroke-miterlimit:10;stroke-width:.25px"/>
    <path d="m-12.885 337.774 55.8-54.765 23.466 6.644 43.754-20.73 28.178 9.619 6.923 4.157 20.078 18.977 4.889 2.849 55.47-49.696 57.957-42.657 6.159.242 41.071-10.341 32.206 1.213 29.427-19.691 27.725-26.31 10.805-6.572 6.472-47.687 3.608-14.577 8.39-8.304 13.96-26.35L478.049 0" style="opacity:.061;fill:none;stroke:#fff;stroke-miterlimit:10;stroke-width:.25px"/>
    <path d="m-11.597 339.997 56.03-54.78 23.497 7.113 43.793-20.922 28.19 10.242 6.892 4.38 20.105 19.041 4.873 3.02 55.202-50.365 57.528-44.122 6.173.243 42.363-9.094 32.281 1.221 29.254-20.362 27.786-26.377 10.751-6.893 5.422-48.154 3.084-15.241 8.237-8.701 14.029-26.336L478.244 0" style="opacity:.055;fill:none;stroke:#fff;stroke-miterlimit:10;stroke-width:.25px"/>
    <path d="m-10.308 342.219 56.259-54.793 23.528 7.58 43.832-21.113 28.201 10.865 6.863 4.602 20.132 19.106 4.856 3.191 54.934-51.033 57.098-45.588 6.187.244 43.656-7.848 32.355 1.231 29.083-21.033 27.845-26.444 10.698-7.215 4.373-48.621 2.559-15.906 8.084-9.096 14.097-26.324L478.439 0" style="opacity:.049;fill:none;stroke:#fff;stroke-miterlimit:10;stroke-width:.25px"/>
    <path d="m-9.02 344.442 56.49-54.807 23.557 8.047 43.872-21.304 28.213 11.488 6.832 4.825 20.159 19.17 4.84 3.362 54.667-51.701 56.668-47.054 6.201.244 44.948-6.6 32.429 1.239 28.912-21.703 27.904-26.512 10.645-7.537 3.323-49.087 2.036-16.57 7.929-9.493 14.167-26.31L478.634 0" style="opacity:.043;fill:none;stroke:#fff;stroke-miterlimit:10;stroke-width:.25px"/>
    <path d="m-7.731 346.664 56.719-54.821 23.588 8.515 43.91-21.494 28.226 12.11 6.801 5.047 20.187 19.235 4.824 3.533 54.398-52.369 56.239-48.519 6.214.244 46.241-5.353 32.504 1.248 28.739-22.375 27.964-26.579 10.593-7.858 2.272-49.554L443.2 90.44l7.776-9.89 14.236-26.296L478.829 0" style="opacity:.037;fill:none;stroke:#fff;stroke-miterlimit:10;stroke-width:.25px"/>
    <path d="m-6.443 348.887 56.95-54.835 23.618 8.982 43.949-21.685 28.238 12.733 6.771 5.27 20.213 19.299 4.808 3.704 54.13-53.038 55.81-49.984 6.227.245 47.534-4.106 32.578 1.256 28.568-23.045 28.024-26.646 10.539-8.18 1.222-50.02.988-17.899 7.623-10.286 14.305-26.284L479.024 0" style="opacity:.03;fill:none;stroke:#fff;stroke-miterlimit:10;stroke-width:.25px"/>
    <path d="m-5.154 351.11 57.179-54.85 23.649 9.45 43.988-21.876 28.25 13.356 6.74 5.493 20.24 19.363 4.792 3.875 53.862-53.706 55.38-51.45 6.242.246 48.826-2.859 32.652 1.264 28.396-23.715 28.084-26.714 10.486-8.501.172-50.487.464-18.563 7.47-10.683 14.374-26.27L479.22 0" style="opacity:.024;fill:none;stroke:#fff;stroke-miterlimit:10;stroke-width:.25px"/>
    <path d="m-3.866 353.332 57.409-54.863 23.68 9.917 44.027-22.066 28.262 13.978 6.71 5.715 20.267 19.428 4.775 4.045 53.594-54.373 54.951-52.916 6.255.246 50.119-1.612 32.727 1.274 28.224-24.387 28.143-26.78 10.433-8.823-.877-50.954-.061-19.227 7.316-11.079 14.444-26.257L479.415 0" style="opacity:.018;fill:none;stroke:#fff;stroke-miterlimit:10;stroke-width:.25px"/>
    <path d="m-2.577 355.555 57.639-54.877 23.709 10.384 44.067-22.257 28.274 14.601 6.679 5.938 20.294 19.492 4.759 4.216 53.326-55.042 54.522-54.381 6.269.247 51.411-.365 32.801 1.282 28.053-25.057 28.203-26.848 10.379-9.144-1.927-51.421-.584-19.892 7.162-11.475 14.513-26.243L479.61 0" style="opacity:.012;fill:none;stroke:#fff;stroke-miterlimit:10;stroke-width:.25px"/>
    <path d="m-1.289 357.777 57.869-54.891 23.74 10.852 44.106-22.448 28.286 15.224 6.649 6.16 20.32 19.557 4.744 4.387 53.057-55.71 54.093-55.847 6.282.248 52.704.882 32.875 1.29 27.881-25.727 28.263-26.916 10.326-9.465-2.977-51.888-1.108-20.556 7.009-11.871 14.582-26.231L479.805 0" style="opacity:.006;fill:none;stroke:#fff;stroke-miterlimit:10;stroke-width:.25px"/>
  </g>
</svg>
