<?xml version="1.0" encoding="utf-8"?>
<!-- Generator: Adobe Illustrator 26.5.0, SVG Export Plug-In . SVG Version: 6.00 Build 0)  -->
<svg version="1.1" id="Layer_1" xmlns="http://www.w3.org/2000/svg" xmlns:xlink="http://www.w3.org/1999/xlink" x="0px" y="0px"
	 viewBox="0 0 177.7 177.7" style="enable-background:new 0 0 177.7 177.7;" xml:space="preserve">
<style type="text/css">
	.st0{fill:#010101;}
</style>
<g id="XMLID_80_">
	<path id="XMLID_81_" class="st0" d="M177.3,113.1L113,177.3c-0.2,0.2-0.5,0.2-1.1,0.2L24.1,154c-0.2,0-0.5-0.2-0.7-0.7L0,65.7
		c0-0.2,0-0.7,0.2-1.1L64.5,0.5c0.2-0.2,0.5-0.2,1.1-0.2l87.8,23.6c0.2,0,0.5,0.2,0.7,0.7l23.4,87.6
		C177.9,112.5,177.7,112.9,177.3,113.1z M91.3,43.4L5.2,66.6c-0.2,0-0.2,0.2,0,0.5l63.1,63.1c0.2,0.2,0.2,0,0.5,0l23.2-86
		C91.7,43.4,91.3,43.4,91.3,43.4z"/>
</g>
</svg>
