<?xml version="1.0" encoding="utf-8"?>
<!-- Generator: Adobe Illustrator 21.0.2, SVG Export Plug-In . SVG Version: 6.00 Build 0)  -->
<svg version="1.1" id="Layer_1" xmlns="http://www.w3.org/2000/svg" xmlns:xlink="http://www.w3.org/1999/xlink" x="0px" y="0px"
	 viewBox="0 0 24 24" style="enable-background:new 0 0 24 24;" xml:space="preserve">
<style type="text/css">
	.st0{fill:#777777;}
</style>
<path class="st0" d="M23,21.7c0,0.7-0.6,1.3-1.4,1.3H15v-7.3h3.4l0.5-3.7H15V9.8c0-1,0.3-1.8,1.9-1.8H19V4.8c-1-0.1-1.9-0.1-2.9-0.1
	c-2.9,0-5.1,1.7-5.1,4.8V12H8v3.7h3V23H2.4C1.6,23,1,22.4,1,21.7c0,0,0,0,0,0l0,0V2.3C1,1.6,1.6,1,2.4,1h19.2C22.4,1,23,1.6,23,2.3
	c0,0,0,0,0,0l0,0V21.7L23,21.7z"/>
</svg>
