<svg xmlns="http://www.w3.org/2000/svg" width="24" height="24" viewBox="0 0 24 24">
  <metadata><?xpacket begin="﻿" id="W5M0MpCehiHzreSzNTczkc9d"?>
<x:xmpmeta xmlns:x="adobe:ns:meta/" x:xmptk="Adobe XMP Core 5.6-c138 79.159824, 2016/09/14-01:09:01        ">
   <rdf:RDF xmlns:rdf="http://www.w3.org/1999/02/22-rdf-syntax-ns#">
      <rdf:Description rdf:about=""/>
   </rdf:RDF>
</x:xmpmeta>
                                                                                                    
                                                                                                    
                                                                                                    
                                                                                                    
                                                                                                    
                                                                                                    
                                                                                                    
                                                                                                    
                                                                                                    
                                                                                                    
                                                                                                    
                                                                                                    
                                                                                                    
                                                                                                    
                                                                                                    
                                                                                                    
                                                                                                    
                                                                                                    
                                                                                                    
                                                                                                    
                           
<?xpacket end="w"?></metadata>
<defs>
    <style>
      .cls-1 {
        fill-rule: evenodd;
      }
    </style>
  </defs>
  <path class="cls-1" d="M331,1045.03a11.755,11.755,0,0,0-3.79,22.96,0.608,0.608,0,0,0,.759-0.38,0.6,0.6,0,0,0,.031-0.18v-2c-3.34.71-4-1.58-4-1.58a3.144,3.144,0,0,0-1.33-1.72c-1.09-.73.08-0.72,0.08-0.72a2.509,2.509,0,0,1,1.84,1.22,2.589,2.589,0,0,0,3.41.97,2.485,2.485,0,0,1,.81-1.6c-2.67-.3-5.47-1.31-5.47-5.82a4.481,4.481,0,0,1,1.24-3.16,4.182,4.182,0,0,1,.12-3.1s1-.32,3.3,1.21a11.52,11.52,0,0,1,6,0c2.29-1.53,3.3-1.21,3.3-1.21a4.182,4.182,0,0,1,.12,3.1,4.489,4.489,0,0,1,1.23,3.16c0,4.52-2.81,5.52-5.48,5.82a2.775,2.775,0,0,1,.83,2.19v3.24a0.6,0.6,0,0,0,.584.61,0.683,0.683,0,0,0,.246-0.04,11.768,11.768,0,0,0-3.819-22.97H331Z" transform="translate(-319 -1044.53)"/>
</svg>
