<?xml version="1.0" encoding="utf-8"?>
<!-- Generator: Adobe Illustrator 21.0.2, SVG Export Plug-In . SVG Version: 6.00 Build 0)  -->
<svg version="1.1" id="Layer_1" xmlns="http://www.w3.org/2000/svg" xmlns:xlink="http://www.w3.org/1999/xlink" x="0px" y="0px"
	 viewBox="0 0 28 24" style="enable-background:new 0 0 28 24;" xml:space="preserve">
<style type="text/css">
	.st0{fill:#231F20;}
</style>
<title>google-plus</title>
<g id="Layer_2">
	<g id="Layer_1-2">
		<path class="st0" d="M9.6,10.8v3.4h4.6c-0.7,2.2-1.9,3.4-4.6,3.4c-2.8,0-5-2.3-5-5s2.3-5,5-5c1.2,0,2.4,0.4,3.3,1.2
			c0.7-0.7,0.6-0.8,2.4-2.5c-3.5-3.2-9-2.9-12.1,0.6C1.8,8.4,1.1,10.4,1,12.5C1,17.2,4.9,21,9.6,21c0,0,0,0,0,0
			c7.1,0,8.8-6.1,8.2-10.1L9.6,10.8z M24,11V8h-2v3h-3v2h3v3h2v-3h3v-2H24z"/>
	</g>
</g>
</svg>
