<?xml version="1.0" encoding="utf-8"?>
<!-- Generator: Adobe Illustrator 21.0.2, SVG Export Plug-In . SVG Version: 6.00 Build 0)  -->
<svg version="1.1" id="Layer_1" xmlns="http://www.w3.org/2000/svg" xmlns:xlink="http://www.w3.org/1999/xlink" x="0px" y="0px"
	 viewBox="0 0 120 120" style="enable-background:new 0 0 120 120;" xml:space="preserve">
<style type="text/css">
	.st0{fill:#777777;}
	.st1{fill:#231F20;}
</style>
<title>icons</title>
<path d="M20,16.1v4H4v-4H2V22h20v-5.9L20,16.1z M18,16.1l0.5-1.8l0.9-1.6l1.4-1.4l-8.5-8.5l-1.4,1.4l8.1,8.1L9,6.6L8,8.3l9.9,5.6
	L6.9,11L6.4,13l11,3H6v2h12V16.1z"/>
<path d="M44.8,7.5V8c0.1,7.1-5.5,12.9-12.6,13c0,0,0,0-0.1,0h-0.2c-2.5,0-4.9-0.7-6.9-2c0.4,0,0.7,0,1.1,0
	c2,0,4-0.7,5.6-2c-1.9,0-3.6-1.3-4.2-3.2c0.3,0.1,0.6,0.1,0.9,0.1c0.4,0,0.8-0.1,1.2-0.2c-2.1-0.4-3.6-2.3-3.6-4.5l0,0
	c0.6,0.3,1.3,0.5,2,0.6c-2-1.3-2.6-4-1.4-6.1c2.3,2.8,5.7,4.6,9.3,4.8c-0.1-0.3-0.1-0.7-0.1-1c0-2.5,2-4.5,4.5-4.5
	c1.3,0,2.5,0.5,3.3,1.4c1-0.2,2-0.6,2.9-1.1c-0.3,1.1-1,2-2,2.5c0.9-0.1,1.8-0.4,2.6-0.7C46.4,6,45.6,6.8,44.8,7.5z"/>
<path d="M69,14v2h-5.4L63,21h-2l0.6-5h-4L57,21h-2l0.6-5H51v-2h4.8l0.4-4H51V8h5.4L57,3h2l-0.6,5h4L63,3h2l-0.6,5H69v2
	h-4.8l-0.4,4H69z M58.2,10l-0.4,4h4l0.4-4H58.2z"/>
<path d="M95,11.5c0-1.4-1.1-2.5-2.5-2.5c-1,0-1.9,0.6-2.3,1.4c-1.6-0.8-3.4-1.3-5.3-1.4V5h3.3c0.6,1,1.8,1.3,2.7,0.7
	C92,5.2,92.3,4,91.7,3S90,1.7,89,2.3c-0.3,0.2-0.6,0.4-0.7,0.7H85c-1.1,0-2,0.9-2,2v4c-1.8,0.1-3.6,0.6-5.3,1.4
	c-0.6-1.3-2.1-1.8-3.3-1.2c-1.3,0.6-1.8,2.1-1.2,3.3c0.2,0.5,0.7,0.9,1.2,1.2c-0.3,0.6-0.4,1.2-0.4,1.8c0,3.6,4.5,6.5,10,6.5
	s10-2.9,10-6.5c0-0.6-0.1-1.2-0.4-1.8C94.5,13.3,95,12.4,95,11.5z M80,16c-1.1,0-2-0.9-2-2s0.9-2,2-2s2,0.9,2,2S81.1,16,80,16z
	 M88,16c-1.1,0-2-0.9-2-2s0.9-2,2-2s2,0.9,2,2S89.1,16,88,16z"/>
<path d="M84,25c-6.1,0-11,4.9-11,11s4.9,11,11,11s11-4.9,11-11S90.1,25,84,25z M88,32h-6v3h4v2h-4v5h-2V30h8V32z"/>
<path d="M69.8,34H60v4h5.7c-1.1,3.1-4.5,4.8-7.7,3.7s-4.8-4.5-3.7-7.7c0.8-2.4,3.1-4,5.6-4c1.6,0,3.1,0.6,4.2,1.8L67,29
	c-1.8-2-4.3-3-7-3c-5.5,0-10,4.5-10,10s4.5,10,10,10s10-4.5,10-10C70,35.3,69.9,34.7,69.8,34z"/>
<path d="M43,37.1h-2v-9h2V37.1z M39,45.1h-2v-17h2V45.1z M35,45.1h-2v-17h2V45.1z M31,37.1h-2v-12h2V37.1z"/>
<g id="Layer_2">
	<g id="Layer_1-2">
		<path class="st1" d="M33.6,58.8v3.4h4.6c-0.7,2.2-1.9,3.4-4.6,3.4c-2.8,0-5-2.2-5-5c0-2.7,2.3-5,5-5c1.2,0,2.4,0.4,3.3,1.2
			c0.7-0.7,0.6-0.8,2.4-2.5c-3.5-3.2-8.9-2.9-12.1,0.6c0,0,0,0,0,0c-1.4,1.5-2.2,3.5-2.2,5.6c0,4.7,3.9,8.5,8.6,8.5l0,0
			c7.1,0,8.8-6.1,8.2-10.1L33.6,58.8z M48,59v-3h-2v3h-3v2h3v3h2v-3h3v-2H48z"/>
	</g>
</g>
<path d="M12,24.5C5.5,24.3,0.1,29.4-0.1,35.9c-0.2,5.3,3.2,10,8.3,11.6c0.3,0.1,0.7-0.1,0.8-0.4c0,0,0,0,0,0C9,47,9,47,9,46.9v-2
	c-3.3,0.7-4-1.6-4-1.6c-0.2-0.7-0.7-1.3-1.3-1.7c-1.1-0.7,0.1-0.7,0.1-0.7c0.8,0.1,1.4,0.6,1.8,1.2c0.7,1.2,2.2,1.6,3.4,1
	c0.1-0.6,0.3-1.2,0.8-1.6c-2.7-0.3-5.5-1.3-5.5-5.8c0-1.2,0.4-2.3,1.2-3.2c-0.4-1-0.3-2.1,0.1-3.1c0,0,1-0.3,3.3,1.2
	c2-0.5,4-0.5,6,0c2.3-1.5,3.3-1.2,3.3-1.2c0.4,1,0.5,2.1,0.1,3.1c0.8,0.9,1.2,2,1.2,3.2c0,4.5-2.8,5.5-5.5,5.8
	c0.6,0.6,0.9,1.4,0.8,2.2v3.2c0,0.3,0.3,0.6,0.6,0.6c0.1,0,0.2,0,0.3,0c6.2-1.9,9.7-8.5,7.8-14.7C22,27.7,17.3,24.3,12,24.5L12,24.5
	z"/>
<path d="M23,69.7c0,0.7-0.7,1.3-1.4,1.3c0,0,0,0,0,0H15v-7.2h3.4l0.5-3.7H15v-2.2c0-1,0.3-1.8,1.9-1.8H19v-3.2
	c-1-0.1-1.9-0.1-2.9-0.1c-2.9,0-5.1,1.7-5.1,4.8v2.5H8v3.7h3V71H2.4C1.7,71,1,70.4,1,69.7c0,0,0,0,0,0l0,0V50.4
	c0-0.7,0.7-1.3,1.4-1.3c0,0,0,0,0,0h19.2c0.7,0,1.4,0.6,1.4,1.3c0,0,0,0,0,0l0,0V69.7z"/>
<path d="M95,59.2h-0.1l-6.4-6.4l-1.4,1.4l5,4.9H75.8l5-4.9l-1.4-1.4L73,59.2v5c0,1.6,1.3,3,3,3h4c1.6,0,3-1.3,3-3v-3h2v3
	c0,1.6,1.3,3,3,3h4c1.6,0,3-1.3,3-3C95,61.9,95,59.2,95,59.2z"/>
</svg>
