<?xml version="1.0" encoding="utf-8"?>
<!-- Generator: Adobe Illustrator 21.0.2, SVG Export Plug-In . SVG Version: 6.00 Build 0)  -->
<svg version="1.1" id="Layer_1" xmlns="http://www.w3.org/2000/svg" xmlns:xlink="http://www.w3.org/1999/xlink" x="0px" y="0px"
	 viewBox="0 0 120 120" style="enable-background:new 0 0 120 120;" xml:space="preserve">
<style type="text/css">
	.st0{fill:#777777;}
	.st1{fill:#231F20;}
</style>
<title>icons</title>
<path d="M20,16.1v4H4v-4H2V22h20v-5.9L20,16.1z M18,16.1l0.5-1.8l0.9-1.6l1.4-1.4l-8.5-8.5l-1.4,1.4l8.1,8.1L9,6.6L8,8.3l9.9,5.6
	L6.9,11L6.4,13l11,3H6v2h12V16.1z"/>
<path d="M44.8,7.5V8c0.1,7.1-5.5,12.9-12.6,13c0,0,0,0-0.1,0h-0.2c-2.5,0-4.9-0.7-6.9-2c0.4,0,0.7,0,1.1,0
	c2,0,4-0.7,5.6-2c-1.9,0-3.6-1.3-4.2-3.2c0.3,0.1,0.6,0.1,0.9,0.1c0.4,0,0.8-0.1,1.2-0.2c-2.1-0.4-3.6-2.3-3.6-4.5l0,0
	c0.6,0.3,1.3,0.5,2,0.6c-2-1.3-2.6-4-1.4-6.1c2.3,2.8,5.7,4.6,9.3,4.8c-0.1-0.3-0.1-0.7-0.1-1c0-2.5,2-4.5,4.5-4.5
	c1.3,0,2.5,0.5,3.3,1.4c1-0.2,2-0.6,2.9-1.1c-0.3,1.1-1,2-2,2.5c0.9-0.1,1.8-0.4,2.6-0.7C46.4,6,45.6,6.8,44.8,7.5z"/>
<path d="M69,14v2h-5.4L63,21h-2l0.6-5h-4L57,21h-2l0.6-5H51v-2h4.8l0.4-4H51V8h5.4L57,3h2l-0.6,5h4L63,3h2l-0.6,5H69v2
	h-4.8l-0.4,4H69z M58.2,10l-0.4,4h4l0.4-4H58.2z"/>
<path d="M95,11.5c0-1.4-1.1-2.5-2.5-2.5c-1,0-1.9,0.6-2.3,1.4c-1.6-0.8-3.4-1.3-5.3-1.4V5h3.3c0.6,1,1.8,1.3,2.7,0.7
	C92,5.2,92.3,4,91.7,3S90,1.7,89,2.3c-0.3,0.2-0.6,0.4-0.7,0.7H85c-1.1,0-2,0.9-2,2v4c-1.8,0.1-3.6,0.6-5.3,1.4
	c-0.6-1.3-2.1-1.8-3.3-1.2c-1.3,0.6-1.8,2.1-1.2,3.3c0.2,0.5,0.7,0.9,1.2,1.2c-0.3,0.6-0.4,1.2-0.4,1.8c0,3.6,4.5,6.5,10,6.5
	s10-2.9,10-6.5c0-0.6-0.1-1.2-0.4-1.8C94.5,13.3,95,12.4,95,11.5z M80,16c-1.1,0-2-0.9-2-2s0.9-2,2-2s2,0.9,2,2S81.1,16,80,16z
	 M88,16c-1.1,0-2-0.9-2-2s0.9-2,2-2s2,0.9,2,2S89.1,16,88,16z"/>
<path d="M84,25c-6.1,0-11,4.9-11,11s4.9,11,11,11s11-4.9,11-11S90.1,25,84,25z M88,32h-6v3h4v2h-4v5h-2V30h8V32z"/>
<path d="M69.8,34H60v4h5.7c-1.1,3.1-4.5,4.8-7.7,3.7s-4.8-4.5-3.7-7.7c0.8-2.4,3.1-4,5.6-4c1.6,0,3.1,0.6,4.2,1.8L67,29
	c-1.8-2-4.3-3-7-3c-5.5,0-10,4.5-10,10s4.5,10,10,10s10-4.5,10-10C70,35.3,69.9,34.7,69.8,34z"/>
<path d="M43,37.1h-2v-9h2V37.1z M39,45.1h-2v-17h2V45.1z M35,45.1h-2v-17h2V45.1z M31,37.1h-2v-12h2V37.1z"/>
<g id="Layer_2">
	<g id="Layer_1-2">
		<path class="st1" d="M33.6,58.8v3.4h4.6c-0.7,2.2-1.9,3.4-4.6,3.4c-2.8,0-5-2.2-5-5c0-2.7,2.3-5,5-5c1.2,0,2.4,0.4,3.3,1.2
			c0.7-0.7,0.6-0.8,2.4-2.5c-3.5-3.2-8.9-2.9-12.1,0.6c0,0,0,0,0,0c-1.4,1.5-2.2,3.5-2.2,5.6c0,4.7,3.9,8.5,8.6,8.5l0,0
			c7.1,0,8.8-6.1,8.2-10.1L33.6,58.8z M48,59v-3h-2v3h-3v2h3v3h2v-3h3v-2H48z"/>
	</g>
</g>
<path d="M12,24.5C5.5,24.3,0.1,29.4-0.1,35.9c-0.2,5.3,3.2,10,8.3,11.6c0.3,0.1,0.7-0.1,0.8-0.4c0,0,0,0,0,0C9,47,9,47,9,46.9v-2
	c-3.3,0.7-4-1.6-4-1.6c-0.2-0.7-0.7-1.3-1.3-1.7c-1.1-0.7,0.1-0.7,0.1-0.7c0.8,0.1,1.4,0.6,1.8,1.2c0.7,1.2,2.2,1.6,3.4,1
	c0.1-0.6,0.3-1.2,0.8-1.6c-2.7-0.3-5.5-1.3-5.5-5.8c0-1.2,0.4-2.3,1.2-3.2c-0.4-1-0.3-2.1,0.1-3.1c0,0,1-0.3,3.3,1.2
	c2-0.5,4-0.5,6,0c2.3-1.5,3.3-1.2,3.3-1.2c0.4,1,0.5,2.1,0.1,3.1c0.8,0.9,1.2,2,1.2,3.2c0,4.5-2.8,5.5-5.5,5.8
	c0.6,0.6,0.9,1.4,0.8,2.2v3.2c0,0.3,0.3,0.6,0.6,0.6c0.1,0,0.2,0,0.3,0c6.2-1.9,9.7-8.5,7.8-14.7C22,27.7,17.3,24.3,12,24.5L12,24.5
	z"/>
<path d="M23,69.7c0,0.7-0.7,1.3-1.4,1.3c0,0,0,0,0,0H15v-7.2h3.4l0.5-3.7H15v-2.2c0-1,0.3-1.8,1.9-1.8H19v-3.2
	c-1-0.1-1.9-0.1-2.9-0.1c-2.9,0-5.1,1.7-5.1,4.8v2.5H8v3.7h3V71H2.4C1.7,71,1,70.4,1,69.7c0,0,0,0,0,0l0,0V50.4
	c0-0.7,0.7-1.3,1.4-1.3c0,0,0,0,0,0h19.2c0.7,0,1.4,0.6,1.4,1.3c0,0,0,0,0,0l0,0V69.7z"/>
<path d="M95,59.2h-0.1l-6.4-6.4l-1.4,1.4l5,4.9H75.8l5-4.9l-1.4-1.4L73,59.2v5c0,1.6,1.3,3,3,3h4c1.6,0,3-1.3,3-3v-3h2v3
	c0,1.6,1.3,3,3,3h4c1.6,0,3-1.3,3-3C95,61.9,95,59.2,95,59.2z"/>
<path
   d="m 9.9184993,81.648499 c -0.6555,0 -1.1729999,0.575 -1.1729999,1.2765 0,0.7015 0.5289999,1.2765 1.1729999,1.2765
	 0.6554997,0 1.1729997,-0.575 1.1729997,-1.2765 0.01155,-0.7015 -0.5175,-1.2765 -1.1729997,-1.2765 z m 4.1974997,0
	 c -0.6555,0 -1.173,0.575 -1.173,1.2765 0,0.7015 0.529,1.2765 1.173,1.2765 0.6555,0 1.173,-0.575 1.173,-1.2765 0,-0.7015
	 -0.5175,-1.2765 -1.173,-1.2765 z"/>
<path
   d="M 19.704998,72 H 4.2949998 C 2.9954999,72 1.9375,73.058 1.9375,74.369 v 15.548002 c 0,1.311 1.0579999,2.369
	 2.3574998,2.369 H 17.335999 l -0.6095,-2.1275 1.472,1.3685 1.391499,1.288 2.4725,2.185 V 74.369 c 0,-1.311 -1.058,-2.369
	 -2.3575,-2.369 z m -4.438999,15.019002 c 0,0 -0.414,-0.4945 -0.759,-0.9315 1.5065,-0.4255 2.0815,-1.3685 2.0815,-1.3685
	 -0.4715,0.3105 -0.92,0.529 -1.3225,0.6785 -0.575,0.2415 -1.127,0.4025 -1.6675,0.4945 -1.104,0.207 -2.116,0.1495 -2.9785,
	 -0.0114 -0.6554997,-0.1265 -1.2189997,-0.3105 -1.6904996,-0.4945 -0.2645,-0.10355 -0.552,-0.23 -0.8395,-0.391 -0.034553,
	 -0.023 -0.069,-0.0344 -0.1034474,-0.0575 -0.023,-0.0115 -0.034552,-0.023 -0.046,-0.0345 -0.207,-0.115 -0.322,-0.1955 -0.322,
	 -0.1955 0,0 0.5519999,0.92 2.0124998,1.357 -0.345,0.437 -0.7704999,0.9545 -0.7704999,0.9545 -2.5414998,-0.0806 -3.5074997,
	 -1.748 -3.5074997,-1.748 0,-3.702998 1.6559998,-6.704498 1.6559998,-6.704498 1.6559999,-1.242 3.2315,-1.2075 3.2315,-1.2075 l
	 0.115,0.138 c -2.0700001,0.598 -3.0245,1.5065 -3.0245,1.5065 0,0 0.253,-0.138 0.6785,-0.3335 1.2304998,-0.5405 2.208,-0.69
	 2.6105,-0.7245 0.069,-0.0115 0.1265,-0.023 0.1955,-0.023 0.7015,-0.092 1.495,-0.115 2.322999,-0.023 1.0925,0.1265 2.2655,
	 0.4485 3.4615,1.104 0,0 -0.9085,-0.8625 -2.8635,-1.4605 l 0.161,-0.184 c 0,0 1.5755,-0.0345 3.2315,1.2075 0,0 1.656,3.0015
	 1.656,6.704498 0,0 -0.9775,1.6675 -3.519,1.748 z"/>
<path
   id="telegram"
   d="m 42.240699,92.647685 c 0.322,0.228 0.737,0.285 1.107,0.145 0.37,-0.141 0.642,-0.457 0.724,-0.84 0.869,-4.084 2.977,-14.421 3.768,-18.136 0.06,-0.28 -0.04,-0.571 -0.26,-0.758 -0.22,-0.187 -0.525,-0.241 -0.797,-0.14 -4.193,1.552 -17.106,6.397 -22.384001,8.35 -0.335,0.124 -0.553,0.446 -0.542,0.799 0.012,0.354 0.25,0.661 0.593,0.764 2.367001,0.708 5.474001,1.693 5.474001,1.693 0,0 1.452,4.385 2.209,6.615 0.095,0.28 0.314,0.5 0.603,0.576 0.288,0.075 0.596,-0.004 0.811,-0.207 1.216,-1.148 3.096,-2.923 3.096,-2.923 0,0 3.572,2.619 5.598,4.062 z m -11.01,-8.677 1.679,5.538 0.373,-3.507 c 0,0 6.487,-5.851 10.185,-9.186 0.108,-0.098 0.123,-0.262 0.033,-0.377 -0.089,-0.115 -0.253,-0.142 -0.376,-0.064 -4.286,2.737 -11.894,7.596 -11.894,7.596 z"
   style="clip-rule:evenodd;fill-rule:evenodd;stroke-linejoin:round;stroke-miterlimit:1.41421" />
<path
   d="m 57.97757,73.37255 v 0 c -0.02,0 -0.04,0.01 -0.06,0.01 -0.03,0.01 -0.05,0.01 -0.07,0.02 -0.02,0 -0.04,0 -0.06,0.01 -0.02,0 -0.04,0.01 -0.06,0.01 -0.02,0.01 -0.04,0.01 -0.06,0.02 -0.02,0 -0.04,0.01 -0.06,0.01 -0.02,0 -0.04,0.01 -0.06,0.01 -0.02,0.01 -0.04,0.01 -0.06,0.02 -0.02,0 -0.04,0.01 -0.06,0.01 -0.02,0.01 -0.04,0.01 -0.06,0.02 -0.02,0 -0.04,0.01 -0.06,0.01 -0.02,0.01 -0.04,0.01 -0.06,0.02 -0.02,0 -0.04,0.01 -0.06,0.01 -0.02,0.01 -0.04,0.02 -0.06,0.02 -0.02,0.01 -0.04,0.01 -0.06,0.02 -0.02,0 -0.04,0.01 -0.06,0.02 -0.02,0 -0.04,0.01 -0.06,0.01 -0.02,0.01 -0.04,0.01 -0.06,0.02 -0.02,0.01 -0.04,0.01 -0.06,0.02 -0.02,0 -0.03,0.01 -0.05,0.02 -0.02,0 -0.04,0.01 -0.06,0.02 -0.02,0 -0.04,0.01 -0.06,0.01 -0.02,0.01 -0.04,0.02 -0.06,0.03 -0.02,0 -0.04,0.01 -0.06,0.01 -0.02,0.01 -0.04,0.02 -0.06,0.02 -0.02,0.01 -0.04,0.02 -0.06,0.02 -0.02,0.01 -0.04,0.02 -0.06,0.02 -0.02,0.01 -0.03,0.02 -0.05,0.03 -0.02,0 -0.04,0.01 -0.06,0.02 -0.02,0.01 -0.04,0.01 -0.06,0.02 -0.02,0.01 -0.04,0.01 -0.06,0.02 -0.02,0.01 -0.04,0.02 -0.05,0.02 -0.03,0.01 -0.04,0.02 -0.06,0.03 -0.02,0 -0.04,0.01 -0.06,0.02 -0.01,0 -0.02,0.01 -0.04,0.01 1.06,3.5 2.11,6.99 3.17,10.48 l 0.49,-0.57 z m 4.21,-0.01 -1.16,8.83 0.93,-1.09 0.19,0.29 2.07,-7.44 c -0.02,-0.01 -0.04,-0.01 -0.05,-0.02 -0.02,-0.01 -0.04,-0.01 -0.06,-0.02 -0.02,-0.01 -0.04,-0.02 -0.06,-0.02 -0.02,-0.01 -0.04,-0.02 -0.06,-0.02 -0.02,-0.01 -0.04,-0.02 -0.05,-0.03 -0.02,0 -0.04,-0.01 -0.06,-0.02 -0.02,-0.01 -0.04,-0.01 -0.06,-0.02 -0.02,-0.01 -0.04,-0.01 -0.06,-0.02 -0.02,-0.01 -0.04,-0.01 -0.06,-0.02 -0.02,-0.01 -0.04,-0.01 -0.06,-0.02 -0.02,-0.01 -0.04,-0.01 -0.06,-0.02 -0.01,-0.01 -0.03,-0.01 -0.06,-0.02 -0.01,0 -0.03,-0.01 -0.05,-0.02 -0.02,0 -0.04,-0.01 -0.06,-0.02 -0.02,0 -0.04,-0.01 -0.06,-0.01 -0.02,-0.01 -0.04,-0.02 -0.06,-0.02 -0.02,-0.01 -0.04,-0.01 -0.06,-0.02 -0.02,0 -0.04,-0.01 -0.06,-0.02 -0.02,0 -0.04,-0.01 -0.06,-0.01 -0.02,-0.01 -0.04,-0.01 -0.06,-0.02 -0.02,-0.01 -0.04,-0.01 -0.06,-0.02 -0.02,0 -0.04,-0.01 -0.06,-0.01 -0.02,-0.01 -0.04,-0.01 -0.06,-0.02 -0.02,0 -0.04,-0.01 -0.06,-0.01 -0.02,-0.01 -0.04,-0.01 -0.06,-0.02 -0.02,0 -0.04,-0.01 -0.06,-0.01 -0.02,-0.01 -0.04,-0.01 -0.06,-0.02 -0.02,0 -0.04,-0.01 -0.06,-0.01 -0.02,-0.01 -0.04,-0.01 -0.06,-0.01 -0.02,-0.01 -0.04,-0.01 -0.06,-0.02 -0.02,0 -0.04,-0.01 -0.06,-0.01 -0.02,0 -0.04,-0.01 -0.06,-0.01 -0.02,-0.01 -0.04,-0.01 -0.06,-0.02 -0.02,0 -0.04,0 -0.06,-0.01 z m -9.92,3.06 c -0.01,0.01 -0.03,0.02 -0.04,0.03 -0.01,0.02 -0.03,0.03 -0.04,0.05 -0.02,0.01 -0.03,0.03 -0.04,0.04 -0.02,0.02 -0.03,0.03 -0.05,0.05 -0.01,0.01 -0.02,0.03 -0.04,0.04 -0.01,0.02 -0.03,0.03 -0.04,0.05 -0.02,0.01 -0.03,0.03 -0.04,0.04 -0.02,0.02 -0.03,0.03 -0.04,0.05 -0.02,0.01 -0.03,0.03 -0.05,0.04 -0.01,0.02 -0.02,0.03 -0.04,0.05 -0.01,0.02 -0.03,0.03 -0.04,0.04 -0.01,0.02 -0.02,0.04 -0.04,0.05 -0.01,0.02 -0.03,0.03 -0.04,0.05 -0.01,0.01 -0.03,0.03 -0.04,0.04 -0.01,0.02 -0.02,0.04 -0.04,0.05 -0.01,0.02 -0.03,0.03 -0.04,0.05 -0.01,0.02 -0.02,0.03 -0.04,0.05 -0.01,0.01 -0.02,0.03 -0.04,0.04 -0.01,0.02 -0.02,0.04 -0.04,0.05 -0.01,0.02 -0.02,0.04 -0.03,0.05 -0.02,0.02 -0.03,0.03 -0.04,0.05 -0.01,0.01 -0.03,0.03 -0.04,0.05 -0.01,0.01 -0.03,0.03 -0.04,0.05 -0.01,0.01 -0.02,0.03 -0.04,0.04 -0.01,0.02 -0.02,0.04 -0.03,0.06 -0.01,0.01 -0.03,0.03 -0.04,0.04 -0.01,0.02 -0.02,0.04 -0.03,0.05 -0.02,0.02 -0.03,0.04 -0.04,0.05 -0.01,0.02 -0.02,0.04 -0.04,0.05 -0.01,0.02 -0.02,0.04 -0.03,0.05 -0.01,0.02 -0.03,0.04 -0.04,0.05 -0.01,0.02 -0.02,0.04 -0.03,0.05 -0.01,0.02 -0.03,0.04 -0.04,0.05 -0.01,0.02 -0.02,0.04 -0.03,0.06 -0.01,0.01 -0.02,0.03 -0.04,0.05 v 0 l 6.04,6.6 0.46,-0.59 0.02,0.01 z m 15.56,-0.12 -4.46,7.04 0.5,0.82 5.41,-6.13 c -0.01,-0.01 -0.02,-0.03 -0.03,-0.04 -0.01,-0.02 -0.02,-0.03 -0.03,-0.05 -0.02,-0.02 -0.03,-0.04 -0.04,-0.05 -0.01,-0.02 -0.02,-0.04 -0.03,-0.05 -0.01,-0.02 -0.03,-0.04 -0.04,-0.05 -0.01,-0.02 -0.02,-0.04 -0.04,-0.05 -0.01,-0.02 -0.02,-0.04 -0.03,-0.05 -0.01,-0.02 -0.02,-0.04 -0.04,-0.05 -0.01,-0.02 -0.02,-0.04 -0.03,-0.05 -0.02,-0.02 -0.03,-0.04 -0.04,-0.05 -0.01,-0.02 -0.02,-0.03 -0.04,-0.05 -0.01,-0.02 -0.02,-0.03 -0.03,-0.05 -0.02,-0.02 -0.03,-0.03 -0.04,-0.05 -0.01,-0.01 -0.03,-0.03 -0.04,-0.05 -0.01,-0.01 -0.03,-0.03 -0.04,-0.05 -0.01,-0.01 -0.03,-0.03 -0.04,-0.04 -0.01,-0.02 -0.02,-0.04 -0.04,-0.05 -0.01,-0.02 -0.02,-0.03 -0.04,-0.05 -0.01,-0.01 -0.02,-0.03 -0.04,-0.04 -0.01,-0.02 -0.02,-0.04 -0.03,-0.05 -0.02,-0.02 -0.03,-0.03 -0.05,-0.05 -0.01,-0.01 -0.02,-0.03 -0.03,-0.05 -0.02,-0.01 -0.03,-0.03 -0.05,-0.04 -0.01,-0.02 -0.02,-0.03 -0.04,-0.05 -0.01,-0.01 -0.02,-0.03 -0.04,-0.05 -0.01,-0.01 -0.02,-0.02 -0.04,-0.04 -0.01,-0.02 -0.03,-0.03 -0.04,-0.05 -0.01,-0.01 -0.03,-0.03 -0.04,-0.04 -0.02,-0.02 -0.03,-0.03 -0.04,-0.05 -0.02,-0.01 -0.03,-0.03 -0.05,-0.04 -0.01,-0.02 -0.02,-0.03 -0.04,-0.05 -0.01,-0.01 -0.03,-0.03 -0.04,-0.04 -0.01,-0.02 -0.03,-0.03 -0.04,-0.04 -0.02,-0.02 -0.03,-0.03 -0.05,-0.05 -0.01,-0.01 -0.03,-0.03 -0.04,-0.04 -0.01,-0.02 -0.03,-0.03 -0.04,-0.05 -0.02,-0.01 -0.03,-0.02 -0.05,-0.04 z m -18.52,5.67 c 0,0.02 -0.01,0.04 -0.01,0.06 0,0.02 -0.01,0.04 -0.01,0.06 -0.01,0.02 -0.01,0.04 -0.01,0.06 -0.01,0.02 -0.01,0.04 -0.01,0.06 -0.01,0.02 -0.01,0.04 -0.01,0.06 -0.01,0.02 -0.01,0.04 -0.01,0.06 -0.01,0.02 -0.01,0.05 -0.01,0.06 -0.01,0.02 -0.01,0.04 -0.01,0.06 0,0.03 -0.01,0.05 -0.01,0.07 0,0.02 -0.01,0.04 -0.01,0.06 0,0.02 -0.01,0.04 -0.01,0.06 0,0.02 0,0.04 0,0.06 -0.01,0.02 -0.01,0.04 -0.01,0.06 -0.01,0.02 -0.01,0.04 -0.01,0.06 0,0.02 -0.01,0.04 -0.01,0.06 0,0.02 0,0.04 0,0.06 -0.01,0.02 -0.01,0.04 -0.01,0.06 0,0.02 0,0.04 -0.01,0.06 0,0.02 0,0.04 0,0.07 0,0.02 0,0.04 0,0.06 -0.01,0.02 -0.01,0.04 -0.01,0.06 0,0.02 0,0.04 0,0.06 -0.01,0.02 -0.01,0.04 -0.01,0.06 0,0.02 0,0.04 0,0.06 0,0.02 -0.01,0.04 -0.01,0.06 0,0.02 0,0.04 0,0.06 0,0.02 0,0.04 0,0.07 0,0.02 0,0.04 0,0.06 0,0.02 0,0.04 -0.01,0.06 0,0.02 0,0.04 0,0.06 0,0.02 0,0.04 0,0.06 0,0.02 0,0.04 0,0.06 0,0.02 0,0.04 0,0.06 0,0.02 0,0.04 0,0.06 0,0.02 0,0.03 0,0.05 l 6.44,2.42 0.5,-0.65 z m 21.63,0.19 -6.13,3.5 0.48,0.77 5.82,-2.11 v -0.03 c 0,-0.02 0,-0.05 0,-0.07 0,-0.02 0,-0.04 0,-0.06 0,-0.02 0,-0.04 0,-0.06 0,-0.02 0,-0.04 0,-0.06 v -0.06 c 0,-0.02 0,-0.04 0,-0.06 0,-0.01 0,-0.03 0,-0.04 0,-0.02 0,-0.04 0,-0.06 0,-0.02 0,-0.04 0,-0.06 l -0.01,-0.06 c 0,-0.03 0,-0.05 0,-0.07 v -0.06 c 0,-0.02 0,-0.04 0,-0.06 0,-0.02 -0.01,-0.04 -0.01,-0.06 v -0.06 c 0,-0.02 0,-0.04 0,-0.06 -0.01,-0.02 -0.01,-0.04 -0.01,-0.06 0,-0.02 0,-0.04 0,-0.06 -0.01,-0.03 -0.01,-0.05 -0.01,-0.07 0,-0.02 0,-0.04 0,-0.06 0,-0.02 -0.01,-0.04 -0.01,-0.06 0,-0.02 0,-0.04 -0.01,-0.06 0,-0.02 0,-0.04 0,-0.06 0,-0.02 0,-0.04 -0.01,-0.06 0,-0.02 0,-0.04 0,-0.06 -0.01,-0.02 -0.01,-0.04 -0.01,-0.06 -0.01,-0.02 -0.01,-0.04 -0.01,-0.06 0,-0.03 0,-0.05 -0.01,-0.07 0,-0.01 0,-0.03 -0.01,-0.06 0,-0.02 0,-0.04 -0.01,-0.06 0,-0.02 0,-0.04 0,-0.06 -0.01,-0.02 -0.01,-0.04 -0.01,-0.06 -0.01,-0.02 -0.01,-0.04 -0.01,-0.06 -0.01,-0.02 -0.01,-0.04 -0.01,-0.06 -0.01,-0.02 -0.01,-0.04 -0.01,-0.06 l -0.01,-0.01 z m -20.94,6.17 c 0.01,0.01 0.01,0.03 0.02,0.04 0.01,0.02 0.02,0.04 0.03,0.06 0,0.02 0.01,0.04 0.02,0.06 0.01,0.02 0.02,0.03 0.03,0.05 0,0.02 0.01,0.04 0.02,0.06 0.01,0.02 0.02,0.04 0.03,0.05 0.01,0.02 0.01,0.04 0.02,0.06 0.01,0.02 0.02,0.04 0.03,0.05 0.01,0.02 0.02,0.04 0.03,0.06 0.01,0.02 0.02,0.04 0.03,0.06 0,0.01 0.01,0.03 0.02,0.05 0.01,0.02 0.02,0.04 0.03,0.06 0.01,0.01 0.02,0.03 0.03,0.05 0.01,0.02 0.02,0.04 0.03,0.05 0.01,0.02 0.02,0.04 0.03,0.06 0.01,0.02 0.02,0.03 0.03,0.05 0.01,0.02 0.02,0.04 0.03,0.06 0.01,0.01 0.01,0.03 0.03,0.05 0.01,0.02 0.02,0.04 0.03,0.05 0,0.02 0.02,0.04 0.03,0.06 0.01,0.01 0.02,0.03 0.03,0.05 0.01,0.02 0.02,0.04 0.03,0.05 0.01,0.02 0.02,0.04 0.03,0.06 0.01,0.01 0.02,0.03 0.03,0.05 0.01,0.02 0.02,0.03 0.03,0.05 0.01,0.02 0.02,0.04 0.03,0.05 0.02,0.02 0.03,0.04 0.04,0.06 0.01,0.01 0.02,0.03 0.03,0.05 0.01,0.01 0.02,0.03 0.03,0.05 0.01,0.02 0.03,0.03 0.04,0.05 0.01,0.02 0.02,0.04 0.03,0.05 0.01,0.02 0.02,0.04 0.04,0.05 0.01,0.02 0.02,0.04 0.03,0.05 0.01,0.02 0.02,0.04 0.03,0.06 0.02,0.01 0.03,0.03 0.04,0.05 0.01,0.01 0.02,0.03 0.03,0.05 0.02,0.01 0.03,0.03 0.04,0.05 v 0 l 1.89,-0.42 0.04,-0.05 h -0.05 l 1.18,-1.52 z m 16.51,0.05 0.91,1.52 1.7,0.38 c 0.01,-0.01 0.01,-0.01 0.01,-0.02 0.02,-0.02 0.03,-0.03 0.04,-0.05 0.01,-0.02 0.02,-0.03 0.03,-0.05 0.02,-0.02 0.03,-0.03 0.04,-0.05 0.01,-0.02 0.02,-0.03 0.03,-0.05 0.01,-0.02 0.03,-0.03 0.04,-0.05 0.01,-0.02 0.02,-0.04 0.03,-0.05 0.01,-0.02 0.02,-0.04 0.03,-0.06 0.01,-0.01 0.03,-0.03 0.04,-0.05 0.01,-0.01 0.02,-0.03 0.03,-0.05 0.01,-0.02 0.02,-0.03 0.03,-0.05 0.01,-0.02 0.02,-0.04 0.04,-0.05 0.01,-0.02 0.02,-0.04 0.03,-0.06 0.01,-0.01 0.02,-0.03 0.03,-0.05 0.01,-0.02 0.02,-0.03 0.03,-0.05 0.01,-0.02 0.02,-0.04 0.03,-0.06 0.01,-0.01 0.02,-0.03 0.03,-0.05 0.01,-0.02 0.02,-0.03 0.03,-0.05 0.01,-0.02 0.02,-0.04 0.03,-0.05 0.01,-0.02 0.03,-0.04 0.03,-0.06 0.01,-0.02 0.02,-0.03 0.03,-0.05 0.01,-0.02 0.02,-0.04 0.03,-0.06 0.01,-0.01 0.02,-0.03 0.03,-0.05 0.01,-0.02 0.02,-0.04 0.03,-0.05 0.01,-0.02 0.02,-0.04 0.03,-0.06 0.01,-0.02 0.02,-0.04 0.03,-0.05 0.01,-0.02 0.02,-0.04 0.03,-0.06 0,-0.02 0.01,-0.03 0.02,-0.05 0.01,-0.02 0.02,-0.04 0.03,-0.06 0.01,-0.02 0.02,-0.04 0.03,-0.05 0.01,-0.02 0.02,-0.04 0.02,-0.06 0.01,-0.02 0.02,-0.04 0.03,-0.05 0.01,-0.02 0.02,-0.04 0.03,-0.06 0,-0.02 0.01,-0.04 0.02,-0.06 0.01,-0.02 0.02,-0.03 0.03,-0.05 v 0 z m -4.41,-7.56 -3.2,3.66 -1.47,-0.65 -4.77,6.13 h 0.42 c 0,0 2.97,-3.79 4.45,-5.7 l 1.46,0.64 3.06,-3.5 c 1.69,2.89 3.52,5.66 5.18,8.56 h 0.42 z m -0.06,1.1 -2.97,3.41 -1.46,-0.6 -4.1,5.23 h 0.45 l 3.76,-4.81 1.44,0.59 2.83,-3.24 4.45,7.48 0.44,-0.01 z m -7.64,8.03 3.43,-4.37 1.47,0.6 2.67,-3.07 4.01,6.85 z"
   id="libera" />
</svg>
