<svg version="1.2" baseProfile="tiny-ps" xmlns="http://www.w3.org/2000/svg" viewBox="0 0 120 120" width="120" height="120">
	<style>
		tspan { white-space:pre }
		.shp0 { fill: #000000 }
	</style>
	<path class="shp0" d="M20 16.1L20 20.1L4 20.1L4 16.1L2 16.1L2 22L22 22L22 16.1L20 16.1ZM18 16.1L18.5 14.3L19.4 12.7L20.8 11.3L12.3 2.8L10.9 4.2L19 12.3L9 6.6L8 8.3L17.9 13.9L6.9 11L6.4 13L17.4 16L6 16L6 18L18 18L18 16.1Z" />
	<path class="shp0" d="M44.8 7.5L44.8 8C44.9 15.1 39.3 20.9 32.2 21C32.2 21 32.2 21 32.1 21L31.9 21C29.4 21 27 20.3 25 19C25.4 19 25.7 19 26.1 19C28.1 19 30.1 18.3 31.7 17C29.8 17 28.1 15.7 27.5 13.8C27.8 13.9 28.1 13.9 28.4 13.9C28.8 13.9 29.2 13.8 29.6 13.7C27.5 13.3 26 11.4 26 9.2L26 9.2C26.6 9.5 27.3 9.7 28 9.8C26 8.5 25.4 5.8 26.6 3.7C28.9 6.5 32.3 8.3 35.9 8.5C35.8 8.2 35.8 7.8 35.8 7.5C35.8 5 37.8 3 40.3 3C41.6 3 42.8 3.5 43.6 4.4C44.6 4.2 45.6 3.8 46.5 3.3C46.2 4.4 45.5 5.3 44.5 5.8C45.4 5.7 46.3 5.4 47.1 5.1C46.4 6 45.6 6.8 44.8 7.5Z" />
	<path fill-rule="evenodd" class="shp0" d="M69 14L69 16L63.6 16L63 21L61 21L61.6 16L57.6 16L57 21L55 21L55.6 16L51 16L51 14L55.8 14L56.2 10L51 10L51 8L56.4 8L57 3L59 3L58.4 8L62.4 8L63 3L65 3L64.4 8L69 8L69 10L64.2 10L63.8 14L69 14ZM58.2 10L57.8 14L61.8 14L62.2 10L58.2 10Z" />
	<path fill-rule="evenodd" class="shp0" d="M93.6 13.7C93.9 14.3 94 14.9 94 15.5C94 19.1 89.5 22 84 22C78.5 22 74 19.1 74 15.5C74 14.9 74.1 14.3 74.4 13.7C73.9 13.4 73.4 13 73.2 12.5C72.6 11.3 73.1 9.8 74.4 9.2C75.6 8.6 77.1 9.1 77.7 10.4C79.4 9.6 81.2 9.1 83 9L83 5C83 3.9 83.9 3 85 3L88.3 3C88.4 2.7 88.7 2.5 89 2.3C90 1.7 91.1 2 91.7 3C92.3 4 92 5.2 90.9 5.7C90 6.3 88.8 6 88.2 5L84.9 5L84.9 9C86.8 9.1 88.6 9.6 90.2 10.4C90.6 9.6 91.5 9 92.5 9C93.9 9 95 10.1 95 11.5C95 12.4 94.5 13.3 93.6 13.7ZM82 14C82 12.9 81.1 12 80 12C78.9 12 78 12.9 78 14C78 15.1 78.9 16 80 16C81.1 16 82 15.1 82 14ZM90 14C90 12.9 89.1 12 88 12C86.9 12 86 12.9 86 14C86 15.1 86.9 16 88 16C89.1 16 90 15.1 90 14Z" />
	<path fill-rule="evenodd" class="shp0" d="M95 36C95 42.1 90.1 47 84 47C77.9 47 73 42.1 73 36C73 29.9 77.9 25 84 25C90.1 25 95 29.9 95 36ZM88 30L80 30L80 42L82 42L82 37L86 37L86 35L82 35L82 32L88 32L88 30Z" />
	<path class="shp0" d="M69.8 34L60 34L60 38L65.7 38C64.6 41.1 61.2 42.8 58 41.7C54.8 40.6 53.2 37.2 54.3 34C55.1 31.6 57.4 30 59.9 30C61.5 30 63 30.6 64.1 31.8L67 29C65.2 27 62.7 26 60 26C54.5 26 50 30.5 50 36C50 41.5 54.5 46 60 46C65.5 46 70 41.5 70 36C70 35.3 69.9 34.7 69.8 34Z" />
	<path class="shp0" d="M43 37.1L41 37.1L41 28.1L43 28.1L43 37.1ZM39 45.1L37 45.1L37 28.1L39 28.1L39 45.1ZM35 45.1L33 45.1L33 28.1L35 28.1L35 45.1ZM31 37.1L29 37.1L29 25.1L31 25.1L31 37.1Z" />
	<path class="shp0" d="M33.6 58.8L33.6 62.2L38.2 62.2C37.5 64.4 36.3 65.6 33.6 65.6C30.8 65.6 28.6 63.4 28.6 60.6C28.6 57.9 30.9 55.6 33.6 55.6C34.8 55.6 36 56 36.9 56.8C37.6 56.1 37.5 56 39.3 54.3C35.8 51.1 30.4 51.4 27.2 54.9L27.2 54.9C25.8 56.4 25 58.4 25 60.5C25 65.2 28.9 69 33.6 69L33.6 69C40.7 69 42.4 62.9 41.8 58.9L33.6 58.8ZM48 59L48 56L46 56L46 59L43 59L43 61L46 61L46 64L48 64L48 61L51 61L51 59L48 59Z" />
	<path class="shp0" d="M12 24.5C5.5 24.3 0.1 29.4 -0.1 35.9C-0.3 41.2 3.1 45.9 8.2 47.5C8.5 47.6 8.9 47.4 9 47.1L9 47.1C9 47 9 47 9 46.9L9 44.9C5.7 45.6 5 43.3 5 43.3C4.8 42.6 4.3 42 3.7 41.6C2.6 40.9 3.8 40.9 3.8 40.9C4.6 41 5.2 41.5 5.6 42.1C6.3 43.3 7.8 43.7 9 43.1C9.1 42.5 9.3 41.9 9.8 41.5C7.1 41.2 4.3 40.2 4.3 35.7C4.3 34.5 4.7 33.4 5.5 32.5C5.1 31.5 5.2 30.4 5.6 29.4C5.6 29.4 6.6 29.1 8.9 30.6C10.9 30.1 12.9 30.1 14.9 30.6C17.2 29.1 18.2 29.4 18.2 29.4C18.6 30.4 18.7 31.5 18.3 32.5C19.1 33.4 19.5 34.5 19.5 35.7C19.5 40.2 16.7 41.2 14 41.5C14.6 42.1 14.9 42.9 14.8 43.7L14.8 46.9C14.8 47.2 15.1 47.5 15.4 47.5C15.5 47.5 15.6 47.5 15.7 47.5C21.9 45.6 25.4 39 23.5 32.8C22 27.7 17.3 24.3 12 24.5L12 24.5Z" />
	<path class="shp0" d="M23 69.7C23 70.4 22.3 71 21.6 71L21.6 71L15 71L15 63.8L18.4 63.8L18.9 60.1L15 60.1L15 57.9C15 56.9 15.3 56.1 16.9 56.1L19 56.1L19 52.9C18 52.8 17.1 52.8 16.1 52.8C13.2 52.8 11 54.5 11 57.6L11 60.1L8 60.1L8 63.8L11 63.8L11 71L2.4 71C1.7 71 1 70.4 1 69.7L1 69.7L1 69.7L1 50.4C1 49.7 1.7 49.1 2.4 49.1L2.4 49.1L21.6 49.1C22.3 49.1 23 49.7 23 50.4L23 50.4L23 50.4L23 69.7L23 69.7Z" />
	<path class="shp0" d="M95 59.2L94.9 59.2L88.5 52.8L87.1 54.2L92.1 59.1L75.8 59.1L80.8 54.2L79.4 52.8L73 59.2L73 64.2C73 65.8 74.3 67.2 76 67.2L80 67.2C81.6 67.2 83 65.9 83 64.2L83 61.2L85 61.2L85 64.2C85 65.8 86.3 67.2 88 67.2L92 67.2C93.6 67.2 95 65.9 95 64.2C95 61.9 95 59.2 95 59.2Z" />
	<path fill-rule="evenodd" class="shp0" d="M11.09 82.92C11.09 83.63 10.57 84.2 9.92 84.2C9.27 84.2 8.75 83.63 8.75 82.92C8.75 82.22 9.26 81.65 9.92 81.65C10.57 81.65 11.1 82.22 11.09 82.92ZM15.29 82.92C15.29 83.63 14.77 84.2 14.12 84.2C13.47 84.2 12.94 83.63 12.94 82.92C12.94 82.22 13.46 81.65 14.12 81.65C14.77 81.65 15.29 82.22 15.29 82.92ZM19.7 72C21 72 22.06 73.06 22.06 74.37L22.06 95L19.59 92.82L18.2 91.53L16.73 90.16L17.34 92.29L4.29 92.29C3 92.29 1.94 91.23 1.94 89.92L1.94 74.37C1.94 73.06 3 72 4.29 72L19.7 72ZM18.79 85.27C18.79 81.57 17.13 78.57 17.13 78.57C15.47 77.32 13.9 77.36 13.9 77.36L13.74 77.54C15.69 78.14 16.6 79 16.6 79C15.4 78.35 14.23 78.03 13.14 77.9C12.31 77.81 11.52 77.83 10.82 77.92C10.75 77.92 10.69 77.93 10.62 77.95C10.22 77.98 9.24 78.13 8.01 78.67C7.58 78.87 7.33 79 7.33 79C7.33 79 8.29 78.1 10.36 77.5L10.24 77.36C10.24 77.36 8.67 77.32 7.01 78.57C7.01 78.57 5.35 81.57 5.35 85.27C5.35 85.27 6.32 86.94 8.86 87.02C8.86 87.02 9.29 86.5 9.63 86.06C8.17 85.63 7.62 84.71 7.62 84.71C7.62 84.71 7.73 84.79 7.94 84.9C7.95 84.91 7.96 84.93 7.99 84.94C8.02 84.96 8.06 84.97 8.09 85C8.38 85.16 8.66 85.28 8.93 85.39C9.4 85.57 9.96 85.75 10.62 85.88C11.48 86.04 12.49 86.1 13.6 85.89C14.14 85.8 14.69 85.64 15.27 85.4C15.67 85.25 16.12 85.03 16.59 84.72C16.59 84.72 16.01 85.66 14.51 86.09C14.85 86.52 15.27 87.02 15.27 87.02C17.81 86.94 18.79 85.27 18.79 85.27Z" />
	<path class="shp0" d="M34.87 74.01L34.87 74.01C34.85 74.01 34.83 74.02 34.81 74.02C34.78 74.03 34.76 74.03 34.74 74.04C34.72 74.04 34.7 74.04 34.68 74.05C34.66 74.05 34.64 74.06 34.62 74.06C34.6 74.07 34.58 74.07 34.56 74.08C34.54 74.08 34.52 74.09 34.5 74.09C34.48 74.09 34.46 74.1 34.44 74.1C34.42 74.11 34.4 74.11 34.38 74.12C34.36 74.12 34.34 74.13 34.32 74.13C34.3 74.14 34.28 74.14 34.26 74.15C34.24 74.15 34.22 74.16 34.2 74.16C34.18 74.17 34.16 74.17 34.14 74.18C34.12 74.18 34.1 74.19 34.08 74.19C34.06 74.2 34.04 74.21 34.02 74.21C34 74.22 33.98 74.22 33.96 74.23C33.94 74.23 33.92 74.24 33.9 74.25C33.88 74.25 33.86 74.26 33.84 74.26C33.82 74.27 33.8 74.27 33.78 74.28C33.76 74.29 33.74 74.29 33.72 74.3C33.7 74.3 33.69 74.31 33.67 74.32C33.65 74.32 33.63 74.33 33.61 74.34C33.59 74.34 33.57 74.35 33.55 74.35C33.53 74.36 33.51 74.37 33.49 74.38C33.47 74.38 33.45 74.39 33.43 74.39C33.41 74.4 33.39 74.41 33.37 74.41C33.35 74.42 33.33 74.43 33.31 74.43C33.29 74.44 33.27 74.45 33.25 74.45C33.23 74.46 33.22 74.47 33.2 74.48C33.18 74.48 33.16 74.49 33.14 74.5C33.12 74.51 33.1 74.51 33.08 74.52C33.06 74.53 33.04 74.53 33.02 74.54C33 74.55 32.98 74.56 32.97 74.56C32.94 74.57 32.93 74.58 32.91 74.59C32.89 74.59 32.87 74.6 32.85 74.61C32.84 74.61 32.83 74.62 32.81 74.62C33.87 78.12 34.92 81.61 35.98 85.1L36.47 84.53L34.87 74.01ZM39.08 74L37.92 82.83L38.85 81.74L39.04 82.03L41.11 74.59C41.09 74.58 41.07 74.58 41.06 74.57C41.04 74.56 41.02 74.56 41 74.55C40.98 74.54 40.96 74.53 40.94 74.53C40.92 74.52 40.9 74.51 40.88 74.51C40.86 74.5 40.84 74.49 40.83 74.48C40.81 74.48 40.79 74.47 40.77 74.46C40.75 74.45 40.73 74.45 40.71 74.44C40.69 74.43 40.67 74.43 40.65 74.42C40.63 74.41 40.61 74.41 40.59 74.4C40.57 74.39 40.55 74.39 40.53 74.38C40.51 74.37 40.49 74.37 40.47 74.36C40.46 74.35 40.44 74.35 40.41 74.34C40.4 74.34 40.38 74.33 40.36 74.32C40.34 74.32 40.32 74.31 40.3 74.3C40.28 74.3 40.26 74.29 40.24 74.29C40.22 74.28 40.2 74.27 40.18 74.27C40.16 74.26 40.14 74.26 40.12 74.25C40.1 74.25 40.08 74.24 40.06 74.23C40.04 74.23 40.02 74.22 40 74.22C39.98 74.21 39.96 74.21 39.94 74.2C39.92 74.19 39.9 74.19 39.88 74.18C39.86 74.18 39.84 74.17 39.82 74.17C39.8 74.16 39.78 74.16 39.76 74.15C39.74 74.15 39.72 74.14 39.7 74.14C39.68 74.13 39.66 74.13 39.64 74.12C39.62 74.12 39.6 74.11 39.58 74.11C39.56 74.1 39.54 74.1 39.52 74.09C39.5 74.09 39.48 74.08 39.46 74.08C39.44 74.07 39.42 74.07 39.4 74.07C39.38 74.06 39.36 74.06 39.34 74.05C39.32 74.05 39.3 74.04 39.28 74.04C39.26 74.04 39.24 74.03 39.22 74.03C39.2 74.02 39.18 74.02 39.16 74.01C39.14 74.01 39.12 74.01 39.1 74L39.08 74ZM29.16 77.06C29.15 77.07 29.13 77.08 29.12 77.09C29.11 77.11 29.09 77.12 29.08 77.14C29.06 77.15 29.05 77.17 29.04 77.18C29.02 77.2 29.01 77.21 28.99 77.23C28.98 77.24 28.97 77.26 28.95 77.27C28.94 77.29 28.92 77.3 28.91 77.32C28.89 77.33 28.88 77.35 28.87 77.36C28.85 77.38 28.84 77.39 28.83 77.41C28.81 77.42 28.8 77.44 28.78 77.45C28.77 77.47 28.76 77.48 28.74 77.5C28.73 77.52 28.71 77.53 28.7 77.54C28.69 77.56 28.68 77.58 28.66 77.59C28.65 77.61 28.63 77.62 28.62 77.64C28.61 77.65 28.59 77.67 28.58 77.68C28.57 77.7 28.56 77.72 28.54 77.73C28.53 77.75 28.51 77.76 28.5 77.78C28.49 77.8 28.48 77.81 28.46 77.83C28.45 77.84 28.44 77.86 28.42 77.87C28.41 77.89 28.4 77.91 28.38 77.92C28.37 77.94 28.36 77.96 28.35 77.97C28.33 77.99 28.32 78 28.31 78.02C28.3 78.03 28.28 78.05 28.27 78.07C28.26 78.08 28.24 78.1 28.23 78.12C28.22 78.13 28.21 78.15 28.19 78.16C28.18 78.18 28.17 78.2 28.16 78.22C28.15 78.23 28.13 78.25 28.12 78.26C28.11 78.28 28.1 78.3 28.09 78.31C28.07 78.33 28.06 78.35 28.05 78.36C28.04 78.38 28.03 78.4 28.01 78.41C28 78.43 27.99 78.45 27.98 78.46C27.97 78.48 27.95 78.5 27.94 78.51C27.93 78.53 27.92 78.55 27.91 78.56C27.9 78.58 27.88 78.6 27.87 78.61C27.86 78.63 27.85 78.65 27.84 78.67C27.83 78.68 27.82 78.7 27.8 78.72L27.8 78.72L33.84 85.32L34.3 84.73L34.32 84.74L29.16 77.06ZM44.72 76.94L40.26 83.98L40.76 84.8L46.17 78.67C46.16 78.66 46.15 78.64 46.14 78.63C46.13 78.61 46.12 78.6 46.11 78.58C46.09 78.56 46.08 78.54 46.07 78.53C46.06 78.51 46.05 78.49 46.04 78.48C46.03 78.46 46.01 78.44 46 78.43C45.99 78.41 45.98 78.39 45.96 78.38C45.95 78.36 45.94 78.34 45.93 78.33C45.92 78.31 45.91 78.29 45.89 78.28C45.88 78.26 45.87 78.24 45.86 78.23C45.84 78.21 45.83 78.19 45.82 78.18C45.81 78.16 45.8 78.15 45.78 78.13C45.77 78.11 45.76 78.1 45.75 78.08C45.73 78.06 45.72 78.05 45.71 78.03C45.7 78.02 45.68 78 45.67 77.98C45.66 77.97 45.64 77.95 45.63 77.93C45.62 77.92 45.6 77.9 45.59 77.89C45.58 77.87 45.57 77.85 45.55 77.84C45.54 77.82 45.53 77.81 45.51 77.79C45.5 77.78 45.49 77.76 45.47 77.75C45.46 77.73 45.45 77.71 45.44 77.7C45.42 77.68 45.41 77.67 45.39 77.65C45.38 77.64 45.37 77.62 45.36 77.6C45.34 77.59 45.33 77.57 45.31 77.56C45.3 77.54 45.29 77.53 45.27 77.51C45.26 77.5 45.25 77.48 45.23 77.46C45.22 77.45 45.21 77.44 45.19 77.42C45.18 77.4 45.16 77.39 45.15 77.37C45.14 77.36 45.12 77.34 45.11 77.33C45.09 77.31 45.08 77.3 45.07 77.28C45.05 77.27 45.04 77.25 45.02 77.24C45.01 77.22 45 77.21 44.98 77.19C44.97 77.18 44.95 77.16 44.94 77.15C44.93 77.13 44.91 77.12 44.9 77.11C44.88 77.09 44.87 77.08 44.85 77.06C44.84 77.05 44.82 77.03 44.81 77.02C44.8 77 44.78 76.99 44.77 76.97C44.75 76.96 44.74 76.95 44.72 76.93L44.72 76.94ZM26.2 82.61C26.2 82.63 26.19 82.65 26.19 82.67C26.19 82.69 26.18 82.71 26.18 82.73C26.17 82.75 26.17 82.77 26.17 82.79C26.16 82.81 26.16 82.83 26.16 82.85C26.15 82.87 26.15 82.89 26.15 82.91C26.14 82.93 26.14 82.95 26.14 82.97C26.13 82.99 26.13 83.02 26.13 83.03C26.12 83.05 26.12 83.07 26.12 83.09C26.12 83.12 26.11 83.14 26.11 83.16C26.11 83.18 26.1 83.2 26.1 83.22C26.1 83.24 26.09 83.26 26.09 83.28C26.09 83.3 26.09 83.32 26.09 83.34C26.08 83.36 26.08 83.38 26.08 83.4C26.07 83.42 26.07 83.44 26.07 83.46C26.07 83.48 26.06 83.5 26.06 83.52C26.06 83.54 26.06 83.56 26.06 83.58C26.05 83.6 26.05 83.62 26.05 83.64C26.05 83.66 26.05 83.68 26.04 83.7C26.04 83.72 26.04 83.74 26.04 83.77C26.04 83.79 26.04 83.81 26.04 83.83C26.03 83.85 26.03 83.87 26.03 83.89C26.03 83.91 26.03 83.93 26.03 83.95C26.02 83.97 26.02 83.99 26.02 84.01C26.02 84.03 26.02 84.05 26.02 84.07C26.02 84.09 26.01 84.11 26.01 84.13C26.01 84.15 26.01 84.17 26.01 84.19C26.01 84.21 26.01 84.23 26.01 84.26C26.01 84.28 26.01 84.3 26.01 84.32C26.01 84.34 26.01 84.36 26 84.38C26 84.4 26 84.42 26 84.44C26 84.46 26 84.48 26 84.5C26 84.52 26 84.54 26 84.56C26 84.58 26 84.6 26 84.62C26 84.64 26 84.66 26 84.68C26 84.7 26 84.71 26 84.73L32.44 87.15L32.94 86.5L26.2 82.61ZM47.83 82.8L41.7 86.3L42.18 87.07L48 84.96L48 84.93C48 84.91 48 84.88 48 84.86C48 84.84 48 84.82 48 84.8C48 84.78 48 84.76 48 84.74C48 84.72 48 84.7 48 84.68L48 84.62C48 84.6 48 84.58 48 84.56C48 84.55 48 84.53 48 84.52C48 84.5 48 84.48 48 84.46C48 84.44 48 84.42 48 84.4L47.99 84.34C47.99 84.31 47.99 84.29 47.99 84.27L47.99 84.21C47.99 84.19 47.99 84.17 47.99 84.15C47.99 84.13 47.98 84.11 47.98 84.09L47.98 84.03C47.98 84.01 47.98 83.99 47.98 83.97C47.97 83.95 47.97 83.93 47.97 83.91C47.97 83.89 47.97 83.87 47.97 83.85C47.96 83.82 47.96 83.8 47.96 83.78C47.96 83.76 47.96 83.74 47.96 83.72C47.96 83.7 47.95 83.68 47.95 83.66C47.95 83.64 47.95 83.62 47.94 83.6C47.94 83.58 47.94 83.56 47.94 83.54C47.94 83.52 47.94 83.5 47.93 83.48C47.93 83.46 47.93 83.44 47.93 83.42C47.92 83.4 47.92 83.38 47.92 83.36C47.91 83.34 47.91 83.32 47.91 83.3C47.91 83.27 47.91 83.25 47.9 83.23C47.9 83.22 47.9 83.2 47.89 83.17C47.89 83.15 47.89 83.13 47.88 83.11C47.88 83.09 47.88 83.07 47.88 83.05C47.87 83.03 47.87 83.01 47.87 82.99C47.86 82.97 47.86 82.95 47.86 82.93C47.85 82.91 47.85 82.89 47.85 82.87C47.84 82.85 47.84 82.83 47.84 82.81L47.83 82.8L47.83 82.8ZM26.89 88.97C26.9 88.98 26.9 89 26.91 89.01C26.92 89.03 26.93 89.05 26.94 89.07C26.94 89.09 26.95 89.11 26.96 89.13C26.97 89.15 26.98 89.16 26.99 89.18C26.99 89.2 27 89.22 27.01 89.24C27.02 89.26 27.03 89.28 27.04 89.29C27.05 89.31 27.05 89.33 27.06 89.35C27.07 89.37 27.08 89.39 27.09 89.4C27.1 89.42 27.11 89.44 27.12 89.46C27.13 89.48 27.14 89.5 27.15 89.52C27.15 89.53 27.16 89.55 27.17 89.57C27.18 89.59 27.19 89.61 27.2 89.63C27.21 89.64 27.22 89.66 27.23 89.68C27.24 89.7 27.25 89.72 27.26 89.73C27.27 89.75 27.28 89.77 27.29 89.79C27.3 89.81 27.31 89.82 27.32 89.84C27.33 89.86 27.34 89.88 27.35 89.9C27.36 89.91 27.36 89.93 27.38 89.95C27.39 89.97 27.4 89.99 27.41 90C27.41 90.02 27.43 90.04 27.44 90.06C27.45 90.07 27.46 90.09 27.47 90.11C27.48 90.13 27.49 90.15 27.5 90.16C27.51 90.18 27.52 90.2 27.53 90.22C27.54 90.23 27.55 90.25 27.56 90.27C27.57 90.29 27.58 90.3 27.59 90.32C27.6 90.34 27.61 90.36 27.62 90.37C27.64 90.39 27.65 90.41 27.66 90.43C27.67 90.44 27.68 90.46 27.69 90.48C27.7 90.49 27.71 90.51 27.72 90.53C27.73 90.55 27.75 90.56 27.76 90.58C27.77 90.6 27.78 90.62 27.79 90.63C27.8 90.65 27.81 90.67 27.83 90.68C27.84 90.7 27.85 90.72 27.86 90.73C27.87 90.75 27.88 90.77 27.89 90.79C27.91 90.8 27.92 90.82 27.93 90.84C27.94 90.85 27.95 90.87 27.96 90.89C27.98 90.9 27.99 90.92 28 90.94L28 90.94L29.89 90.52L29.93 90.47L29.88 90.47L31.06 88.95L26.89 88.97ZM43.4 89.02L44.31 90.54L46.01 90.92C46.02 90.91 46.02 90.91 46.02 90.9C46.04 90.88 46.05 90.87 46.06 90.85C46.07 90.83 46.08 90.82 46.09 90.8C46.11 90.78 46.12 90.77 46.13 90.75C46.14 90.73 46.15 90.72 46.16 90.7C46.17 90.68 46.19 90.67 46.2 90.65C46.21 90.63 46.22 90.61 46.23 90.6C46.24 90.58 46.25 90.56 46.26 90.54C46.27 90.53 46.29 90.51 46.3 90.49C46.31 90.48 46.32 90.46 46.33 90.44C46.34 90.42 46.35 90.41 46.36 90.39C46.37 90.37 46.38 90.35 46.4 90.34C46.41 90.32 46.42 90.3 46.43 90.28C46.44 90.27 46.45 90.25 46.46 90.23C46.47 90.21 46.48 90.2 46.49 90.18C46.5 90.16 46.51 90.14 46.52 90.12C46.53 90.11 46.54 90.09 46.55 90.07C46.56 90.05 46.57 90.04 46.58 90.02C46.59 90 46.6 89.98 46.61 89.97C46.62 89.95 46.64 89.93 46.64 89.91C46.65 89.89 46.66 89.88 46.67 89.86C46.68 89.84 46.69 89.82 46.7 89.8C46.71 89.79 46.72 89.77 46.73 89.75C46.74 89.73 46.75 89.71 46.76 89.7C46.77 89.68 46.78 89.66 46.79 89.64C46.8 89.62 46.81 89.6 46.82 89.59C46.83 89.57 46.84 89.55 46.85 89.53C46.85 89.51 46.86 89.5 46.87 89.48C46.88 89.46 46.89 89.44 46.9 89.42C46.91 89.4 46.92 89.38 46.93 89.37C46.94 89.35 46.95 89.33 46.95 89.31C46.96 89.29 46.97 89.27 46.98 89.26C46.99 89.24 47 89.22 47.01 89.2C47.01 89.18 47.02 89.16 47.03 89.14C47.04 89.12 47.05 89.11 47.06 89.09L47.06 89.09L43.4 89.02ZM38.99 81.46L35.79 85.12L34.32 84.47L29.55 90.6L29.97 90.6C29.97 90.6 32.94 86.81 34.42 84.9L35.88 85.54L38.94 82.04C40.63 84.93 42.46 87.7 44.12 90.6L44.54 90.6L38.99 81.46ZM38.93 82.56L35.96 85.97L34.5 85.37L30.4 90.6L30.85 90.6L34.61 85.79L36.05 86.38L38.88 83.14L43.33 90.62L43.77 90.61L38.93 82.56ZM31.29 90.59L34.72 86.22L36.19 86.82L38.86 83.75L42.87 90.6L31.29 90.59Z" />
</svg>
