<svg xmlns="http://www.w3.org/2000/svg" viewBox="0 0 74.33 74.32"><defs><style>.cls-1{fill:#f55;}.cls-2{fill:#214478;}.cls-3{fill:#ffe680;}</style></defs><title>openredis</title><g id="Layer_2" data-name="Layer 2"><g id="svg3118"><g id="g3781"><path id="path3783" class="cls-1" d="M38,16.14l-9.69,5.59-9.69,5.59V4.95l9.69,5.59Z"/><path id="path3785" class="cls-2" d="M16.17,37.94l5.59-9.69,5.59-9.69H5l5.59,9.69Z"/><path id="path3787" class="cls-3" d="M19.38,48.33V26L9.69,31.55,0,37.15l9.69,5.59Z"/><path id="path3789" class="cls-1" d="M27.36,55.73,21.76,46l-5.59-9.69L10.57,46,5,55.73H27.36Z"/><path id="path3791" class="cls-2" d="M38,58.15l-9.69-5.59L18.58,47V69.34l9.69-5.59Z"/><path id="path3793" class="cls-3" d="M48.36,54.94H26l5.59,9.69,5.59,9.69,5.59-9.69Z"/><path id="path3795" class="cls-1" d="M55.76,47l-9.69,5.59-9.69,5.59,9.69,5.59,9.69,5.59V47Z"/><path id="path3797" class="cls-2" d="M58.16,36.35,52.57,46,47,55.73H69.35L63.76,46Z"/><path id="path3799" class="cls-3" d="M55,26V48.33l9.69-5.59,9.69-5.59-9.69-5.59Z"/><path id="path3801" class="cls-1" d="M47,18.56l5.59,9.69,5.59,9.69,5.59-9.69,5.59-9.69H47Z"/><path id="path3803" class="cls-2" d="M55.76,27.33l-9.69-5.59-4.84-2.8V13.34l4.84-2.8,9.69-5.59V27.33Z"/><path id="path3805" class="cls-3" d="M37.17,0,31.54,9.66l-1.18,2.08,7.57,4.38-5.49,3.2H48.36L42.8,9.66Z"/></g></g></g></svg>