<svg xmlns="http://www.w3.org/2000/svg" width="22" height="20" viewBox="0 0 22 20">
  <metadata><?xpacket begin="﻿" id="W5M0MpCehiHzreSzNTczkc9d"?>
<x:xmpmeta xmlns:x="adobe:ns:meta/" x:xmptk="Adobe XMP Core 5.6-c138 79.159824, 2016/09/14-01:09:01        ">
   <rdf:RDF xmlns:rdf="http://www.w3.org/1999/02/22-rdf-syntax-ns#">
      <rdf:Description rdf:about=""/>
   </rdf:RDF>
</x:xmpmeta>
                                                                                                    
                                                                                                    
                                                                                                    
                                                                                                    
                                                                                                    
                                                                                                    
                                                                                                    
                                                                                                    
                                                                                                    
                                                                                                    
                                                                                                    
                                                                                                    
                                                                                                    
                                                                                                    
                                                                                                    
                                                                                                    
                                                                                                    
                                                                                                    
                                                                                                    
                                                                                                    
                           
<?xpacket end="w"?></metadata>
<defs>
    <style>
      .cls-1 {
        fill-rule: evenodd;
      }
    </style>
  </defs>
  <path class="cls-1" d="M343,3034.5a2.495,2.495,0,0,0-4.751-1.07,13.41,13.41,0,0,0-5.249-1.37V3028h3.277a2,2,0,1,0,0-2H333.03a2.031,2.031,0,0,0-2.03,2.03v4.03a13.41,13.41,0,0,0-5.249,1.37,2.495,2.495,0,1,0-3.365,3.3,4.369,4.369,0,0,0-.386,1.77c0,3.59,4.477,6.5,10,6.5s10-2.91,10-6.5a4.369,4.369,0,0,0-.386-1.77A2.492,2.492,0,0,0,343,3034.5Zm-15,4.5a2,2,0,1,1,2-2A2,2,0,0,1,328,3039Zm8,0a2,2,0,1,1,2-2A2,2,0,0,1,336,3039Z" transform="translate(-321 -3025)"/>
</svg>
