<svg xmlns="http://www.w3.org/2000/svg" width="108" height="15" viewBox="0 0 108 15">
  <metadata><?xpacket begin="﻿" id="W5M0MpCehiHzreSzNTczkc9d"?>
<x:xmpmeta xmlns:x="adobe:ns:meta/" x:xmptk="Adobe XMP Core 5.6-c138 79.159824, 2016/09/14-01:09:01        ">
   <rdf:RDF xmlns:rdf="http://www.w3.org/1999/02/22-rdf-syntax-ns#">
      <rdf:Description rdf:about=""/>
   </rdf:RDF>
</x:xmpmeta>
                                                                                                    
                                                                                                    
                                                                                                    
                                                                                                    
                                                                                                    
                                                                                                    
                                                                                                    
                                                                                                    
                                                                                                    
                                                                                                    
                                                                                                    
                                                                                                    
                                                                                                    
                                                                                                    
                                                                                                    
                                                                                                    
                                                                                                    
                                                                                                    
                                                                                                    
                                                                                                    
                           
<?xpacket end="w"?></metadata>
<defs>
    <style>
      .cls-1 {
        fill: #777;
        fill-rule: evenodd;
      }
    </style>
  </defs>
  <path class="cls-1" d="M940.536,640.955a5.247,5.247,0,0,1-4.14-1.412l1.585-1.6a3.51,3.51,0,0,0,2.592.922c0.839,0,1.716-.282,1.716-1.017a0.9,0.9,0,0,0-1.026-.9l-1.53-.146c-1.752-.167-2.833-0.938-2.833-2.749,0-2.028,1.771-3.126,3.744-3.126a5.134,5.134,0,0,1,3.709,1.149l-1.49,1.527a3.361,3.361,0,0,0-2.262-.655c-0.972,0-1.382.451-1.382,0.945,0,0.364.144,0.779,1.008,0.851l1.527,0.153c1.922,0.189,2.887,1.229,2.887,2.88,0,2.167-1.829,3.2-4.126,3.2Zm8.354-.113a2.647,2.647,0,0,1-2.816-2.8v-4.858h-1.026v-1.863h1.025v-2.9H948.5v2.9h1.716v1.863H948.5v4.707a0.765,0.765,0,0,0,.839.885h0.877v2.071H948.89Zm2.4-11.486v-2h2.481v2h-2.481Zm0.038,11.486v-9.81h2.425v9.81h-2.425Zm7.9,0.117c-1.94,0-4.345-1.055-4.345-5.025s2.4-5.01,4.345-5.01a4.1,4.1,0,0,1,3.207,1.323l-1.64,1.658a1.958,1.958,0,0,0-1.566-.771,1.685,1.685,0,0,0-1.38.64,3.4,3.4,0,0,0-.54,2.167,3.465,3.465,0,0,0,.54,2.189,1.681,1.681,0,0,0,1.382.64A1.964,1.964,0,0,0,960.8,638l1.642,1.636a4.137,4.137,0,0,1-3.2,1.338Zm9.895-.109-2.386-4.08-1.025,1.164v2.923h-2.427V627.44h2.427v7.606l3.227-4.012h2.926L968.4,634.99l3.731,5.861h-3Zm5.027-4.138a2.018,2.018,0,0,0,2.126,2.189,2.658,2.658,0,0,0,2.2-.924l1.469,1.455a4.63,4.63,0,0,1-3.694,1.548c-2.3,0-4.494-1.054-4.494-5.024,0-3.2,1.714-5.011,4.227-5.011,2.7,0,4.227,2,4.227,4.691v1.1h-6.07Zm3.468-2.727a1.8,1.8,0,0,0-3.244,0,2.757,2.757,0,0,0-.224,1.054h3.691A2.738,2.738,0,0,0,977.62,633.985Zm9.04-.262a1.622,1.622,0,0,0-2.856,1.229v5.912h-2.427v-9.832h2.369v0.942a3.264,3.264,0,0,1,2.442-1.055,2.905,2.905,0,0,1,2.29.924l-1.829,1.863Zm12.722-2.8a3.689,3.689,0,0,0-2.91,1.244,3,3,0,0,0-2.573-1.244,3.383,3.383,0,0,0-2.424,1.017v-0.9h-2.362v9.81h2.427v-5.931a1.622,1.622,0,1,1,3.226,0v5.931h2.427v-5.988a1.62,1.62,0,1,1,3.227.057v5.931h2.43v-6.27a3.7,3.7,0,0,0-1.07-2.787,3.357,3.357,0,0,0-2.383-.865h-0.015Zm10.538,6.044a1.623,1.623,0,1,1-3.23,0v-5.931h-2.42v6.27a3.671,3.671,0,0,0,.99,2.787,3.139,3.139,0,0,0,2.3.865,3.284,3.284,0,0,0,2.42-1.016v0.9h2.37v-9.81h-2.42v5.931h-0.01Zm6.39,0.924V627.435h-2.42v10.6a2.654,2.654,0,0,0,2.83,2.807h1.38v-2.073h-0.93a0.758,0.758,0,0,1-.86-0.883h0Zm10.69-2.281c0-2.693-1.53-4.688-4.23-4.688-2.52,0-4.24,1.808-4.24,5.009,0,3.977,2.2,5.032,4.5,5.032a4.612,4.612,0,0,0,3.69-1.542l-1.47-1.447a2.662,2.662,0,0,1-2.2.923,2.012,2.012,0,0,1-2.12-2.181H1027v-1.106Zm-6.08-.584a2.725,2.725,0,0,1,.23-1.054,1.8,1.8,0,0,1,3.24,0,2.718,2.718,0,0,1,.22,1.054h-3.69Zm-91.992,6.906a1.392,1.392,0,0,1-.528.058,0.852,0.852,0,0,1-.5-0.08,0.324,0.324,0,0,1-.072-0.211,1.044,1.044,0,0,1,.028-0.241,0.45,0.45,0,0,0,0-.269,1.009,1.009,0,0,0-.275-0.082,0.41,0.41,0,0,1-.136-0.291,0.926,0.926,0,0,1-.036-0.11,2.193,2.193,0,0,1,.086-0.664c0.047-.215.109-0.414,0.144-0.613a4.008,4.008,0,0,0,.05-0.949,1.825,1.825,0,0,1-.007-0.422c0.024-.127.077-0.232,0.1-0.358,0.009-.04,0-0.087.007-0.131a1.042,1.042,0,0,0,.029-0.1,2.874,2.874,0,0,0-.029-0.292,8.037,8.037,0,0,1,.023-0.919,0.245,0.245,0,0,0-.014-0.219,5.236,5.236,0,0,0-.825.088,7.734,7.734,0,0,1-2.34-.037c-0.067-.014-0.134-0.014-0.2-0.029a3.337,3.337,0,0,1-1.309-.613c-0.05-.043-0.115-0.09-0.18-0.138a1.01,1.01,0,0,0-.18-0.14,0.67,0.67,0,0,0-.77.2c-0.044.074-.08,0.169-0.123,0.256s-0.079.172-.115,0.255c-0.187.431-.4,0.843-0.583,1.277a6.575,6.575,0,0,0-.31.81,4.273,4.273,0,0,0,.122,1.956c0.015,0.051.044,0.1,0.058,0.16a1.042,1.042,0,0,0,.238.408c0.057,0.048.151,0.077,0.209,0.132a1.079,1.079,0,0,1,.194.313c0.029,0.048.065,0.1,0.094,0.16,0.072,0.126.1,0.24-.044,0.314a0.963,0.963,0,0,1-.41.08,0.352,0.352,0,0,0-.087.16,0.451,0.451,0,0,1-.172.08,1.287,1.287,0,0,1-.67,0,0.281,0.281,0,0,1-.18-0.145,0.871,0.871,0,0,0-.029-0.364,1.089,1.089,0,0,0-.187-0.065,0.483,0.483,0,0,1-.245-0.262,4.016,4.016,0,0,1-.058-1.112c0-.1-0.014-0.219-0.021-0.335-0.007-.211-0.058-0.422-0.08-0.633a1.849,1.849,0,0,0-.064-0.283c-0.029-.146-0.058-0.313-0.1-0.466a0.751,0.751,0,0,1,.007-0.472c0.014-.037.058-0.073,0.079-0.131a0.535,0.535,0,0,0,.043-0.255c-0.021-.036-0.122-0.007-0.151-0.051-0.057-.458-0.129-0.923-0.165-1.4-0.015-.16-0.015-0.327-0.029-0.494-0.029-.328-0.007-0.669-0.036-0.982-0.015-.153-0.051-0.3-0.072-0.451a4.65,4.65,0,0,1-.087-1.419,1.692,1.692,0,0,1,.317-0.723,4.836,4.836,0,0,1,.367-0.415,4.022,4.022,0,0,1,.425-0.356,2.083,2.083,0,0,1,.309-0.207,2.394,2.394,0,0,1,.893-0.225,4.491,4.491,0,0,1,1.042.044c0.317,0.058.631,0.109,0.941,0.174s0.6,0.146.889,0.218a0.792,0.792,0,0,1,.108.044c0.092,0.022.2,0.029,0.3,0.058a3.818,3.818,0,0,0,.949.109,4.059,4.059,0,0,0,.97-0.08c0.043-.014.072-0.036,0.122-0.051a1.08,1.08,0,0,1,.144-0.029c0.029-.014.058-0.043,0.094-0.058a3.58,3.58,0,0,0,.461-0.269,1.374,1.374,0,0,1,.374-0.218c0.072-.022.141-0.066,0.209-0.087a1.5,1.5,0,0,0,.427-0.168,4.153,4.153,0,0,0,.465-0.414c0.158-.138.317-0.269,0.475-0.4,0.339-.262.67-0.509,0.987-0.764a3.9,3.9,0,0,1,.525-0.356,2.807,2.807,0,0,1,1.261-.494,3.054,3.054,0,0,1,.634.007,0.6,0.6,0,0,0,.187.029,0.331,0.331,0,0,0,.137-0.167,2.618,2.618,0,0,0,.2-0.4c0.043-.1.022-0.211,0.13-0.2a0.452,0.452,0,0,1,.093.386,3.3,3.3,0,0,0,.008.385,0.21,0.21,0,0,0,.18.153,0.283,0.283,0,0,0,.151-0.08,0.842,0.842,0,0,0,.144-0.08,2.451,2.451,0,0,0,.274-0.262,0.52,0.52,0,0,1,.309-0.233c0.209,0.022,0,.335-0.043.429-0.108.24-.209,0.422-0.331,0.647a0.882,0.882,0,0,0-.166.313,0.588,0.588,0,0,0,.087.182c0.014,0.033.021,0.065,0.036,0.1a4.772,4.772,0,0,1,.18.589c0.05,0.164.086,0.334,0.151,0.494s0.144,0.306.2,0.463a1.3,1.3,0,0,1,.036.131c0.136,0.341.259,0.732,0.417,1.061a1.031,1.031,0,0,1,.151.5,0.816,0.816,0,0,1-.208.48,0.533,0.533,0,0,1-.2.24,0.776,0.776,0,0,1-.18.008c-0.079.014-.137,0.065-0.209,0.072a0.44,0.44,0,0,1-.425-0.276c-0.014-.051-0.007-0.116-0.021-0.175a0.822,0.822,0,0,0-.324-0.5,1.285,1.285,0,0,0-.317-0.243c-0.188-.1-0.389-0.156-0.584-0.262a0.386,0.386,0,0,0-.223-0.065,0.74,0.74,0,0,0-.288.3c-0.507.679-.958,1.376-1.458,2.043a10.283,10.283,0,0,0-.947,1.394,3.551,3.551,0,0,0-.158.422c-0.05.145-.079,0.305-0.13,0.465-0.194.553-.252,1.229-0.425,1.811a1.824,1.824,0,0,0-.043.2c-0.079.3-.165,0.633-0.252,0.953a3.69,3.69,0,0,0-.106.861,2.27,2.27,0,0,0,.079.884c0.058,0.095.253,0.131,0.33,0.233,0.05,0.069.086,0.206,0.136,0.3a0.679,0.679,0,0,1,.13.3,0.2,0.2,0,0,1-.122.153c-0.058.031-.152,0.014-0.209,0.043s-0.036.117-.1,0.16Z" transform="translate(-919 -627)"/>
</svg>
