<svg xmlns="http://www.w3.org/2000/svg" width="24" height="24" viewBox="0 0 24 24">
  <metadata><?xpacket begin="﻿" id="W5M0MpCehiHzreSzNTczkc9d"?>
<x:xmpmeta xmlns:x="adobe:ns:meta/" x:xmptk="Adobe XMP Core 5.6-c138 79.159824, 2016/09/14-01:09:01        ">
   <rdf:RDF xmlns:rdf="http://www.w3.org/1999/02/22-rdf-syntax-ns#">
      <rdf:Description rdf:about=""/>
   </rdf:RDF>
</x:xmpmeta>
                                                                                                    
                                                                                                    
                                                                                                    
                                                                                                    
                                                                                                    
                                                                                                    
                                                                                                    
                                                                                                    
                                                                                                    
                                                                                                    
                                                                                                    
                                                                                                    
                                                                                                    
                                                                                                    
                                                                                                    
                                                                                                    
                                                                                                    
                                                                                                    
                                                                                                    
                                                                                                    
                           
<?xpacket end="w"?></metadata>
<defs>
    <style>
      .cls-1 {
        fill: #777;
        fill-rule: evenodd;
      }
    </style>
  </defs>
  <path class="cls-1" d="M1287.75,125.459v0.59a12.8,12.8,0,0,1-12.67,12.935h-0.16a12.713,12.713,0,0,1-6.92-2,9.265,9.265,0,0,0,1.08,0,8.994,8.994,0,0,0,5.6-1.941,4.513,4.513,0,0,1-4.21-3.161,4.619,4.619,0,0,0,.85.08,4.537,4.537,0,0,0,1.19-.16,4.542,4.542,0,0,1-3.62-4.462v-0.03a4.488,4.488,0,0,0,2,.57,4.569,4.569,0,0,1-1.4-6.073,12.765,12.765,0,0,0,9.3,4.752,4.215,4.215,0,0,1-.12-1,4.51,4.51,0,0,1,7.81-3.112,9.059,9.059,0,0,0,2.87-1.1,4.569,4.569,0,0,1-2,2.521,8.989,8.989,0,0,0,2.65-.76A9.2,9.2,0,0,1,1287.75,125.459Z" transform="translate(-1267 -118)"/>
</svg>
