<?xml version="1.0" encoding="utf-8"?>
<!-- Generator: Adobe Illustrator 18.1.0, SVG Export Plug-In . SVG Version: 6.00 Build 0)  -->
<!DOCTYPE svg PUBLIC "-//W3C//DTD SVG 1.1//EN" "http://www.w3.org/Graphics/SVG/1.1/DTD/svg11.dtd">
<svg version="1.1" id="Layer_1" xmlns="http://www.w3.org/2000/svg" xmlns:xlink="http://www.w3.org/1999/xlink" x="0px" y="0px"
	 viewBox="0 0 150.2 63.8" enable-background="new 0 0 150.2 63.8" xml:space="preserve">
<g>
	<path d="M52.6,35.7v9.4h-3.8v-9.4h0c0-3.1-2.5-5.6-5.6-5.6c-3.1,0-5.6,2.5-5.6,5.6v1.9h-3.8v-1.9c0,0,0,0,0,0h0c0,0,0,0,0,0
		c0-3.1-2.5-5.6-5.6-5.6c-3.1,0-5.6,2.5-5.6,5.6v0v1.9h-3.8V18.8h3.8v9.4c1.6-1.2,3.5-1.9,5.6-1.9c3.1,0,5.8,1.5,7.5,3.8
		c1.7-2.3,4.4-3.8,7.5-3.8C48.3,26.3,52.6,30.5,52.6,35.7L52.6,35.7z M72.9,26.3v9.4v0.1v9.4h-3.8v-1.9c-1.6,1.2-3.5,1.9-5.6,1.9v0
		c-5.2,0-9.4-4.2-9.4-9.4c0-5.2,4.2-9.4,9.4-9.4v0c2.1,0,4.1,0.7,5.6,1.9v-1.9H72.9z M69.2,35.7c0-3.1-2.5-5.6-5.6-5.6
		c-3.1,0-5.6,2.5-5.6,5.6c0,3.1,2.5,5.6,5.6,5.6C66.7,41.3,69.2,38.8,69.2,35.7z M114.6,26.3v9.4v0.1v9.4h-3.8v-1.9
		c-1.6,1.2-3.5,1.9-5.6,1.9v0c-5.2,0-9.4-4.2-9.4-9.4c0-5.2,4.2-9.4,9.4-9.4v0c2.1,0,4.1,0.7,5.6,1.9v-1.9H114.6z M110.9,35.7
		c0-3.1-2.5-5.6-5.6-5.6c-3.1,0-5.6,2.5-5.6,5.6c0,3.1,2.5,5.6,5.6,5.6C108.4,41.3,110.9,38.8,110.9,35.7z M131.4,26.3
		c-5.2,0-9.4,4.2-9.4,9.4c0,3.1-2.5,5.6-5.6,5.6l0,3.8v0c5.2,0,9.4-4.2,9.4-9.4c0-3.1,2.5-5.6,5.6-5.6V26.3L131.4,26.3z M43.2,18.8
		L43.2,18.8L43.2,18.8c-1.5,0-2.9-0.6-3.9-1.6l-2.7,2.7c1.7,1.7,4,2.7,6.6,2.7v0h88.2v-3.7L43.2,18.8L43.2,18.8z M84.9,26.3
		L84.9,26.3c-2.1,0-4.1,0.7-5.6,1.9v-1.9h-3.8v11.3h3.8v-1.9c0-3.1,2.5-5.6,5.6-5.6c3.1,0,5.6,2.5,5.6,5.6v9.4h3.8v-9.4
		C94.2,30.5,90,26.3,84.9,26.3z"/>
</g>
</svg>
