<svg xmlns="http://www.w3.org/2000/svg" viewBox="0 0 253.1 275.9">
  <path d="m51.2 63.6.6 4.7c-2.8.9-6.3 1.3-10.6 1.3-5.2 0-8.8-1.3-10.9-4-2.1-2.7-3.2-7.3-3.2-13.8s1-11.2 3.2-13.8c2.1-2.7 5.7-4 10.9-4 3.8 0 7.1.4 9.9 1.1l-.6 4.8c-2.9-.2-6-.3-9.3-.3-2.9 0-4.8.9-5.9 2.6-1 1.8-1.6 5-1.6 9.7 0 4.7.5 8 1.6 9.7 1.1 1.8 3 2.6 5.9 2.6 4.2-.1 7.6-.3 10-.6zM83 69h-6.7l-2.8-10.7c-.6-2.1-2-3.1-4-3.1h-6.2V69h-6.2V34.5c3-.3 7.2-.4 12.6-.4 4.4 0 7.5.7 9.3 2.2 1.8 1.5 2.7 4.1 2.7 7.9 0 2.7-.5 4.7-1.5 6.1s-2.7 2.3-5 2.6v.3c1 .2 1.9.8 2.8 1.6.9.8 1.5 2 1.8 3.5L83 69zM63.4 50.1h6.2c2.2 0 3.8-.4 4.6-1.2.8-.8 1.2-2.2 1.2-4.3 0-2.1-.4-3.5-1.2-4.3-.8-.7-2.3-1.1-4.6-1.1h-6.2v10.9zm38.6 7.3V69h-6.3V57.3L84.4 34.5H91l6.3 13.4c.2.5.7 1.9 1.4 4.2h.4c.7-2.2 1.2-3.6 1.4-4.2l6.3-13.4h6.5L102 57.4zm27.6-2-7-2.2c-2.5-.8-4.3-2-5.3-3.6s-1.6-3.7-1.6-6.4c0-3.8.9-6.3 2.6-7.5 1.8-1.2 4.8-1.8 9.2-1.8 4.2 0 7.8.4 10.8 1.2l-.4 4.4c-3.8-.1-7.2-.2-10.3-.2-2.3 0-3.8.2-4.6.7-.8.5-1.2 1.5-1.2 3.3 0 1.4.3 2.4.8 3 .5.6 1.6 1.1 3 1.6l6.6 2.1c2.6.8 4.5 2.1 5.5 3.7 1.1 1.6 1.6 3.7 1.6 6.4 0 3.8-.9 6.4-2.7 7.7-1.8 1.3-5 2-9.5 2-3.8 0-7.5-.4-11.2-1.1l.4-4.6c5.8.1 9.5.2 10.9.2 2.3 0 3.8-.3 4.6-.8.8-.5 1.1-1.7 1.1-3.4 0-1.5-.3-2.5-.8-3.1-.1-.7-1.1-1.2-2.5-1.6zm40.8-15.5h-10.7V69h-6.3V39.9h-10.5v-5.3h27.5v5.3zm20.5 19.4h-12.8l-2.8 9.8h-6.4l10.3-32.8c.3-1.1 1.1-1.7 2.3-1.7h6.1c1.2 0 2 .6 2.3 1.7L200.1 69h-6.4l-2.8-9.7zm-1.5-5.2-3.5-11.9c-.5-1.8-.7-2.8-.8-2.9h-1.3l-.8 2.9-3.4 11.9h9.8zm21-19.6V61c0 1.1.2 1.8.7 2.2.4.4 1.2.6 2.3.6h12l.3 4.8c-3.3.3-7.8.4-13.7.4-5.2 0-7.8-2.4-7.8-7.2V34.5h6.2zm-13.8 156.8-50 49.9c-.2.2-.5.3-.7.2l-68.3-18.3c-.3-.1-.5-.3-.5-.5l-18.3-68.2c-.1-.3 0-.5.2-.7l50-49.9c.2-.2.5-.3.7-.2l68.3 18.3c.3.1.5.3.5.5l18.3 68.2c0 .2-.1.5-.2.7zm-67.1-54.4-67.1 17.9c-.1 0-.2.2-.1.3l49.1 49c.1.1.3.1.3-.1l18-67c.1 0-.1-.2-.2-.1z"/>
  <path d="M0 0h253.1v275.9H0z" style="fill:none"/>
</svg>
