<?xml version="1.0" encoding="utf-8"?>
<!-- Generator: Adobe Illustrator 21.0.0, SVG Export Plug-In . SVG Version: 6.00 Build 0)  -->
<svg version="1.1" id="Layer_1" xmlns="http://www.w3.org/2000/svg" xmlns:xlink="http://www.w3.org/1999/xlink" x="0px" y="0px"
	 viewBox="0 0 253.1 275.9" style="enable-background:new 0 0 253.1 275.9;" xml:space="preserve">
<style type="text/css">
	.st0{fill:none;}
</style>
<g>
	<path d="M51.2,63.6l0.6,4.7c-2.8,0.9-6.3,1.3-10.6,1.3c-5.2,0-8.8-1.3-10.9-4c-2.1-2.7-3.2-7.3-3.2-13.8s1-11.2,3.2-13.8
		c2.1-2.7,5.7-4,10.9-4c3.8,0,7.1,0.4,9.9,1.1l-0.6,4.8c-2.9-0.2-6-0.3-9.3-0.3c-2.9,0-4.8,0.9-5.9,2.6c-1,1.8-1.6,5-1.6,9.7
		c0,4.7,0.5,8,1.6,9.7c1.1,1.8,3,2.6,5.9,2.6C45.4,64.1,48.8,63.9,51.2,63.6z M83,69h-6.7l-2.8-10.7c-0.6-2.1-2-3.1-4-3.1l-6.2,0V69
		h-6.2V34.5c3-0.3,7.2-0.4,12.6-0.4c4.4,0,7.5,0.7,9.3,2.2c1.8,1.5,2.7,4.1,2.7,7.9c0,2.7-0.5,4.7-1.5,6.1s-2.7,2.3-5,2.6v0.3
		c1,0.2,1.9,0.8,2.8,1.6c0.9,0.8,1.5,2,1.8,3.5L83,69z M63.4,50.1h6.2c2.2,0,3.8-0.4,4.6-1.2c0.8-0.8,1.2-2.2,1.2-4.3
		c0-2.1-0.4-3.5-1.2-4.3c-0.8-0.7-2.3-1.1-4.6-1.1h-6.2V50.1z M102,57.4V69h-6.3V57.3L84.4,34.5H91l6.3,13.4
		c0.2,0.5,0.7,1.9,1.4,4.2h0.4c0.7-2.2,1.2-3.6,1.4-4.2l6.3-13.4h6.5L102,57.4z M129.6,55.4l-7-2.2c-2.5-0.8-4.3-2-5.3-3.6
		s-1.6-3.7-1.6-6.4c0-3.8,0.9-6.3,2.6-7.5c1.8-1.2,4.8-1.8,9.2-1.8c4.2,0,7.8,0.4,10.8,1.2l-0.4,4.4c-3.8-0.1-7.2-0.2-10.3-0.2
		c-2.3,0-3.8,0.2-4.6,0.7c-0.8,0.5-1.2,1.5-1.2,3.3c0,1.4,0.3,2.4,0.8,3c0.5,0.6,1.6,1.1,3,1.6l6.6,2.1c2.6,0.8,4.5,2.1,5.5,3.7
		c1.1,1.6,1.6,3.7,1.6,6.4c0,3.8-0.9,6.4-2.7,7.7c-1.8,1.3-5,2-9.5,2c-3.8,0-7.5-0.4-11.2-1.1l0.4-4.6c5.8,0.1,9.5,0.2,10.9,0.2
		c2.3,0,3.8-0.3,4.6-0.8c0.8-0.5,1.1-1.7,1.1-3.4c0-1.5-0.3-2.5-0.8-3.1C132,56.3,131,55.8,129.6,55.4z M170.4,39.9h-10.7V69h-6.3
		V39.9h-10.5v-5.3h27.5V39.9z M190.9,59.3h-12.8l-2.8,9.8h-6.4l10.3-32.8c0.3-1.1,1.1-1.7,2.3-1.7h6.1c1.2,0,2,0.6,2.3,1.7L200.1,69
		h-6.4L190.9,59.3z M189.4,54.1l-3.5-11.9c-0.5-1.8-0.7-2.8-0.8-2.9h-1.3l-0.8,2.9l-3.4,11.9H189.4z M210.4,34.5V61
		c0,1.1,0.2,1.8,0.7,2.2c0.4,0.4,1.2,0.6,2.3,0.6h12l0.3,4.8c-3.3,0.3-7.8,0.4-13.7,0.4c-5.2,0-7.8-2.4-7.8-7.2V34.5H210.4z
		 M196.6,191.3l-50,49.9c-0.2,0.2-0.5,0.3-0.7,0.2l-68.3-18.3c-0.3-0.1-0.5-0.3-0.5-0.5l-18.3-68.2c-0.1-0.3,0-0.5,0.2-0.7l50-49.9
		c0.2-0.2,0.5-0.3,0.7-0.2l68.3,18.3c0.3,0.1,0.5,0.3,0.5,0.5l18.3,68.2C196.8,190.8,196.7,191.1,196.6,191.3z M129.5,136.9
		l-67.1,17.9c-0.1,0-0.2,0.2-0.1,0.3l49.1,49c0.1,0.1,0.3,0.1,0.3-0.1l18-67C129.8,137,129.6,136.8,129.5,136.9z"/>
	<rect class="st0" width="253.1" height="275.9"/>
</g>
</svg>
