<svg xmlns="http://www.w3.org/2000/svg" viewBox="1154.22 0.13 921.72 849.75"><path d="M1198.3 1.5c-8.9 2-19.8 8-26.9 15-32.5 32.1-16.5 87.6 28.1 97 8.9 1.9 14.3 1.8 23-.1 3.9-.9 7.5-1.6 8.1-1.7 1.3-.2 14 14.1 26.8 30.1 12.5 15.8 32.4 38.7 82.1 94.2 22.3 25 41.8 47.4 43.1 49.7 5.3 8.8 6.4 18.9 7.4 65.3 1 45.4 2.1 64.2 4.6 77.3 2.4 12.5 9.3 32.3 18.2 52.2 4.5 10 8.9 21 9.8 24.5 4.5 17.7-.9 26.9-56.5 95.5-12.9 15.9-23.9 29.6-24.6 30.3-.9 1-2.3.9-7.5-.4-8.3-2.1-15.6-1.3-23.7 2.6-26.3 12.9-26.1 50.2.5 63.2 5.9 2.9 7.6 3.3 14.7 3.3 10.3-.1 18.3-3.5 25.1-10.7 6.7-7.1 9.6-14.2 9.8-23.8l.2-7.8 6.9-5.7c3.9-3.1 16.5-14.2 28.1-24.6 43.2-38.8 58.5-48.7 77.2-49.7 8-.4 8.6-.3 15.8 3.3 5.8 2.8 9.3 5.5 14.7 11.2 4 4.2 11.3 11.9 16.2 17.1 20.4 21.5 41 32.1 85 43.7 7.7 2.1 15.2 4.3 16.6 5 9.6 5 21.2 27 31.2 59.5 4.7 15.1 12.7 46.2 12.7 49.4 0 1-2.1 4.2-4.7 7-16.7 18.2-16.1 45.9 1.1 63.2 23.4 23.4 62.9 14.6 74.3-16.6 9.4-25.7-5.9-54-32.6-60.2l-4.9-1.1-3.6-11.1c-9.9-31.1-19-64.3-22-80.5-4.2-22.4 0-41.9 15.9-72.8 15.1-29.4 19.2-33.5 47.5-47.5 27.7-13.6 31.6-16.7 52.4-41.3 13-15.4 15.9-19.9 31.8-50.2 24-45.6 27.3-50.5 39-56.4 3.2-1.6 15.8-6.8 28.1-11.4 12.2-4.7 43.9-17.1 70.4-27.7l48.2-19.1 5.8 2.6c18.6 8.3 38.2 4.2 52.5-11 20.2-21.7 13.4-57.9-13.4-71.1-12.8-6.3-26.4-6.4-39.4-.3-13.3 6.2-22.2 18.1-25.3 33.7l-1.6 8.5-13.5 4.5c-26 8.5-106.6 34.3-120 38.4-26.6 7.9-39 8.8-48.9 3.5-5.9-3.3-10.3-8.2-22.3-24.8-13.7-19-20.4-27.1-30.2-36.5-11.3-10.7-20-16.6-37-24.8-15.7-7.5-24.1-10.3-44.7-14.8-8.6-1.9-19.5-5-24.1-7-15.8-6.5-41.3-22.5-56-35-12.7-10.8-37-40.5-42.7-52.1-4-8.1-13.6-33.8-14.9-40-2.6-12.1-2.5-13.1 1.4-18.2 21.5-28.1 3.5-69.3-31.8-72.9-28.6-2.9-53.6 24-48.9 52.4 3.2 18.9 17.4 33.7 36 37.5 3.4.7 6.7 2 7.2 2.8 3.1 4.8 12.4 43.7 13.5 56.5.8 9.7-.7 19.7-4.2 27.4-4.8 10.5-11.8 15.4-27.2 19.2-7.2 1.8-11.7 2.1-25.7 2.1-15.1 0-18.1-.3-26.7-2.6-16.3-4.3-34.7-14.1-54.3-29-14.2-10.8-51.6-41.9-61.5-51.1-15.9-15-32.7-31.6-41.1-40.8l-8-8.7 3.1-6c21.5-42.7-16.8-91.8-63.7-81.6zm26 28.4c5.7 2.7 11.1 8.2 13.9 14 3.1 6.3 3.2 17.6.2 24.1-2.7 5.7-8.7 11.7-14.4 14.4-6.5 3-17.8 2.9-24.1-.2-13.2-6.5-19.5-20.6-15.5-34.5 2.3-7.9 10-16.1 17.6-18.8 6.9-2.5 16-2 22.3 1zm279.2 17.2c8.1 2.3 15.5 12.4 15.5 21.4 0 11.9-10.6 22.5-22.5 22.5-6 0-11-2.2-15.6-6.9-9.1-9-9.3-21.6-.6-30.8 6.3-6.6 14.1-8.7 23.2-6.2zm540.3 235.6c2.8 1.7 5.9 4.8 7.7 7.7 2.6 4.3 3 5.9 3 12.1 0 6.2-.4 7.8-3 12.1-1.9 3-4.9 6-7.9 7.9-4.3 2.6-5.9 3-12.1 3-6.2 0-7.8-.4-12.1-3-3-1.9-6-4.9-7.9-7.9-2.6-4.3-3-5.9-3-12 0-5.9.4-7.9 2.8-11.8 6.7-11.4 21.3-15.1 32.5-8.1zm-444.1 3.7c23.8 5.2 41.8 15.1 59.6 32.6l10.7 10.7V284h50v240h-50v-45.7l-10.7 10.7c-11.5 11.3-19 16.8-31.8 23-17.2 8.4-31.2 11.5-51.5 11.5s-34.3-3.1-51.5-11.5c-12.8-6.3-20.3-11.7-31.6-22.9-11.4-11.4-16.9-18.8-23.1-31.2-8.9-17.9-12.2-32.4-12.2-53.9 0-16.5 1.3-25.6 5.9-39.1 3.1-8.9 9.1-20.9 14.6-29 5.2-7.7 18.4-21.6 25.9-27.4 15.8-12 35.3-20.3 55.5-23.5 8.4-1.3 31.6-.5 40.2 1.4zM1333 649.2c7.2 3.7 11.1 11.4 9.6 19.2-1.5 7.8-9.7 14.6-17.6 14.6-4.9 0-12-3.8-14.7-7.9-6.1-9.2-3.1-20.9 6.7-25.9 2.4-1.2 6-2.2 8-2.2s5.6 1 8 2.2zm373.7 132.7c9.3 4.7 13.8 12 13.8 22.6 0 10.4-4.5 17.8-13.9 22.8-5.7 3-16.5 3-22.1 0-21.1-11.1-18.3-39.9 4.5-47.4 4-1.3 13.3-.3 17.7 2z"/><path d="M1563.1 327.1c-24.7 4.4-45.5 20.6-56.5 44-5.6 11.7-7.1 18.7-7.1 32.9s1.5 21.2 7.1 32.9c4.6 9.8 11.1 18.7 18.1 25.1 28.4 25.4 70.5 26.5 99.6 2.4 8.8-7.2 14.8-14.9 20.2-25.9 6.4-12.9 8-19.6 8-34.5 0-8.7-.6-14.5-1.8-19-2.3-8.7-9.6-23.2-15.1-30.2-9.4-11.8-25.7-22.4-40.1-26.3-7.4-1.9-25.1-2.7-32.4-1.4z"/></svg>
