<svg xmlns="http://www.w3.org/2000/svg" width="24" height="24">
  <path d="M19.98 5.69c-1.68-1.34-4.08-1.71-5.12-1.82h-.04c-.16 0-.31.09-.36.24-.09.23.05.48.28.52 1.17.24 2.52.66 3.75 1.43.25.15.31.49.11.72-.16.18-.43.2-.64.08C15.56 5.38 12.58 5.3 12 5.3s-3.56.08-5.96 1.56c-.21.12-.48.1-.64-.08-.2-.23-.14-.57.11-.72 1.23-.77 2.58-1.19 3.75-1.43.23-.04.37-.29.28-.52-.05-.15-.2-.24-.36-.24h-.04c-1.04.11-3.44.48-5.12 1.82-.98.91-2.93 6.14-3.02 10.77 0 .31.08.62.26.87 1.17 1.65 3.71 2.64 5.63 2.78.29.02.57-.11.74-.35.01 0 .01-.01.02-.02a.899.899 0 0 0-.42-1.37c-1.6-.59-2.42-1.29-2.47-1.34a.488.488 0 0 1-.05-.68c.18-.2.48-.22.68-.04.03.02 2.25 1.91 6.61 1.91s6.58-1.89 6.61-1.91c.2-.18.5-.16.68.04.17.2.15.5-.05.68-.05.05-.87.75-2.47 1.34-.56.21-.77.89-.42 1.37.01.01.01.02.02.02.17.24.45.37.74.35 1.92-.14 4.46-1.13 5.63-2.78.18-.25.26-.56.26-.87-.09-4.63-2.04-9.86-3.02-10.77zM8.89 14.87c-.92 0-1.67-.86-1.67-1.91 0-1.06.75-1.92 1.67-1.92.93 0 1.67.86 1.67 1.92 0 1.05-.74 1.91-1.67 1.91zm6.22 0c-.93 0-1.67-.86-1.67-1.91 0-1.06.74-1.92 1.67-1.92.92 0 1.67.86 1.67 1.92 0 1.05-.75 1.91-1.67 1.91z"/>
</svg>
