<svg xmlns="http://www.w3.org/2000/svg" viewBox="0 0 24.13 23.03">
<path d="M12.11 0C5.61-.19.21 4.91 0 11.41c-.2 5.3 3.2 10 8.3 11.6.3.1.7-.1.8-.4v-2.2c-3.3.7-4-1.6-4-1.6-.2-.7-.7-1.3-1.3-1.7-1.1-.7.1-.7.1-.7.8.1 1.4.6 1.8 1.2.7 1.2 2.2 1.6 3.4 1 .1-.6.3-1.2.8-1.6-2.7-.3-5.5-1.3-5.5-5.8 0-1.2.4-2.3 1.2-3.2-.4-1-.3-2.1.1-3.1 0 0 1-.3 3.3 1.2 2-.5 4-.5 6 0 2.3-1.5 3.3-1.2 3.3-1.2.4 1 .5 2.1.1 3.1.8.9 1.2 2 1.2 3.2 0 4.5-2.8 5.5-5.5 5.8.6.6.9 1.4.8 2.2v3.2c0 .3.3.6.6.6h.3c6.2-1.9 9.7-8.5 7.8-14.7-1.49-5.1-6.19-8.5-11.49-8.31Z"/>
</svg>
