<svg xmlns="http://www.w3.org/2000/svg" width="24" height="24" viewBox="-0.02 -0.02 118.5 91.27">
  <path d="m80.75-117.8-.019.003a61.108 61.108 0 0 0-1.633.344l-.325.074a59.046 59.046 0 0 0-2.588.658 61.438 61.438 0 0 0-1.6.47 58.774 58.774 0 0 0-4.405 1.55 55.447 55.447 0 0 0-.501.201l17.04 56.44 2.62-3.067zm22.65-.063-6.202 47.55 5.02-5.874.997 1.598 11.13-40.09a53.582 53.582 0 0 0-1.834-.695 58.77 58.77 0 0 0-5.742-1.748 52.747 52.747 0 0 0-1.298-.31 52.735 52.735 0 0 0-1.306-.28 61.131 61.131 0 0 0-.654-.13zm-53.41 16.47a53.412 53.412 0 0 0-1.567 1.637 67.048 67.048 0 0 0-.888.987 61.177 61.177 0 0 0-2.324 2.813 55.865 55.865 0 0 0-1.192 1.593 53.852 53.852 0 0 0-1.137 1.632l-.184.275-.01.017 32.53 35.55 2.461-3.203.114.05zm83.83-.656L109.76-64.1l2.738 4.389 29.12-32.98a61.725 61.725 0 0 0-.725-1.058 52.015 52.015 0 0 0-.774-1.077 58.893 58.893 0 0 0-4.681-5.592 57.553 57.553 0 0 0-1.617-1.639zM34.07-71.48a57.73 57.73 0 0 0-.45 2.6 58.02 58.02 0 0 0-.62 7.235 60.646 60.646 0 0 0-.016 1.558l34.66 13.04 2.7-3.512zm116.5 1.015-33.02 18.86 2.591 4.152 31.3-11.4.004-.17.007-.33c.002-.11.004-.22.004-.33l.003-.33c0-.11.002-.22.001-.33v-.33l-.004-.331-.003-.21-.006-.33c-.002-.11-.004-.22-.008-.33l-.01-.33-.011-.33-.013-.33-.016-.33-.017-.33-.019-.33-.02-.33a52.024 52.024 0 0 0-.048-.659l-.026-.329-.029-.329c-.009-.11-.02-.219-.03-.329-.01-.11-.021-.219-.033-.328-.01-.11-.022-.22-.033-.329a52.237 52.237 0 0 0-.114-.984 50.511 50.511 0 0 0-.226-1.636 59.857 59.857 0 0 0-.215-1.304l-.01-.053zm-112.8 33.2a52.743 52.743 0 0 0 .522 1.17 56.048 56.048 0 0 0 2.1 4.13 59.04 59.04 0 0 0 2.238 3.676 56.369 56.369 0 0 0 1.124 1.64l.014.02 10.18-2.259.202-.265-.241.001 6.319-8.223zm88.93.314 4.904 8.144 9.146 2.064.068-.096a51.292 51.292 0 0 0 .567-.817 66.106 66.106 0 0 0 .912-1.384 56.728 56.728 0 0 0 1.21-1.978 62.04 62.04 0 0 0 .974-1.732 52.576 52.576 0 0 0 .766-1.467 61.926 61.926 0 0 0 1.137-2.39l.002-.003z" style="paint-order:markers fill stroke" transform="translate(-32.984 117.86)"/>
  <path d="m69.945 40.2-17.25 19.7-7.897-3.488-25.66 32.99 2.235.002s15.98-20.43 24-30.71l7.82 3.455 16.48-18.83c9.126 15.53 18.97 30.48 27.93 46.1l2.226-.013z"/>
  <path d="m69.645 46.09-16.02 18.37-7.826-3.25-22.13 28.18 2.445.015 20.28-25.94 7.76 3.22 15.22-17.45 23.94 40.24 2.37-.045z"/>
  <path d="m28.485 89.37 18.48-23.56 7.918 3.219 14.38-16.52 21.59 36.89z"/>
</svg>
