<svg xmlns="http://www.w3.org/2000/svg" width="24" height="24" viewbox="0 0 24 24">
  <path d="M4 4a1 1 0 0 0-1 1v14a1 1 0 0 0 1 1h1a1 1 0 1 0 0-2V6a1 1 0 1 0 0-2H4zm15 0a1 1 0 1 0 0 2v12a1 1 0 1 0 0 2h1a1 1 0 0 0 1-1V5a1 1 0 0 0-1-1h-1zm-4.25 4.426c-.499-.01-1 .113-1.404.39-.26.178-.484.406-.74.625-.392-.777-1.1-.984-1.907-.998-.817-.013-1.45.358-2.017 1.036a.838.838 0 0 0-.838-.838h-.006A.838.838 0 0 0 7 9.479v4.615a.895.895 0 0 0 1.787 0c0-.8.001-1.95.004-2.66.001-.222.01-.45.06-.664.146-.627.865-1.03 1.495-.9.485.1.708.434.734 1.081.004.087.007 1.983.008 3.145 0 .493.4.89.894.89h.022a.893.893 0 0 0 .894-.892c0-.815 0-1.987.006-2.63a3.5 3.5 0 0 1 .094-.81c.148-.588.627-.875 1.275-.804.572.063.857.379.899 1v3.257c0 .494.4.895.894.895h.024a.89.89 0 0 0 .892-.887c.004-1.039.01-2.735-.01-3.715a2.2 2.2 0 0 0-.238-.904c-.332-.667-1.153-1.053-1.984-1.07z"/>
</svg>
