<svg xmlns="http://www.w3.org/2000/svg" viewBox="0 0 24 24">
<path d="M 4 4 A 1.0001 1.0001 0 0 0 3 5 L 3 19 A 1.0001 1.0001 0 0 0 4 20 L 5 20 A 1.0001 1.0001 0 1 0 5 18 L 5 6 A 1.0001 1.0001 0 1 0 5 4 L 4 4 z M 19 4 A 1.0001 1.0001 0 1 0 19 6 L 19 18 A 1.0001 1.0001 0 1 0 19 20 L 20 20 A 1.0001 1.0001 0 0 0 21 19 L 21 5 A 1.0001 1.0001 0 0 0 20 4 L 19 4 z M 14.75 8.4257812 C 14.251291 8.4157148 13.749578 8.5392813 13.345703 8.8164062 C 13.085703 8.9944063 12.862469 9.2224063 12.605469 9.4414062 C 12.214469 8.6644063 11.506219 8.4573594 10.699219 8.4433594 C 9.8822187 8.4303594 9.2496406 8.8005156 8.6816406 9.4785156 C 8.6816406 9.0155156 8.30675 8.640625 7.84375 8.640625 L 7.8378906 8.640625 C 7.3748906 8.640625 7 9.0155156 7 9.4785156 L 7 14.09375 C 7 14.58775 7.4005312 14.988281 7.8945312 14.988281 C 8.3885312 14.988281 8.7871094 14.58775 8.7871094 14.09375 C 8.7871094 13.29475 8.7880156 12.144594 8.7910156 11.433594 C 8.7920156 11.211594 8.8015625 10.984531 8.8515625 10.769531 C 8.9965625 10.142531 9.7157031 9.7391406 10.345703 9.8691406 C 10.830703 9.9691406 11.054078 10.304172 11.080078 10.951172 C 11.084078 11.038172 11.086891 12.933703 11.087891 14.095703 C 11.087891 14.588703 11.488422 14.986328 11.982422 14.986328 L 12.003906 14.986328 C 12.497906 14.986328 12.898437 14.58775 12.898438 14.09375 C 12.897438 13.27875 12.898297 12.106844 12.904297 11.464844 C 12.907297 11.193844 12.932047 10.916297 12.998047 10.654297 C 13.146047 10.066297 13.625437 9.7786094 14.273438 9.8496094 C 14.845437 9.9126094 15.129875 10.228609 15.171875 10.849609 L 15.171875 14.107422 C 15.171875 14.601422 15.572406 15.001953 16.066406 15.001953 L 16.089844 15.001953 C 16.581844 15.001953 16.979422 14.606234 16.982422 14.115234 C 16.986422 13.076234 16.992656 11.380391 16.972656 10.400391 C 16.966656 10.096391 16.871375 9.7710938 16.734375 9.4960938 C 16.401875 8.8292187 15.581182 8.4425586 14.75 8.4257812 z"></path>
</svg>
