<svg xmlns="http://www.w3.org/2000/svg" width="24" height="24" viewBox="0 0 30 30">
  <path d="M17.662 2C15.565 2 14 3.713 14 5.662v3.373c-2.75.146-5.266.88-7.273 2.03-.774-.744-1.81-1.074-2.815-1.073-1.09.001-2.203.378-2.97 1.242l-.018.02-.018.02c-.737.92-1.028 2.154-.832 3.378a4.4 4.4 0 0 0 1.953 2.977C2.02 17.753 2 17.875 2 18c0 4.962 5.832 9 13 9s13-4.038 13-9c0-.125-.02-.247-.027-.371a4.4 4.4 0 0 0 1.953-2.977c.196-1.224-.095-2.458-.832-3.379l-.018-.02-.017-.019c-.769-.864-1.882-1.241-2.971-1.242-1.005 0-2.041.33-2.815 1.072C21.266 9.914 18.75 9.181 16 9.035V5.662C16 4.683 16.565 4 17.662 4c.52 0 1.155.26 2.149.61.84.294 1.932.592 3.33.681A2.501 2.501 0 0 0 25.5 7C26.875 7 28 5.875 28 4.5S26.875 2 25.5 2a2.5 2.5 0 0 0-2.18 1.3 9.836 9.836 0 0 1-2.847-.577C19.569 2.406 18.738 2 17.663 2zm-13.75 9.992c.395 0 .77.104 1.08.272-1.104.921-1.941 1.998-2.447 3.174a2.31 2.31 0 0 1-.494-1.102c-.108-.672.093-1.37.412-1.783.301-.325.851-.56 1.45-.56zm22.174 0c.598 0 1.15.236 1.451.56.319.414.52 1.112.412 1.784a2.31 2.31 0 0 1-.494 1.101c-.506-1.175-1.343-2.252-2.447-3.173a2.27 2.27 0 0 1 1.078-.272zM10 14a2 2 0 1 1 .001 3.999A2 2 0 0 1 10 14zm10 0a2 2 0 1 1 .001 3.999A2 2 0 0 1 20 14zm.238 5.533C19.6 21.4 17.556 23 15 23c-2.556 0-4.6-1.599-5.238-3.332 1.15.933 3.066 1.6 5.238 1.6 2.172 0 4.088-.668 5.238-1.735z"/>
</svg>
