<svg xmlns="http://www.w3.org/2000/svg" width="24" height="24" viewBox="0 0 48 48">
  <path d="M29.164 5.01a1.5 1.5 0 0 0-1.201 2.44l10.465 13.396a1.5 1.5 0 0 0 2.365-1.848L30.326 5.602a1.5 1.5 0 0 0-1.162-.592zm-5.777 5.636a1.5 1.5 0 0 0-.92 2.678l13.213 10.7a1.5 1.5 0 1 0 1.886-2.333l-13.21-10.697a1.5 1.5 0 0 0-.97-.348zm-4.362 6.784a1.5 1.5 0 0 0-.59 2.857l15.28 7.451a1.5 1.5 0 1 0 1.314-2.697L19.75 17.59a1.5 1.5 0 0 0-.725-.16zm-2.574 7.58a1.5 1.5 0 0 0-.379 2.965l16.565 3.824a1.5 1.5 0 1 0 .674-2.922l-16.563-3.824a1.5 1.5 0 0 0-.297-.043zm-8.48 3.963A2 2 0 0 0 6 31v9c0 2.185 1.815 4 4 4h28c2.185 0 4-1.815 4-4v-9a2 2 0 1 0-4 0v9H10v-9a2 2 0 0 0-2.03-2.027zM15.5 33a1.5 1.5 0 1 0 0 3h17a1.5 1.5 0 1 0 0-3h-17z"/>
</svg>
