<svg xmlns="http://www.w3.org/2000/svg" viewBox="0 0 480 420">
<path d="m414.3 245.6.7-53.9 42.6-48.1-28.8-88.3-89.9-6.6-42.7 58.4 8.5 25.8-282.3 14.6 154.1 75.3h65.7l-68.6 42.3 67.2 10.7 13.3 26.3 7.1 16.3 22.9 10.6 23.5 41.4h10.6l-23.9-45.3 4-22.7 15.7.2 7.2 16.7 22.9 10.6 23.6 41.4h10.6l-24-45.3 4.1-23z"/>
<linearGradient id="a" x1="373.234" x2="348.351" y1="59.727" y2="139.393">
	<stop stop-color="#767575"/>
	<stop stop-color="#323232"/>
</linearGradient>
<path d="m338.9 48.7-27.7 88.8 86.5-35z" fill="url(#a)"/>
<path d="m397.7 102.5 31.1-47.2 28.8 88.3z" fill="#121212"/>
<path d="m425.2 148-30.3-20.5v51.9z" fill="#646565"/>
<path d="M394.9 179.4 353.6 144l41.3-16.5z" fill="#bbb"/>
<linearGradient id="b" x1="22.395" x2="304.737" y1="143.166" y2="143.166">
	<stop stop-color="#393939"/>
	<stop stop-color="#323232"/>
</linearGradient>
<path d="m304.7 132.9-28.6 20.5-253.7-5.9z" fill="url(#b)"/>
<linearGradient id="c" x1="173.646" x2="257.683" y1="243.948" y2="243.948">
	<stop stop-color="#393939"/>
	<stop stop-color="#323232"/>
</linearGradient>
<path d="m242.2 222.8 15.5 1.6-84.1 40.7z" fill="url(#c)"/>
<path d="m428.8 55.3-31.1 47.2-58.8-53.8zM296.2 107.1l15 30.4 27.7-88.8z" fill="#242424" />
</svg>
