<?xml version="1.0" encoding="utf-8"?>
<!-- Generator: Adobe Illustrator 26.5.0, SVG Export Plug-In . SVG Version: 6.00 Build 0)  -->
<svg version="1.1" id="Layer_1" xmlns="http://www.w3.org/2000/svg" xmlns:xlink="http://www.w3.org/1999/xlink" x="0px" y="0px"
	 viewBox="0 0 32 32" style="enable-background:new 0 0 32 32;" xml:space="preserve">
<style type="text/css">
	.st0{fill:none;stroke:#000000;stroke-width:2;stroke-miterlimit:10;}
	.st1{fill:#231F20;}
</style>
<circle class="st0" cx="16" cy="16" r="14.9"/>
<path class="st1" d="M25,23.5h-2v-5.1c0-1.7-1.3-3-3-3s-3,1.3-3,3v1h-2v-1c0-1.7-1.3-3-3-3s-3,1.3-3,3v1H7v-10h2v4.9
	c2.2-1.7,5.3-1.2,7,1c1.7-2.2,4.8-2.7,7-1c1.3,0.9,2,2.4,2,4V23.5z"/>
<path class="st1" d="M23,14.3c-2.2-1.7-5.3-1.2-7,1c-1.7-2.2-4.8-2.7-7-1V9.4H7v10h2v-1c0-1.7,1.3-3,3-3s3,1.3,3,3v1h2v-1
	c0-1.7,1.3-3,3-3s3,1.3,3,3v5.1h2v-5.1C25,16.8,24.3,15.3,23,14.3z"/>
<path class="st1" d="M17.9,8.6L16.5,10c0.9,1,2.2,1.5,3.5,1.5h5v-2h-5C19.2,9.5,18.4,9.2,17.9,8.6z"/>
</svg>
