<?xml version="1.0" encoding="utf-8"?>
<!-- Generator: Adobe Illustrator 21.0.2, SVG Export Plug-In . SVG Version: 6.00 Build 0)  -->
<svg version="1.1" id="svg3118" xmlns="http://www.w3.org/2000/svg" xmlns:xlink="http://www.w3.org/1999/xlink" x="0px" y="0px"
	 viewBox="0 0 64 64" style="enable-background:new 0 0 64 64;" xml:space="preserve">
<title>manas</title>
<path d="M32,0C14.3,0,0,14.3,0,32s14.3,32,32,32s32-14.3,32-32S49.7,0,32,0z M50,47h-4V36.9c0-3.3-2.7-6-6-6s-6,2.7-6,6l0,0V39h-4
	v-2.1c0-3.3-2.7-6-6-6s-6,2.7-6,6l0,0V39h-4V19h4v9.8c4.3-3.3,10.6-2.5,13.9,1.9c0,0,0.1,0.1,0.1,0.1c3.3-4.4,9.6-5.3,14-2
	c2.5,1.9,4,4.9,4,8V47z M50,23h-9.9c-2.7,0-5.2-1.1-7-3.1l2.8-2.8c1.1,1.2,2.6,1.8,4.2,1.8h10L50,23z"/>
</svg>
