<?xml version="1.0" encoding="UTF-8"?><svg id="Camada_2" xmlns="http://www.w3.org/2000/svg" viewBox="0 0 178.4 186.8"><defs><style>.cls-1{fill:#f251ae;}</style></defs><g id="layer"><path class="cls-1" d="M147.4,121.9v16.2h-15.5v-16.2h-38.8l8.7-65h15.5l-6.8,48.8h21.4v-40.6h15.5v40.6h7.7v16.2h-7.7Zm-82.5-12.8c-.7-1.5-1.7-2.8-2.9-3.9-2.6-2.4-6.1-3.7-9.6-3.6-3.5,0-7,1.3-9.6,3.6-1.2,1.1-2.2,2.4-2.9,3.9-.7,1.5-1.1,3.1-1.1,4.9,0,1.7,.3,3.3,1.1,4.8,.7,1.4,1.7,2.7,2.9,3.8,1.2,1.1,2.7,1.9,4.3,2.5,1.6,.6,3.4,.9,5.3,.9s3.6-.3,5.3-.9c1.7-.6,3.1-1.4,4.3-2.5,1.2-1.1,2.2-2.3,2.9-3.8s1.1-3.1,1.1-4.8c-.1-1.7-.4-3.3-1.1-4.9Zm.3-35c-.5-1-1.2-1.9-2.1-2.6-.9-.8-2-1.4-3.1-1.8-1.2-.4-2.5-.6-3.8-.6s-2.6,.2-3.8,.6c-1.1,.4-2.2,1-3.1,1.8-.9,.7-1.6,1.6-2.1,2.6s-.8,2.1-.8,3.2,.3,2.2,.8,3.2,1.2,1.8,2.1,2.5,1.9,1.3,3.1,1.7c1.2,.4,2.5,.6,3.8,.6,2.5,0,4.9-.8,6.8-2.3,.9-.7,1.6-1.6,2.1-2.5,.5-1,.8-2.1,.8-3.2,0-1.1-.2-2.2-.7-3.2h0Zm17.7,48.9c-1.6,3.1-3.8,5.7-6.7,8-2.8,2.2-6.1,4-9.9,5.2-3.9,1.3-8,1.9-12,1.9s-8.2-.6-12.1-1.9c-3.6-1.2-6.9-2.9-9.9-5.2-2.8-2.2-5-4.9-6.7-8-1.6-3.1-2.4-6.4-2.4-10.1,0-4.2,1.1-8.2,3.2-11.8,1.1-1.8,2.3-3.4,3.8-4.9s3.1-2.7,5-3.8c-1.2-1-2.2-2.2-3.1-3.5s-1.7-2.7-2.3-4.2c-1.3-2.9-1.9-6-2-9.2,0-3.2,.7-6.1,2.1-8.9s3.3-5.2,5.7-7.3c2.5-2.1,5.3-3.8,8.4-4.9,3.3-1.2,6.7-1.8,10.2-1.8s7.1,.6,10.3,1.8,6,2.8,8.4,4.9c2.4,2.1,4.3,4.5,5.7,7.3s2.1,5.7,2.1,8.9c0,1.5-.2,3.1-.5,4.6-.4,1.6-.8,3.1-1.5,4.6-.6,1.5-1.4,2.9-2.3,4.2-.9,1.3-1.9,2.5-3.1,3.5,3.6,2.1,6.6,5,8.7,8.6,2.1,3.6,3.2,7.6,3.2,11.8,.1,3.8-.7,7.2-2.3,10.2h0Zm95.5-29.6C178.4,41.8,138.5,0,89.2,0S0,41.8,0,93.4s39.9,93.4,89.2,93.4,89.2-41.8,89.2-93.4Z"/></g></svg>