<svg xmlns="http://www.w3.org/2000/svg" viewBox="169.3 37.92 35.37 35.28">
  <path fill="#f251ae" fill-rule="evenodd" d="M186.979 73.188c9.762 0 17.676-7.896 17.676-17.636 0-9.74-7.914-17.635-17.676-17.635-9.762 0-17.676 7.895-17.676 17.635 0 9.74 7.914 17.636 17.676 17.636Zm-.982-12.39a3.89 3.89 0 0 0 .463-1.876 4.17 4.17 0 0 0-.158-1.143 4.355 4.355 0 0 0-1.166-1.95 4.608 4.608 0 0 0-.935-.702 3.77 3.77 0 0 0 .578-.66 4.293 4.293 0 0 0 .714-1.626c.07-.293.105-.583.105-.87 0-.586-.133-1.135-.399-1.645a4.185 4.185 0 0 0-1.082-1.353 5.144 5.144 0 0 0-1.598-.922 5.621 5.621 0 0 0-1.954-.336c-.686 0-1.334.112-1.944.336a5.14 5.14 0 0 0-1.597.922 4.38 4.38 0 0 0-1.082 1.353 3.585 3.585 0 0 0-.389 1.645c0 .287.032.577.095.87.063.287.154.567.273.84.126.272.273.53.441.775.175.245.371.461.589.65a4.282 4.282 0 0 0-.946.713c-.28.273-.522.573-.725.901a4.314 4.314 0 0 0-.452 1.06 4.17 4.17 0 0 0-.158 1.142 3.9 3.9 0 0 0 .463 1.876 4.73 4.73 0 0 0 1.261 1.489 6.198 6.198 0 0 0 1.88.964 7.214 7.214 0 0 0 2.291.357c.813 0 1.576-.119 2.291-.357a6.062 6.062 0 0 0 1.87-.964c.539-.42.963-.916 1.271-1.489Zm-3.52-9.183c.112.21.169.437.169.681 0 .245-.057.472-.169.682a1.65 1.65 0 0 1-.441.545 2.1 2.1 0 0 1-.651.367c-.253.09-.519.136-.799.136-.287 0-.557-.045-.809-.136a2.244 2.244 0 0 1-.662-.367 1.847 1.847 0 0 1-.441-.545 1.501 1.501 0 0 1-.158-.681 1.5 1.5 0 0 1 .158-.682c.112-.217.259-.405.441-.566.189-.16.41-.286.662-.377a2.37 2.37 0 0 1 .809-.137c.28 0 .546.046.799.137.252.09.469.216.651.377.189.16.336.35.441.566Zm.757 6.29c.154.287.231.598.231.933 0 .335-.077.643-.231.922-.147.28-.354.521-.62.724a3.037 3.037 0 0 1-.925.482c-.35.112-.725.168-1.124.168-.399 0-.774-.056-1.124-.168a3.223 3.223 0 0 1-.925-.482 2.357 2.357 0 0 1-.62-.724 1.95 1.95 0 0 1-.22-.922c0-.335.073-.646.22-.933a2.51 2.51 0 0 1 .62-.765c.266-.217.575-.388.925-.514a3.3 3.3 0 0 1 1.124-.189 3.3 3.3 0 0 1 1.124.19c.358.125.666.296.925.513.266.216.473.472.62.765Zm14.721 2.306h1.503v-2.998h-1.503v-7.516h-3.016v7.516h-4.15l1.313-9.026h-3.015l-1.681 12.024h7.533v3.009h3.016v-3.01Z"/>
</svg>
