<?xml version="1.0" encoding="UTF-8"?><svg id="Camada_2" xmlns="http://www.w3.org/2000/svg" viewBox="0 0 329 329"><defs><style>.cls-1{fill:#fff;}.cls-2{fill:#00a4e6;}</style></defs><g id="Camada_1-2"><g id="Layer-1"><rect class="cls-2" width="329" height="329"/><path class="cls-1" d="M28.71,129.82c-.91-32.84,20.02-66.65,51.99-76.67,9.75-3.23,20.38-2.77,30.08,.4,8.16-13.69,22.93-23.5,39.06-23.98,14.76-.92,29.08,6.36,38.18,17.8-28.59,12.39-53.79,33.04-70.24,59.64-21.63,34.69-27.84,78.82-15.63,117.95-10.74,1.94-22.34,.1-31.11-6.65-13.37-9.47-19.23-27.01-16.14-42.85-16.67-8.65-25.73-27.37-26.19-45.64"/><path class="cls-1" d="M235.53,58.15c-1.34-4.59-2.68-9.15-4.07-13.71-6.35,.79-12.67,1.77-18.95,2.94-51.46,11.5-95.05,54.03-106.18,105.82-6.81,31.04-3.34,64.98,13.39,92.43,17.63,29.22,49.3,48.36,82.73,53.41,12.5,1.54,25.05-.9,37.01-4.43-22.29-1.89-44.57-9.14-62.03-23.47-16.46-13.02-28.83-32.03-31.24-53.15-2.84-26.55,4.54-54.46,21.78-75.07,19.9-24.13,49.58-38.23,79.74-44.45-2.06-6.52-4.03-13.06-5.99-19.63-3.64,.55-7.26,1.14-10.9,1.67-2.03-6.89-4.09-13.76-6.2-20.61,3.62-.6,7.26-1.15,10.9-1.76"/><path class="cls-1" d="M239.72,43.7c5.97-.23,11.92-.35,17.89-.58,1.66,3.89,3.29,7.79,4.9,11.7-6.38,.44-12.77,.75-19.14,1.03-1.26-4.05-2.47-8.09-3.64-12.15"/><path class="cls-1" d="M265.83,44.75c5.19,.33,10.38,.64,15.57,.94,1.31,3.08,2.62,6.15,3.95,9.22-5.41-.33-10.8-.6-16.2-.77-1.12-3.12-2.24-6.26-3.32-9.39"/><path class="cls-1" d="M229.92,61.47c6.92-.69,13.85-1.4,20.78-2.05,1.54,5.3,3.12,10.59,4.71,15.87-6.81,.59-13.56,1.66-20.41,1.97-2.33-5.03-3.44-10.51-5.08-15.78"/><path class="cls-1" d="M260.97,73.11c-1.34-4.3-2.66-8.63-3.98-12.95,5.93-.17,11.88-.39,17.82-.61,1.38,4.1,2.76,8.21,4.16,12.3-6,.44-12,.92-17.99,1.25"/><path class="cls-1" d="M281.74,60.64c5.07,.28,10.16,.6,15.23,.88,1.07,3.11,2.2,6.2,3.34,9.29-4.77-.2-9.54-.36-14.3-.46-1.45-3.22-2.89-6.47-4.27-9.71"/><path class="cls-1" d="M253,80.03c7.13-.33,14.26-1.42,21.4-.78,1.77,4.73,3.02,9.65,4.49,14.49-7.18,.54-14.38,.96-21.58,1.52-1.45-5.07-2.9-10.15-4.31-15.24"/></g></g></svg>