<svg fill="none" height="112" viewBox="0 0 300 112" width="300" xmlns="http://www.w3.org/2000/svg" xmlns:xlink="http://www.w3.org/1999/xlink"><filter id="a" color-interpolation-filters="sRGB" filterUnits="userSpaceOnUse" height="15.8716" width="27.0264" x="10.4209" y="43.4741"><feFlood flood-opacity="0" result="BackgroundImageFix"/><feBlend in="SourceGraphic" in2="BackgroundImageFix" mode="normal" result="shape"/><feGaussianBlur result="effect1_foregroundBlur_1142_3898" stdDeviation=".855974"/></filter><filter id="b" color-interpolation-filters="sRGB" filterUnits="userSpaceOnUse" height="13.4261" width="27.001" x="11.1015" y="60.4004"><feFlood flood-opacity="0" result="BackgroundImageFix"/><feBlend in="SourceGraphic" in2="BackgroundImageFix" mode="normal" result="shape"/><feGaussianBlur result="effect1_foregroundBlur_1142_3898" stdDeviation=".855974"/></filter><linearGradient id="c"><stop offset="0" stop-color="#0864a9"/><stop offset=".13" stop-color="#0861a4" stop-opacity=".97"/><stop offset=".29" stop-color="#075895" stop-opacity=".88"/><stop offset=".46" stop-color="#064a7c" stop-opacity=".74"/><stop offset=".64" stop-color="#04355a" stop-opacity=".53"/><stop offset=".83" stop-color="#021c2f" stop-opacity=".28"/><stop offset="1" stop-opacity="0"/></linearGradient><radialGradient id="d" cx="0" cy="0" gradientTransform="matrix(14.46828697 -.25872091 .2587084 14.46758708 35.6613 46.6526)" gradientUnits="userSpaceOnUse" r="1" xlink:href="#c"/><linearGradient id="e"><stop offset="0" stop-color="#0864a9"/><stop offset=".13" stop-color="#0861a4" stop-opacity=".97"/><stop offset=".29" stop-color="#0663a9" stop-opacity=".88"/><stop offset=".46" stop-color="#085792" stop-opacity=".74"/><stop offset=".64" stop-color="#04406c" stop-opacity=".53"/><stop offset=".83" stop-color="#021c2f" stop-opacity=".28"/><stop offset="1" stop-opacity="0"/></linearGradient><radialGradient id="f" cx="0" cy="0" gradientTransform="matrix(25.21486893 -.45089055 .45086552 25.21346915 35.6622 46.6539)" gradientUnits="userSpaceOnUse" r="1" xlink:href="#e"/><radialGradient id="g" cx="0" cy="0" gradientTransform="matrix(14.46828697 -.25872091 .2587084 14.46758708 35.6613 70.1748)" gradientUnits="userSpaceOnUse" r="1" xlink:href="#c"/><radialGradient id="h" cx="0" cy="0" gradientTransform="matrix(25.21486893 -.45089055 .45086552 25.21346915 35.6622 70.1762)" gradientUnits="userSpaceOnUse" r="1" xlink:href="#e"/><linearGradient id="i" gradientUnits="userSpaceOnUse" x1="48.7873" x2="48.7873" y1="15.8914" y2="100.932"><stop offset="0" stop-color="#049ba9"/><stop offset=".283953" stop-color="#00b0c0"/><stop offset=".626177" stop-color="#3be7f7"/><stop offset="1" stop-color="#022f33"/></linearGradient><linearGradient id="j" gradientUnits="userSpaceOnUse" x1="7.42518" x2="42.5201" y1="61.686" y2="58.7567"><stop offset="0" stop-color="#06cec4"/><stop offset="1" stop-color="#a7fefa"/></linearGradient><linearGradient id="k" gradientUnits="userSpaceOnUse" x1="19.2961" x2="19.2961" y1="15.8914" y2="100.932"><stop offset=".196276" stop-color="#07f0e5"/><stop offset="1" stop-color="#05b6ad"/></linearGradient><linearGradient id="l"><stop offset=".303113" stop-color="#fff"/><stop offset=".708333" stop-color="#00fff3"/></linearGradient><radialGradient id="m" cx="0" cy="0" gradientTransform="matrix(-.0000188 10.7724 -10.7724 -.0000188 35.6594 70.1731)" gradientUnits="userSpaceOnUse" r="1" xlink:href="#l"/><radialGradient id="n" cx="0" cy="0" gradientTransform="matrix(-.0000188 10.7724 -10.7724 -.0000188 35.6594 46.6511)" gradientUnits="userSpaceOnUse" r="1" xlink:href="#l"/><linearGradient id="o"><stop offset="0" stop-color="#fff"/><stop offset="1" stop-color="#fff" stop-opacity="0"/></linearGradient><linearGradient id="p" gradientUnits="userSpaceOnUse" x1="29.9161" x2="15.425" xlink:href="#o" y1="52.2049" y2="56.5329"/><linearGradient id="q" gradientUnits="userSpaceOnUse" x1="30.5964" x2="16.1054" xlink:href="#o" y1="66.4721" y2="62.1441"/><linearGradient id="r" gradientUnits="userSpaceOnUse" x1="76.6973" x2="277.428" y1="57" y2="21.8466"><stop offset=".0915859" stop-color="#acf8ff"/><stop offset="1" stop-color="#07f0e5"/></linearGradient><path d="m46.1774 56.696c5.4916-5.7499 5.2344-14.9086-.5744-20.4565-5.8089-5.5478-14.9697-5.384-20.4613.3659-5.4916 5.75-5.2345 14.9086.5744 20.4565s14.9697 5.3841 20.4613-.3659z" fill="url(#d)"/><path d="m53.9893 64.1572c9.5705-10.0207 9.1223-25.9821-1.0011-35.6508-10.1235-9.6686-26.0886-9.3831-35.6592.6377-9.57053 10.0208-9.12233 25.9822 1.0011 35.6508 10.1235 9.6686 26.0886 9.3831 35.6592-.6377z" fill="url(#f)"/><path d="m46.1774 80.2182c5.4916-5.7499 5.2344-14.9086-.5744-20.4565-5.8089-5.5478-14.9697-5.384-20.4613.3659-5.4916 5.75-5.2345 14.9087.5744 20.4565 5.8089 5.5479 14.9697 5.3841 20.4613-.3659z" fill="url(#g)"/><path d="m53.9893 87.6795c9.5705-10.0208 9.1223-25.9822-1.0011-35.6508-10.1235-9.6687-26.0886-9.3832-35.6592.6376-9.57053 10.0208-9.12233 25.9822 1.0011 35.6508 10.1235 9.6686 26.0886 9.3831 35.6592-.6376z" fill="url(#h)"/><path d="m34.0106 100.932c8.5248-3.0987 17.4323-6.7866 22.0743-11.6651 2.4551-2.5802 4.3274-5.3563 5.6009-7.9331 1.2293-2.4872 2.0569-5.1065 2.0569-7.3398v-47.6586l-3.3931-.377c-9.2636-1.0293-15.1931-2.7218-18.7859-4.2948-1.7967-.7866-3.4883-1.9526-4.1574-2.4934-1.2891-1.1153-2.593-2.4578-3.3361-3.2788l-.2382 10.1649c1.2316.8925 2.7807 1.7674 4.6722 2.5955 3.9639 1.7354 9.6516 3.3612 17.6099 4.4657v40.8765c0 .5745-.2873 1.9771-1.2672 3.9598-.9356 1.893-2.3667 4.0347-4.2885 6.0545-3.7783 3.9707-11.5589 7.6412-16.5478 7.6342z" fill="url(#i)"/><path clip-rule="evenodd" d="m21.791 54.3068 9.6459-7.8373 2.4053 2.9603-10.697 8.6913h-11.4842v3.1785h11.3541l10.6352 6.6471-2.0216 3.2345-9.7076-6.0673h-14.07442v-10.8071z" fill="url(#j)" fill-rule="evenodd"/><path d="m34.1621 100.932c-5.7716-2.463-17.4323-6.7866-22.0743-11.6651-2.45513-2.5802-4.32737-5.3563-5.60092-7.9331-1.22924-2.4872-2.05683-5.1065-2.05683-7.3398v-47.6586l3.39307-.377c9.26358-1.0293 15.19308-2.7218 18.78598-4.2948 1.7966-.7866 3.4882-1.9526 4.1573-2.4934 1.2892-1.1153 2.593-2.4578 3.3361-3.2788v10.2316c-1.2315.8925-2.5425 1.7007-4.434 2.5288-3.9639 1.7354-9.6516 3.3612-17.6099 4.4657v40.8765c0 .5745.2873 1.9771 1.2672 3.9598.9356 1.893 2.3667 4.0347 4.2885 6.0545 3.7783 3.9707 11.5589 7.6412 16.5478 7.6342z" fill="url(#k)"/><path d="m41.063 70.1731c0 2.9843-2.4193 5.4036-5.4036 5.4036s-5.4035-2.4193-5.4035-5.4036 2.4192-5.4036 5.4035-5.4036 5.4036 2.4193 5.4036 5.4036z" fill="#6df9f2"/><path d="m41.063 70.1731c0 2.9843-2.4193 5.4036-5.4036 5.4036s-5.4035-2.4193-5.4035-5.4036 2.4192-5.4036 5.4035-5.4036 5.4036 2.4193 5.4036 5.4036z" fill="url(#m)"/><path d="m41.063 46.6511c0 2.9843-2.4193 5.4036-5.4036 5.4036s-5.4035-2.4193-5.4035-5.4036 2.4192-5.4035 5.4035-5.4035 5.4036 2.4192 5.4036 5.4035z" fill="#07f0e5"/><path d="m41.063 46.6511c0 2.9843-2.4193 5.4036-5.4036 5.4036s-5.4035-2.4193-5.4035-5.4036 2.4192-5.4035 5.4035-5.4035 5.4036 2.4192 5.4036 5.4035z" fill="url(#n)"/><g fill="url(#p)" filter="url(#a)"><path d="m22.8324 57.6339 12.4313-10.1682c.6089-.4981.6314-1.4214.0475-1.9485-.4698-.4242-1.1786-.443-1.6703-.0444l-11.6377 9.4347z"/><path d="m22.0032 54.9075.8292 2.7264h-9.3365c-.7529 0-1.3632-.6104-1.3632-1.3632 0-.7529.6103-1.3632 1.3632-1.3632z"/></g><g fill="url(#q)" filter="url(#b)"><path d="m22.6838 62.1122 12.7943 6.7727c.8906.4714 1.1844 1.6057.6347 2.4502-.513.7883-1.5653 1.016-2.3583.5104l-11.0707-7.0583z"/><path d="m22.6838 64.7872v-2.675l-8.7135.2835c-.6451.021-1.1572.5501-1.1571 1.1955 0 .6605.5355 1.196 1.196 1.196z"/></g><g fill="url(#r)"><path d="m105.373 57.1409c4.137.8273 7.298 2.6296 9.484 5.4068 2.216 2.7478 3.324 6.308 3.324 10.6807 0 6.175-2.216 10.7841-6.648 13.8273-4.431 3.0432-11.448 4.5647-21.0507 4.5647-5.0227 0-9.9716-.325-14.8466-.975v-64.3499c5.3773-1.0637 10.858-1.5955 16.4421-1.5955 5.6136 0 10.1932.6205 13.7382 1.8614 3.575 1.2409 6.22 3.1466 7.933 5.717 1.714 2.5705 2.571 5.8796 2.571 9.9273 0 3.6341-.901 6.7954-2.704 9.4841-1.802 2.6886-4.55 4.5057-8.243 5.4511zm-12.2316-25.4386c-3.0727 0-6.0716.2363-8.9966.7091v21.3613h9.1739c3.6636 0 6.5591-.4136 8.6863-1.2409 2.157-.8273 3.693-2.0534 4.609-3.6784s1.374-3.6784 1.374-6.1602c0-2.6591-.487-4.7864-1.462-6.3818-.975-1.5955-2.541-2.7625-4.698-3.5012-2.157-.7386-5.0525-1.1079-8.6866-1.1079zm-.6648 52.8716c4.225 0 7.5934-.3989 10.1044-1.1966 2.541-.8273 4.388-2.083 5.54-3.7671 1.152-1.7136 1.728-3.9443 1.728-6.692 0-4.0182-1.211-7.0023-3.634-8.9523-2.422-1.95-6.219-2.925-11.3895-2.925h-10.6807v23.1784c2.6.2364 5.3773.3546 8.3318.3546z"/><path d="m127.683 42.7818h7.135l.709 6.6034h.487c1.3-2.3932 2.97-4.1806 5.008-5.3625 2.069-1.1818 4.373-1.7727 6.914-1.7727.975 0 1.935.0886 2.881.2659v8.1102c-.916-.1772-2.054-.2659-3.413-.2659-2.245 0-4.387.5762-6.426 1.7284-2.039 1.1228-3.605 2.6739-4.698 4.6534v34.258h-8.597z"/><path d="m158.626 91v-48.2182h8.642v48.2182zm4.299-57.6579c-1.891 0-3.324-.458-4.299-1.3739-.975-.9455-1.463-2.2455-1.463-3.9 0-1.6841.488-2.9989 1.463-3.9443.975-.9455 2.408-1.4182 4.299-1.4182 1.89 0 3.323.4727 4.298 1.4182.975.9454 1.463 2.2602 1.463 3.9443 0 1.6545-.488 2.9545-1.463 3.9-.975.9159-2.408 1.3739-4.298 1.3739z"/><path d="m192.382 111.386c-1.95 0-4.018-.162-6.204-.487-2.187-.296-4.151-.724-5.895-1.285v-7.18c3.841 1.241 7.667 1.861 11.479 1.861 2.836 0 5.155-.428 6.958-1.285 1.832-.857 3.205-2.245 4.121-4.1657.916-1.9204 1.374-4.5057 1.374-7.7557v-4.875h-.443c-1.064 1.6546-2.511 2.9841-4.343 3.9887-1.832.975-3.93 1.4625-6.293 1.4625-2.925 0-5.584-.783-7.978-2.3489-2.363-1.5955-4.269-4.1659-5.717-7.7114-1.447-3.5454-2.171-8.1397-2.171-13.7829 0-8.6568 1.861-15.1125 5.584-19.367 3.752-4.2546 9.366-6.3966 16.841-6.4262 2.186 0 4.476.1921 6.869.5762 2.393.384 4.476.9011 6.249 1.5511v45.5591c0 7.6227-1.684 13.1332-5.052 16.5302-3.369 3.428-8.495 5.141-15.379 5.141zm3.9-27.078c1.596 0 3.103-.3841 4.521-1.1523 1.447-.7682 2.585-1.8466 3.412-3.2353v-30.4022c-1.92-.3841-3.634-.5761-5.141-.5761-4.313 0-7.549 1.4034-9.705 4.2102-2.157 2.7772-3.236 7.4011-3.236 13.8716 0 4.5204.414 8.0511 1.241 10.592.828 2.5114 1.98 4.2546 3.457 5.2296s3.294 1.4625 5.451 1.4625z"/><path d="m225.013 19.3818h8.598v28.6739h.487c3.014-4.0182 7.091-6.0273 12.232-6.0273 3.87 0 6.958 1.2557 9.262 3.7671 2.305 2.4818 3.457 6.5443 3.457 12.1875v33.017h-8.597v-32.5295c0-3.1023-.621-5.3034-1.862-6.6034-1.241-1.3296-3.013-1.9944-5.318-1.9944-1.773 0-3.56.4432-5.363 1.3296-1.772.8863-3.205 2.2602-4.298 4.1216v35.6761h-8.598z"/><path d="m289.943 84.308c1.271 0 2.866-.1921 4.787-.5762v7.3125c-2.335.5318-4.58.7977-6.737.7977-4.727 0-8.332-1.2556-10.813-3.767-2.453-2.5114-3.679-6.5148-3.679-12.0102v-26.2807h-7.8v-7.0023h7.8l1.507-17.3727h7.091v17.3727h12.054v7.0023h-12.054v25.217c0 2.3341.266 4.1807.798 5.5398.561 1.3591 1.403 2.3341 2.526 2.925 1.152.5614 2.659.8421 4.52.8421z"/></g></svg>
