<?xml version="1.0" encoding="utf-8"?>
<!-- Generator: Adobe Illustrator 26.5.0, SVG Export Plug-In . SVG Version: 6.00 Build 0)  -->
<svg version="1.1" id="Layer_1" xmlns="http://www.w3.org/2000/svg" xmlns:xlink="http://www.w3.org/1999/xlink" x="0px" y="0px"
	 viewBox="0 0 190.5 55.9" style="enable-background:new 0 0 190.5 55.9;" xml:space="preserve">
<style type="text/css">
	.st0{fill:#545454;}
</style>
<g>
	<path class="st0" d="M30.7,0.2c-2,0-3.7,1.6-3.7,3.7V18c-2.3-3.1-5.7-5.7-11.1-5.7c-7.8,0-15.1,6.1-15.1,16.9v0.1
		c0,10.8,7.5,16.9,15.1,16.9c5.3,0,8.7-2.7,11.1-6.1v2c0,2.1,1.7,3.7,3.8,3.7c2,0,3.7-1.6,3.7-3.7V3.9C34.5,1.8,32.8,0.2,30.7,0.2z
		 M27.1,29.3c0,6.2-4.4,10.4-9.4,10.4c-5.1,0-9.4-4.1-9.4-10.4v-0.1c0-6.5,4.3-10.4,9.4-10.4c5,0,9.4,4.1,9.4,10.4
		C27.1,29.2,27.1,29.3,27.1,29.3z"/>
	<path class="st0" d="M44.6,24c-2.1,0-3.7,1.7-3.7,3.8v14.4c0,2.1,1.7,3.7,3.7,3.7c2.1,0,3.8-1.6,3.8-3.7V27.8
		C48.3,25.6,46.7,24,44.6,24z"/>
	<path class="st0" d="M44.6,0.2c-2.1,0-3.7,1.7-3.7,3.8v11.2c0,2.1,1.7,3.7,3.7,3.7c2.1,0,3.8-1.6,3.8-3.7V3.9
		C48.3,1.8,46.7,0.2,44.6,0.2z"/>
	<path class="st0" d="M147.6,0.2c-2.1,0-3.7,1.7-3.7,3.8v11.2c0,2.1,1.7,3.7,3.7,3.7c2.1,0,3.8-1.6,3.8-3.7V3.9
		C151.4,1.8,149.7,0.2,147.6,0.2z"/>
	<path class="st0" d="M147.6,24c-2.1,0-3.7,1.7-3.7,3.8v14.4c0,2.1,1.7,3.7,3.7,3.7c2.1,0,3.8-1.6,3.8-3.7V27.8
		C151.4,25.6,149.7,24,147.6,24z"/>
	<path class="st0" d="M73.1,12.3c-5.3,0-8.7,2.7-11.1,6.1v-2c0-2.1-1.7-3.8-3.8-3.8c-2.1,0-3.7,1.7-3.7,3.8V52
		c0,2.1,1.7,3.7,3.7,3.7c2.1,0,3.8-1.6,3.8-3.7V40.5c2.3,3,5.7,5.7,11.1,5.7c7.7,0,15.1-6.1,15.1-16.9v-0.1
		C88.3,18.3,80.8,12.3,73.1,12.3z M80.7,29.3c0,6.4-4.2,10.4-9.3,10.4c-5.1,0-9.5-4.2-9.5-10.4v-0.1c0-6.2,4.4-10.4,9.5-10.4
		s9.3,4.1,9.3,10.4V29.3z"/>
	<path class="st0" d="M96.7,0.2c-2.1,0-3.7,1.7-3.7,3.7v38.3c0,2.1,1.7,3.7,3.7,3.7c2.1,0,3.8-1.6,3.8-3.7V3.9
		C100.4,1.8,98.8,0.2,96.7,0.2z"/>
	<path class="st0" d="M122.2,12.3c-10,0-17.4,7.7-17.4,17v0.1c0,9.3,7.3,16.9,17.3,16.9c10.1,0,17.5-7.7,17.5-17v-0.1
		C139.6,19.8,132.2,12.3,122.2,12.3z M132.1,29.4c0,5.6-3.8,10.3-9.9,10.3c-5.8,0-9.9-4.8-9.9-10.4v-0.1c0-5.7,3.8-10.4,9.8-10.4
		c5.9,0,10,4.8,10,10.5L132.1,29.4L132.1,29.4z"/>
	<path class="st0" d="M185.8,0.2c-2,0-3.7,1.6-3.7,3.7V18c-2.3-3.1-5.7-5.7-11.1-5.7c-7.8,0-15.1,6.1-15.1,16.9v0.1
		c0,10.8,7.5,16.9,15.1,16.9c5.3,0,8.7-2.7,11.1-6.1v2c0,2.1,1.7,3.7,3.8,3.7c2,0,3.7-1.6,3.7-3.7V3.9
		C189.5,1.8,187.9,0.2,185.8,0.2z M182.2,29.3c0,6.2-4.4,10.4-9.4,10.4c-5.1,0-9.4-4.1-9.4-10.4v-0.1c0-6.5,4.3-10.4,9.4-10.4
		c5,0,9.4,4.1,9.4,10.4V29.3z"/>
</g>
</svg>
