<?xml version="1.0" encoding="UTF-8"?><svg id="Camada_2" xmlns="http://www.w3.org/2000/svg" viewBox="0 0 59.68 61"><defs><style>.cls-1{fill:#f7485b;}</style></defs><g id="Camada_1-2"><path class="cls-1" d="M55.48,42.89c-3.06,1.64-6.32,2.87-9.71,3.66-3.69,.84-7.48,1.12-11.25,.84-6.33-.54-12.46-3.42-16.7-8.14-.52-.57-.94-1.27-1.74-1.46-1.28-.28-2.18,.57-2.49,1.75-3.1,11.47,7.49,22.36,19.11,21.41,5.18-.33,10.2-1.95,14.58-4.7,4.38-2.76,7.99-6.56,10.49-11.06,.15-.25,.22-.54,.22-.83,0-.29-.08-.57-.24-.82-.22-.38-.58-.66-1-.77-.42-.12-.88-.07-1.26,.14ZM29.36,3.12c2.97,1.8,5.68,3.98,8.06,6.49,2.57,2.74,4.7,5.85,6.33,9.22,2.69,5.7,3.24,12.38,1.22,18.37-.24,.73-.64,1.42-.41,2.22,.39,1.24,1.59,1.58,2.78,1.26,11.58-3.06,15.83-17.58,9.19-27.06-2.88-4.28-6.8-7.77-11.4-10.15C40.53,1.09,35.4-.1,30.2,0c-.3,0-.58,.08-.84,.23-.25,.15-.46,.37-.6,.62-.22,.38-.28,.83-.16,1.25,.11,.42,.39,.78,.76,1.01h0Zm2.77,18.62c-2.04-.3-4.13,.11-5.9,1.16-1.77,1.05-3.12,2.68-3.81,4.6-.7,1.92-.69,4.03,0,5.95,.7,1.92,2.04,3.55,3.81,4.6,1.77,1.05,3.85,1.46,5.9,1.16,2.04-.3,3.92-1.29,5.3-2.8,1.39-1.51,2.2-3.45,2.3-5.49,.1-2.04-.51-4.05-1.74-5.69-.7-.94-1.57-1.72-2.58-2.32-1.01-.6-2.12-.99-3.29-1.16h0Zm-2.52-6.77c.76-.16,1.58-.17,2.15-.76,.89-.96,.58-2.16-.29-3.01C23.03,2.8,8.18,6.42,3.2,16.85,.9,21.46-.19,26.56,.03,31.7c.22,5.13,1.75,10.13,4.43,14.52,.15,.25,.36,.46,.62,.6,.26,.14,.54,.21,.84,.21,.44,0,.86-.17,1.18-.47,.32-.3,.5-.72,.51-1.15,.1-3.44,.65-6.85,1.65-10.14,1.11-3.58,2.76-6.97,4.89-10.06,3.64-5.16,9.22-8.96,15.46-10.23Z"/></g></svg>