<svg xmlns="http://www.w3.org/2000/svg" width="412" height="240">
<path fill="#191919" d="M271.976 136.746h-22.762c-6.16 0-7.231-6.716-6.16-9.403.536-1.343 1.875-3.224 2.946-4.567 4.285 2.418 9.373 3.761 14.729 3.761 17.139 0 30.797-13.97 30.797-30.896 0-9.134-4.017-17.194-10.177-23.104l.804-.806c1.606-1.612 4.017-2.686 6.427-2.418l3.749.269V54.806h-6.427c-7.498 0-13.658 4.567-16.336 11.015-2.678-.806-5.623-1.344-8.569-1.344-17.139 0-30.797 13.97-30.797 30.896 0 6.716 2.143 13.164 5.892 18.268-.536.538-1.339 1.075-1.875 1.344l-.803.806c-6.16 5.91-9.105 13.433-7.499 22.03.804 4.567 4.821 9.403 8.838 12.089 2.678 1.881 6.159 2.687 9.64 2.687l25.709-1.075c2.946 0 5.624 1.343 7.23 4.03l3.214 6.179 15.8-5.373-2.678-5.911c-4.017-8.328-12.319-13.701-21.692-13.701Zm-10.979-55.88c8.034 0 14.729 6.716 14.729 14.775 0 8.06-6.695 14.777-14.729 14.777-8.034 0-14.729-6.717-14.729-14.777 0-8.328 6.427-14.776 14.729-14.776ZM182.264 64.209c-16.067.806-29.457 13.701-30.528 29.82-1.339 19.075 13.657 34.926 32.135 34.926 6.159 0 11.783-3.492 16.604-6.448v5.642h15.8V95.373c-.804-18-15.8-31.97-34.011-31.164Zm1.607 49.701c-9.641 0-17.139-7.791-17.139-17.194a17.113 17.113 0 0 1 17.139-17.194c9.641 0 17.139 7.791 17.139 17.194.268 9.403-7.498 17.194-17.139 17.194Z"/><path fill="#191919" d="M152.003 65.284h-22.227l-19.281 19.343-6.695 6.716V54.27H88v73.88h15.8v-27.671l6.695 6.716v-.269l20.888 21.224h22.227L119.6 95.91l32.403-30.626ZM306.789 122.507v5.373h15.8V65.283h-15.8v57.224ZM314.557 56.418c5.62 0 10.176-4.57 10.176-10.209 0-5.638-4.556-10.209-10.176-10.209s-10.176 4.57-10.176 10.209c0 5.638 4.556 10.209 10.176 10.209ZM100.153 153.28h3.138v18.4h-3.138v-7.76h-8.989v7.76H88v-18.4h3.165v7.653h8.988v-7.653ZM112.827 172c-3.776 0-6.276-2.267-6.276-5.733v-8.187h2.978v7.787c0 1.946 1.33 3.253 3.298 3.253s3.271-1.307 3.271-3.253v-7.787h2.978v8.187c0 3.466-2.5 5.733-6.249 5.733ZM138.406 157.76c3.085 0 5.08 2.027 5.08 5.093v8.827h-2.979v-7.947c0-1.866-1.17-3.093-3.005-3.093-1.914 0-3.217 1.253-3.217 3.147v7.893h-2.979v-7.947c0-1.866-1.17-3.093-3.005-3.093-1.914 0-3.217 1.253-3.217 3.147v7.893h-2.979v-13.6h2.979v1.6c1.01-1.253 2.446-1.92 4.201-1.92 1.995 0 3.537.907 4.361 2.4 1.064-1.547 2.713-2.4 4.76-2.4ZM157.2 158.08h2.978v13.6H157.2v-1.947c-1.117 1.414-2.766 2.267-4.76 2.267-3.83 0-6.675-3.067-6.675-7.12s2.845-7.12 6.675-7.12c1.994 0 3.643.853 4.76 2.267v-1.947Zm-4.175 11.04c2.393 0 4.175-1.84 4.175-4.24 0-2.4-1.782-4.24-4.175-4.24-2.42 0-4.202 1.84-4.202 4.24 0 2.4 1.782 4.24 4.202 4.24ZM171.014 157.76c3.218 0 5.372 2.133 5.372 5.36v8.56h-2.979v-7.573c0-2.08-1.329-3.467-3.377-3.467-2.154 0-3.59 1.413-3.59 3.52v7.52h-2.978v-13.6h2.978v1.76c1.09-1.36 2.659-2.08 4.574-2.08ZM180.916 155.787a1.865 1.865 0 0 1-1.889-1.894c0-1.093.825-1.893 1.889-1.893 1.09 0 1.914.8 1.914 1.893 0 1.067-.824 1.894-1.914 1.894Zm-1.49 15.893v-13.6h2.979v13.6h-2.979ZM189.136 168.8h6.967v2.88h-11.116v-2.16l6.781-8.56h-6.674v-2.88h10.823v2.16l-6.781 8.56ZM211.541 164.907c0 .373-.026.8-.079 1.173h-10.983c.479 1.947 2.154 3.227 4.361 3.227 1.782 0 3.298-.854 4.069-1.867l2.021 1.733c-1.383 1.734-3.617 2.827-6.17 2.827-4.308 0-7.499-3.093-7.499-7.173 0-4.027 3.085-7.067 7.154-7.067 4.068 0 7.126 3.04 7.126 7.147Zm-7.153-4.454c-1.941 0-3.457 1.28-3.936 3.174h7.898c-.452-1.92-2.021-3.174-3.962-3.174ZM228.051 160.8h-3.829v6.427c0 1.28.718 1.893 1.968 1.893.744 0 1.329-.213 1.861-.48v2.8c-.744.373-1.489.56-2.473.56-2.925 0-4.335-1.653-4.335-4.293V160.8h-2.286v-2.72h2.286v-3.52h2.979v3.52h3.829v2.72ZM238.029 157.76c3.217 0 5.371 2.133 5.371 5.36v8.56h-2.978v-7.573c0-2.08-1.33-3.467-3.377-3.467-2.154 0-3.59 1.413-3.59 3.52v7.52h-2.979v-19.2h2.979v7.44c1.09-1.413 2.659-2.16 4.574-2.16ZM259.897 164.907c0 .373-.027.8-.08 1.173h-10.982c.478 1.947 2.154 3.227 4.361 3.227 1.781 0 3.297-.854 4.068-1.867l2.021 1.733c-1.382 1.734-3.616 2.827-6.169 2.827-4.308 0-7.499-3.093-7.499-7.173 0-4.027 3.085-7.067 7.153-7.067 4.069 0 7.127 3.04 7.127 7.147Zm-7.153-4.454c-1.942 0-3.457 1.28-3.936 3.174h7.898c-.452-1.92-2.021-3.174-3.962-3.174ZM289.65 153.28h3.27l-5.77 18.4h-3.191l-3.989-13.627-4.015 13.627h-3.165l-5.797-18.4h3.377l4.095 14.133 4.149-14.133h2.792l4.148 14.133 4.096-14.133ZM306.233 164.907c0 .373-.027.8-.08 1.173h-10.982c.478 1.947 2.154 3.227 4.361 3.227 1.781 0 3.297-.854 4.068-1.867l2.021 1.733c-1.382 1.734-3.616 2.827-6.169 2.827-4.308 0-7.499-3.093-7.499-7.173 0-4.027 3.085-7.067 7.153-7.067 4.069 0 7.127 3.04 7.127 7.147Zm-7.153-4.454c-1.942 0-3.457 1.28-3.936 3.174h7.898c-.452-1.92-2.021-3.174-3.962-3.174ZM316.325 157.76c3.803 0 6.675 3.067 6.675 7.12s-2.872 7.12-6.675 7.12c-1.994 0-3.669-.853-4.786-2.293v1.973h-2.979v-19.2h2.979v7.573c1.117-1.44 2.792-2.293 4.786-2.293Zm-.585 11.36c2.394 0 4.175-1.84 4.175-4.24 0-2.4-1.781-4.24-4.175-4.24-2.393 0-4.201 1.84-4.201 4.24 0 2.4 1.808 4.24 4.201 4.24Z"/></svg>
