<svg xmlns="http://www.w3.org/2000/svg" width="260" height="74" viewbox="0 0 260 74">
  <g clip-path="url(#a)">
    <path fill="#059669" fill-rule="evenodd" d="m259.524 41.241-2.97-3.141a15.373 15.373 0 0 0 .097-19.163 15.37 15.37 0 1 0-21.038 22c1.135-2.292 2.575-3.437 4.322-3.437.95 0 1.739.394 2.368 1.18.63.788.944 1.979.944 3.572 0 .485-.028.988-.084 1.51.442.04.888.062 1.335.065a15.79 15.79 0 0 0 6.964-1.614l2.301 2.434a1.324 1.324 0 0 0 1.832.08l3.929-3.486Zm-17.235-8.79 4.286 4.544a11.24 11.24 0 0 1-2.077.212c-4.841 0-8.664-3.532-8.664-8.835 0-5.305 3.823-8.83 8.664-8.83 4.841 0 8.657 3.539 8.657 8.83a9.695 9.695 0 0 1-1.23 4.8l-3.882-4.126a1.324 1.324 0 0 0-1.819-.086l-3.935 3.492Z" clip-rule="evenodd"/>
    <path fill="#059669" d="M218.427 43.238h6.792l-.02-29.727h-6.792l-8.068 13.227-8.069-13.227h-6.791V38.84a19.734 19.734 0 0 1 5.91 4.344 1.289 1.289 0 0 0 .514-.319 1.33 1.33 0 0 0 .387-.935V25.95l7.513 12.288a.665.665 0 0 0 .582.324.661.661 0 0 0 .582-.324l7.46-12.288v17.287Z"/>
    <path fill="#2E2849" d="M189.143 37.034V13.511h-6.766V28.61a.329.329 0 0 1-.436.316.334.334 0 0 1-.166-.125l-10.865-15.29h-5.093v29.72h5.47a1.326 1.326 0 0 0 1.222-.816c.066-.16.1-.332.1-.506V27.115l7.757 10.938a19.685 19.685 0 0 1 6.612-1.136c.731 0 1.454.04 2.165.117Zm-29.317 6.204V13.511h-6.799v29.727h6.799Zm-38.741-29.727h7.427l6.58 21.87 6.614-21.87h7.4l-9.384 28.815a1.325 1.325 0 0 1-1.257.912h-7.698l-9.682-29.727Zm-6.554 25.052h-11.058l-1.177 3.763a1.327 1.327 0 0 1-1.263.926h-6.462l10.106-29.728h8.663l10.105 29.714h-7.407l-1.507-4.675Zm-2.044-6.369-3.479-10.912-3.346 10.462a.333.333 0 0 0 .049.296.336.336 0 0 0 .268.134l6.508.02Zm-21.671 4.504v6.54H73.409V13.511h6.792v23.187h10.615Z"/>
    <path fill="#059669" fill-rule="evenodd" d="m47.612 27.22-2.09-2.173-11.694-11.588a.333.333 0 0 0-.468 0L21.75 24.96a.334.334 0 0 0-.079.346l.4 1.143-1.324-1.376-4.664-4.62a.33.33 0 0 0-.465 0l-9.21 9.125a.133.133 0 0 1-.225-.073c-.15-.997-.23-2.015-.23-3.053 0-11.304 9.196-20.501 20.5-20.501 10.72 0 19.543 8.272 20.426 18.767.029.337.1.961.212 1.28.209.591.529 1.23.521 1.221Zm-20.12 20.65-1.785-.833c-.363-.124-1.4-.201-1.78-.249-6.694-.827-12.4-4.885-15.492-10.57a.265.265 0 0 1 .047-.315l7.149-7.083a.129.129 0 0 1 .22.091v7.37c0 .088.034.171.096.233l9.688 9.599 1.857 1.756Zm25.415-21.417c0-15.23-12.87-27.455-28.33-26.388C11.533.964.965 11.532.065 24.577c-1.066 15.458 11.159 28.33 26.389 28.33h21.578c.297 0 .445-.36.234-.568L29.217 33.463h-.002l-3.607-3.573a.262.262 0 0 1 0-.371l7.766-7.695a.13.13 0 0 1 .22.092v7.422a.2.2 0 0 0 .059.142L52.34 47.998c.21.207.566.059.566-.236V27.004l-.014.014c.004-.188.014-.376.014-.565Z" clip-rule="evenodd"/>
    <path fill="#2E2849" d="M142.351 61.725V48.899h2.267v4.797h.094c.117-.234.281-.482.494-.745.213-.267.501-.495.865-.683.363-.192.826-.288 1.39-.288.743 0 1.413.19 2.01.57.601.376 1.077.933 1.428 1.672.355.735.532 1.637.532 2.706 0 1.056-.173 1.954-.519 2.693-.347.738-.819 1.302-1.416 1.69a3.64 3.64 0 0 1-2.029.583c-.551 0-1.008-.092-1.371-.276a2.78 2.78 0 0 1-.877-.663 4.296 4.296 0 0 1-.507-.746h-.132v1.516h-2.229Zm2.223-4.81c0 .622.088 1.167.263 1.635.179.467.436.833.77 1.096.338.258.748.388 1.228.388.501 0 .92-.134 1.258-.4.339-.272.593-.642.764-1.11.176-.471.264-1.008.264-1.609 0-.597-.086-1.127-.257-1.59-.171-.464-.426-.827-.764-1.09-.338-.263-.76-.395-1.265-.395-.485 0-.896.127-1.234.382-.338.255-.595.612-.77 1.071-.172.46-.257 1-.257 1.622Zm9.867 8.417a4.59 4.59 0 0 1-.858-.075 3.166 3.166 0 0 1-.62-.163l.526-1.766c.33.096.624.142.883.138.259-.004.486-.086.682-.244.201-.155.37-.414.508-.777l.194-.52-3.488-9.82h2.404l2.217 7.265h.101l2.223-7.265h2.411l-3.852 10.785a4.31 4.31 0 0 1-.714 1.309 2.896 2.896 0 0 1-1.089.839c-.426.196-.935.294-1.528.294Zm105.122-7.987c-.282-.502-.695-1.11-1.241-1.825-.376-.46-.653-.843-.832-1.15-.179-.306-.268-.587-.268-.843 0-.425.154-.945.461-1.558.119-.221.213-.443.281-.664.069-.221.103-.383.103-.485 0-.187-.094-.324-.282-.409-.188-.085-.52-.128-.998-.128-1.024 0-1.698.375-2.021 1.124a140.244 140.244 0 0 1-1.241 2.783 16.573 16.573 0 0 1-.934 1.762 27.873 27.873 0 0 1-1.509 2.087 8.639 8.639 0 0 1-1.678 1.194c-.981.536-1.855.804-2.623.804-1.195 0-2.006-.392-2.431-1.175 2.013-.494 3.443-1.162 4.286-2.005.845-.843 1.267-1.85 1.267-3.026 0-1.004-.299-1.8-.896-2.387-.598-.588-1.391-.88-2.38-.88-1.109 0-2.103.297-2.982.893-.879.596-1.565 1.4-2.06 2.413a7.373 7.373 0 0 0-.742 3.282c0 .38.027.74.077 1.083-.366.396-.682.707-.948.934-.478.41-.947.613-1.408.613-.358 0-.652-.212-.882-.638-.231-.426-.381-1.132-.448-2.119 1.569-2.689 2.824-5.31 3.762-7.864.939-2.553 1.408-4.784 1.408-6.69 0-1.343-.242-2.348-.729-3.012-.486-.664-1.096-.996-1.829-.996-1.485 0-2.684 1.17-3.595 3.511-.914 2.34-1.532 5.162-1.856 8.464a6.966 6.966 0 0 0-3.417 1.315 7.76 7.76 0 0 0-2.507 3.101c-.804.183-1.517.293-2.137.333-.137-1.31-.601-2.413-1.395-3.307-.794-.894-1.838-1.34-3.135-1.34a5.17 5.17 0 0 0-2.892.855c-.87.57-1.553 1.362-2.047 2.374-.495 1.013-.742 2.166-.742 3.46 0 .323.023.635.066.942-.466.434-.935.79-1.41 1.063-.81.468-1.565.702-2.265.702-1.723 0-2.584-.988-2.584-2.962a6 6 0 0 1 .307-1.965c.205-.596.478-1.068.819-1.417.342-.35.709-.523 1.101-.523.205 0 .362.06.473.178.111.12.166.29.166.511 0 .222-.043.46-.128.715-.017.069-.043.18-.077.333a1.905 1.905 0 0 0-.051.408c0 .273.097.486.294.639.196.153.456.23.78.23.512 0 .925-.247 1.241-.741.316-.494.473-1.098.473-1.812 0-.869-.261-1.579-.78-2.132-.521-.554-1.25-.83-2.188-.83-.956 0-1.869.281-2.738.843-.871.562-1.579 1.362-2.124 2.4-.546 1.038-.819 2.246-.819 3.625 0 1.55.464 2.796 1.394 3.74.93.945 2.231 1.417 3.903 1.417 1.041 0 2.119-.267 3.237-.804a8.159 8.159 0 0 0 1.853-1.22 4.66 4.66 0 0 0 1.269 1.285c.726.493 1.6.74 2.624.74 1.211 0 2.294-.429 3.25-1.289.955-.858 1.594-2.004 1.919-3.434a13.04 13.04 0 0 0 1.612-.167 9.583 9.583 0 0 0-.026.703c0 1.243.336 2.251 1.01 3.026.674.775 1.531 1.161 2.572 1.161.717 0 1.344-.153 1.881-.46.538-.306 1.165-.91 1.881-1.812.683 1.516 1.672 2.272 2.969 2.272.819 0 1.645-.301 2.482-.906a11.93 11.93 0 0 0 1.324-1.117c.147.202.312.391.492.568.99.97 2.38 1.455 4.172 1.455a7.426 7.426 0 0 0 3.697-.97c.272-.153.529-.31.773-.47.241-.06.474-.202.698-.424.146-.141.288-.283.428-.428.292-.258.55-.524.776-.797.081-.095.153-.2.214-.314.095-.115.192-.23.284-.349.521-.664 1.045-1.497 1.574-2.502.239.273.495.591.768.958.273.366.499.744.678 1.136.179.391.277.808.294 1.251a22.3 22.3 0 0 1-.678-.089 5.666 5.666 0 0 0-.78-.064c-.632 0-1.11.162-1.434.485a1.57 1.57 0 0 0-.486 1.15c0 .51.234.97.703 1.379.469.408 1.147.613 2.035.613.768 0 1.449-.196 2.046-.588a4.055 4.055 0 0 0 1.395-1.544 4.327 4.327 0 0 0 .499-2.03 3.266 3.266 0 0 0-.418-1.652Zm-21.804-10.15c.23-1.854.507-3.358.831-4.506.324-1.15.648-1.723.973-1.723.153 0 .285.179.396.536.111.358.166.86.166 1.507 0 2.519-.956 5.856-2.866 10.009a80.65 80.65 0 0 1 .5-5.823Zm-15.175 12.027c-.401.442-.874.664-1.42.664-.495 0-.926-.247-1.293-.74-.367-.495-.549-1.21-.549-2.145 0-1.19.225-2.115.677-2.77.453-.656 1.019-.983 1.702-.983h.128a4.434 4.434 0 0 0-.077.817c0 .647.141 1.26.422 1.839a3.525 3.525 0 0 0 1.216 1.405c-.137.832-.406 1.47-.806 1.913Zm10.581.395c-.324.264-.648.395-.973.395-.853 0-1.28-.621-1.28-1.863a5.77 5.77 0 0 1 .934-3.205c.623-.962 1.403-1.587 2.342-1.877a60.98 60.98 0 0 0-.051 1.992c0 1.14.085 2.17.256 3.089-.494.716-.904 1.205-1.228 1.469Zm10.774-2.796c0-1.038.217-1.923.652-2.655.436-.732.968-1.098 1.6-1.098.307 0 .55.098.729.293.179.195.268.456.268.778 0 .63-.29 1.183-.871 1.66-.58.477-1.373.834-2.379 1.073l.001-.051Z"/>
    <path fill="#2E2849" fill-rule="evenodd" d="M186.979 73.188c9.762 0 17.676-7.896 17.676-17.636 0-9.74-7.914-17.635-17.676-17.635-9.762 0-17.676 7.895-17.676 17.635 0 9.74 7.914 17.636 17.676 17.636Zm-.982-12.39a3.89 3.89 0 0 0 .463-1.876 4.17 4.17 0 0 0-.158-1.143 4.355 4.355 0 0 0-1.166-1.95 4.608 4.608 0 0 0-.935-.702 3.77 3.77 0 0 0 .578-.66 4.293 4.293 0 0 0 .714-1.626c.07-.293.105-.583.105-.87 0-.586-.133-1.135-.399-1.645a4.185 4.185 0 0 0-1.082-1.353 5.144 5.144 0 0 0-1.598-.922 5.621 5.621 0 0 0-1.954-.336c-.686 0-1.334.112-1.944.336a5.14 5.14 0 0 0-1.597.922 4.38 4.38 0 0 0-1.082 1.353 3.585 3.585 0 0 0-.389 1.645c0 .287.032.577.095.87.063.287.154.567.273.84.126.272.273.53.441.775.175.245.371.461.589.65a4.282 4.282 0 0 0-.946.713c-.28.273-.522.573-.725.901a4.314 4.314 0 0 0-.452 1.06 4.17 4.17 0 0 0-.158 1.142 3.9 3.9 0 0 0 .463 1.876 4.73 4.73 0 0 0 1.261 1.489 6.198 6.198 0 0 0 1.88.964 7.214 7.214 0 0 0 2.291.357c.813 0 1.576-.119 2.291-.357a6.062 6.062 0 0 0 1.87-.964c.539-.42.963-.916 1.271-1.489Zm-3.52-9.183c.112.21.169.437.169.681 0 .245-.057.472-.169.682a1.65 1.65 0 0 1-.441.545 2.1 2.1 0 0 1-.651.367c-.253.09-.519.136-.799.136-.287 0-.557-.045-.809-.136a2.244 2.244 0 0 1-.662-.367 1.847 1.847 0 0 1-.441-.545 1.501 1.501 0 0 1-.158-.681 1.5 1.5 0 0 1 .158-.682c.112-.217.259-.405.441-.566.189-.16.41-.286.662-.377a2.37 2.37 0 0 1 .809-.137c.28 0 .546.046.799.137.252.09.469.216.651.377.189.16.336.35.441.566Zm.757 6.29c.154.287.231.598.231.933 0 .335-.077.643-.231.922-.147.28-.354.521-.62.724a3.037 3.037 0 0 1-.925.482c-.35.112-.725.168-1.124.168-.399 0-.774-.056-1.124-.168a3.223 3.223 0 0 1-.925-.482 2.357 2.357 0 0 1-.62-.724 1.95 1.95 0 0 1-.22-.922c0-.335.073-.646.22-.933a2.51 2.51 0 0 1 .62-.765c.266-.217.575-.388.925-.514a3.3 3.3 0 0 1 1.124-.189 3.3 3.3 0 0 1 1.124.19c.358.125.666.296.925.513.266.216.473.472.62.765Zm14.721 2.306h1.503v-2.998h-1.503v-7.516h-3.016v7.516h-4.15l1.313-9.026h-3.015l-1.681 12.024h7.533v3.009h3.016v-3.01Z" clip-rule="evenodd"/>
  </g>
  <defs>
    <clipPath id="a">
      <path fill="#fff" d="M0 0h260v74H0z"/>
    </clipPath>
  </defs>
</svg>
