<svg width="260" height="74" viewBox="0 0 260 74" fill="none" xmlns="http://www.w3.org/2000/svg">
<g clip-path="url(#clip0_9_1089)">
<path fill-rule="evenodd" clip-rule="evenodd" d="M259.524 41.2411L256.554 38.0998C258.738 35.3887 259.937 32.0165 259.955 28.5351C259.972 25.0538 258.807 21.6697 256.651 18.9367C254.494 16.2038 251.474 14.284 248.084 13.4916C244.694 12.6992 241.135 13.0811 237.99 14.575C234.846 16.0688 232.302 18.5859 230.774 21.7143C229.247 24.8427 228.827 28.3969 229.583 31.7952C230.339 35.1935 232.226 38.2345 234.936 40.4203C235.157 40.5991 235.383 40.7713 235.613 40.9368C236.748 38.6452 238.188 37.5 239.935 37.5C240.885 37.5 241.674 37.8936 242.303 38.6807C242.933 39.4679 243.247 40.6587 243.247 42.2517C243.247 42.7371 243.219 43.2403 243.163 43.7613C243.605 43.8024 244.051 43.8244 244.498 43.827C246.912 43.8286 249.294 43.2766 251.462 42.2133L253.763 44.647C253.999 44.8944 254.322 45.0409 254.663 45.0557C255.005 45.0705 255.339 44.9524 255.595 44.7264L259.524 41.2411ZM242.289 32.4519L246.575 36.9953C245.89 37.1301 245.195 37.201 244.498 37.207C239.657 37.207 235.834 33.6754 235.834 28.3715C235.834 23.0675 239.657 19.5426 244.498 19.5426C249.339 19.5426 253.155 23.0807 253.155 28.3715C253.168 30.0515 252.744 31.7061 251.925 33.1728L248.043 29.046C247.808 28.8015 247.489 28.6563 247.151 28.6403C246.812 28.6243 246.481 28.7388 246.224 28.9601L242.289 32.4519Z" fill="#059669"/>
<path d="M218.427 43.2383H225.219L225.199 13.5111H218.407L210.339 26.7379L202.27 13.5111H195.479V38.8385C197.716 39.9094 199.718 41.39 201.389 43.1826C201.418 43.173 201.446 43.1624 201.474 43.1509C201.634 43.0844 201.78 42.987 201.903 42.8642C202.026 42.7413 202.123 42.5955 202.19 42.435C202.256 42.2746 202.29 42.1026 202.29 41.9289V25.9509L209.803 38.2386C209.863 38.3393 209.948 38.4223 210.05 38.4792C210.153 38.5362 210.268 38.565 210.385 38.5627C210.502 38.565 210.618 38.5362 210.72 38.4792C210.822 38.4223 210.907 38.3393 210.967 38.2386L218.427 25.9509V43.2383Z" fill="#059669"/>
<path d="M189.143 37.0342V13.5111H182.377V28.6095C182.378 28.6801 182.356 28.749 182.314 28.8061C182.273 28.8633 182.214 28.9057 182.147 28.9271C182.08 28.9485 182.007 28.9479 181.941 28.9252C181.874 28.9026 181.816 28.8592 181.775 28.8013L170.91 13.5111H165.817V43.2317H171.287C171.46 43.2317 171.632 43.1975 171.793 43.131C171.953 43.0646 172.099 42.9671 172.222 42.8443C172.345 42.7215 172.442 42.5757 172.509 42.4152C172.575 42.2547 172.609 42.0827 172.609 41.909V27.1149L180.366 38.0525C182.433 37.3171 184.658 36.9167 186.978 36.9167C187.709 36.9167 188.432 36.9565 189.143 37.0342Z" fill="#2E2849"/>
<path d="M159.826 43.2383V13.5111H153.027V43.2383H159.826Z" fill="#2E2849"/>
<path d="M121.085 13.5111H128.512L135.092 35.3816L141.706 13.5111H149.106L139.722 42.3257C139.635 42.5909 139.467 42.8219 139.241 42.9858C139.016 43.1497 138.744 43.2381 138.465 43.2383H130.767L121.085 13.5111Z" fill="#2E2849"/>
<path d="M114.531 38.5627H103.473L102.296 42.3257C102.211 42.5944 102.043 42.8291 101.816 42.9957C101.589 43.1622 101.314 43.2519 101.033 43.2516H94.5713L104.677 13.5244H113.34L123.445 43.2383H116.038L114.531 38.5627ZM112.487 32.194L109.008 21.2819L105.662 31.7443C105.646 31.7939 105.643 31.8466 105.651 31.898C105.66 31.9494 105.68 31.998 105.711 32.0399C105.742 32.0818 105.783 32.1158 105.829 32.1391C105.876 32.1625 105.927 32.1744 105.979 32.1741L112.487 32.194Z" fill="#2E2849"/>
<path d="M90.8156 36.6977V43.2383H73.4092V13.5111H80.2011V36.6977H90.8156Z" fill="#2E2849"/>
<path fill-rule="evenodd" clip-rule="evenodd" d="M47.6125 27.2204L45.5227 25.0466L33.8282 13.4586C33.6986 13.3303 33.4896 13.3303 33.36 13.4586L21.7508 24.9613C21.6602 25.0519 21.6291 25.1862 21.6714 25.3072L22.0702 26.45L20.7475 25.0744L16.0831 20.4536C15.9535 20.3253 15.7458 20.3253 15.6175 20.4536L6.40772 29.5788C6.33167 29.6548 6.19874 29.6118 6.18286 29.506C6.03274 28.5094 5.95206 27.4909 5.95206 26.4533C5.95206 15.149 15.1493 5.95175 26.4536 5.95175C37.1739 5.95175 45.9955 14.2238 46.8791 24.7192C46.9075 25.0559 46.9789 25.6802 47.0907 25.9989C47.2997 26.5902 47.6198 27.2284 47.6125 27.2204ZM27.4919 47.8694L25.7069 47.0368C25.3445 46.9132 24.3069 46.8358 23.9273 46.7882C17.2332 45.9608 11.5278 41.9028 8.43473 36.2173C8.37851 36.1148 8.39835 35.9858 8.48168 35.9032L15.6308 28.8196C15.7121 28.7389 15.8503 28.7964 15.8503 28.9115V36.2814C15.8503 36.3687 15.8854 36.4521 15.9475 36.5142L25.6348 46.1129L27.4919 47.8694ZM52.9072 26.4533C52.9072 11.2233 40.0362 -1.00157 24.5774 0.0645075C11.5331 0.96393 0.964896 11.5321 0.0648133 24.5771C-1.00127 40.0352 11.2236 52.9069 26.4536 52.9069H48.0324C48.3287 52.9069 48.4769 52.5478 48.2659 52.3388L29.2173 33.4628H29.2153L25.6084 29.8903C25.5052 29.7878 25.5052 29.6211 25.6084 29.5186L33.3738 21.8239C33.4558 21.7432 33.5941 21.8008 33.5941 21.9158V29.338C33.5941 29.3916 33.6152 29.4419 33.6529 29.4796L52.3411 47.9977C52.5507 48.2054 52.9072 48.0566 52.9072 47.7616V27.0042L52.8933 27.0181C52.8972 26.8296 52.9072 26.6424 52.9072 26.4533Z" fill="#059669"/>
<path d="M142.351 61.7248V48.8989H144.618V53.6961H144.712C144.829 53.4623 144.993 53.2138 145.206 52.9508C145.419 52.6836 145.707 52.4561 146.071 52.2682C146.434 52.0761 146.897 51.9801 147.461 51.9801C148.204 51.9801 148.874 52.1701 149.471 52.55C150.072 52.9258 150.548 53.4831 150.899 54.2221C151.254 54.9569 151.431 55.8588 151.431 56.9276C151.431 57.9839 151.258 58.8815 150.912 59.6205C150.565 60.3595 150.093 60.9232 149.496 61.3115C148.899 61.6997 148.223 61.8939 147.467 61.8939C146.916 61.8939 146.459 61.802 146.096 61.6183C145.732 61.4346 145.44 61.2133 145.219 60.9545C145.002 60.6915 144.833 60.443 144.712 60.2092H144.58V61.7248H142.351ZM144.574 56.9151C144.574 57.5372 144.662 58.082 144.837 58.5496C145.016 59.0172 145.273 59.3826 145.607 59.6456C145.945 59.9045 146.355 60.0339 146.835 60.0339C147.336 60.0339 147.755 59.9003 148.093 59.6331C148.432 59.3617 148.686 58.9922 148.857 58.5246C149.033 58.0528 149.121 57.5163 149.121 56.9151C149.121 56.318 149.035 55.7878 148.864 55.3244C148.693 54.8609 148.438 54.4977 148.1 54.2347C147.762 53.9716 147.34 53.8401 146.835 53.8401C146.35 53.8401 145.939 53.9674 145.601 54.2221C145.263 54.4768 145.006 54.8338 144.831 55.293C144.659 55.7523 144.574 56.293 144.574 56.9151Z" fill="#2E2849"/>
<path d="M154.441 65.3321C154.132 65.3321 153.846 65.307 153.583 65.2569C153.324 65.211 153.117 65.1567 152.963 65.0941L153.489 63.328C153.819 63.4241 154.113 63.47 154.372 63.4658C154.631 63.4616 154.858 63.3802 155.054 63.2216C155.255 63.0671 155.424 62.8082 155.562 62.445L155.756 61.9252L152.268 52.1053H154.672L156.889 59.37H156.99L159.213 52.1053H161.624L157.772 62.8897C157.593 63.399 157.355 63.8353 157.058 64.1986C156.762 64.566 156.399 64.8457 155.969 65.0377C155.543 65.234 155.034 65.3321 154.441 65.3321Z" fill="#2E2849"/>
<path d="M259.563 57.3451C259.281 56.8427 258.868 56.2346 258.322 55.5195C257.946 55.0597 257.669 54.6766 257.49 54.3701C257.311 54.0636 257.222 53.7827 257.222 53.5272C257.222 53.1016 257.376 52.5822 257.683 51.9692C257.802 51.7479 257.896 51.5265 257.964 51.3051C258.033 51.0838 258.067 50.922 258.067 50.8199C258.067 50.6326 257.973 50.4963 257.785 50.4112C257.597 50.3261 257.265 50.2835 256.787 50.2835C255.763 50.2835 255.089 50.6581 254.766 51.4073C254.254 52.5822 253.84 53.5102 253.525 54.1901C253.209 54.8712 252.898 55.4586 252.591 55.9524C252.224 56.5277 251.72 57.2234 251.082 58.0395C250.573 58.5017 250.015 58.8994 249.404 59.2327C248.423 59.769 247.549 60.0366 246.781 60.0366C245.586 60.0366 244.775 59.645 244.35 58.8617C246.363 58.3679 247.793 57.7002 248.636 56.8573C249.481 56.0145 249.903 55.0062 249.903 53.8313C249.903 52.8267 249.604 52.0312 249.007 51.4438C248.409 50.8564 247.616 50.5632 246.627 50.5632C245.518 50.5632 244.524 50.8612 243.645 51.4572C242.766 52.0531 242.08 52.8571 241.585 53.8702C241.09 54.8834 240.843 55.9768 240.843 57.1517C240.843 57.5311 240.87 57.8912 240.92 58.2354C240.554 58.6306 240.238 58.942 239.972 59.1694C239.494 59.5781 239.025 59.7824 238.564 59.7824C238.206 59.7824 237.912 59.5696 237.682 59.1439C237.451 58.7182 237.301 58.0116 237.234 57.0252C238.803 54.336 240.058 51.715 240.996 49.1609C241.935 46.608 242.404 44.3774 242.404 42.4715C242.404 41.1275 242.162 40.1229 241.675 39.4588C241.189 38.7948 240.579 38.4627 239.846 38.4627C238.361 38.4627 237.162 39.6328 236.251 41.9741C235.337 44.3141 234.719 47.1358 234.395 50.438C233.132 50.5742 231.994 51.012 230.978 51.7527C229.963 52.4934 229.165 53.447 228.585 54.6121C228.545 54.6924 228.507 54.7727 228.471 54.8542C227.667 55.0366 226.954 55.1473 226.334 55.1874C226.197 53.8763 225.733 52.7744 224.939 51.8804C224.145 50.9865 223.101 50.5401 221.804 50.5401C220.745 50.5401 219.782 50.8259 218.912 51.3951C218.042 51.9656 217.359 52.7574 216.865 53.7693C216.37 54.7824 216.123 55.9354 216.123 57.2295C216.123 57.5518 216.146 57.8644 216.189 58.1709C215.723 58.6051 215.254 58.9602 214.779 59.2339C213.969 59.7022 213.214 59.9357 212.514 59.9357C210.791 59.9357 209.93 58.9481 209.93 56.9741C209.93 56.2589 210.032 55.6046 210.237 55.0086C210.442 54.4127 210.715 53.9408 211.056 53.5917C211.398 53.2426 211.765 53.0687 212.157 53.0687C212.362 53.0687 212.519 53.1283 212.63 53.2475C212.741 53.3667 212.796 53.537 212.796 53.7583C212.796 53.9797 212.753 54.2181 212.668 54.4735C212.651 54.5416 212.625 54.6523 212.591 54.8055C212.557 54.9588 212.54 55.095 212.54 55.2142C212.54 55.4866 212.637 55.6995 212.834 55.8527C213.03 56.006 213.29 56.0826 213.614 56.0826C214.126 56.0826 214.539 55.8357 214.855 55.3419C215.171 54.8481 215.328 54.2436 215.328 53.5297C215.328 52.6613 215.067 51.951 214.548 51.3976C214.027 50.8442 213.298 50.5681 212.36 50.5681C211.404 50.5681 210.491 50.8491 209.622 51.411C208.751 51.9729 208.043 52.7732 207.498 53.8106C206.952 54.8493 206.679 56.057 206.679 57.4363C206.679 58.9858 207.143 60.2324 208.073 61.1763C209.003 62.1213 210.304 62.5932 211.976 62.5932C213.017 62.5932 214.095 62.3256 215.213 61.7892C215.889 61.4657 216.506 61.0583 217.066 60.5693C217.403 61.0765 217.825 61.5059 218.335 61.8537C219.061 62.3475 219.935 62.5944 220.959 62.5944C222.17 62.5944 223.253 62.1651 224.209 61.3052C225.164 60.4465 225.803 59.3008 226.128 57.8705C226.687 57.8474 227.223 57.7902 227.74 57.7039C227.723 57.9349 227.714 58.1697 227.714 58.4068C227.714 59.6499 228.05 60.6581 228.724 61.4329C229.398 62.2076 230.255 62.5944 231.296 62.5944C232.013 62.5944 232.64 62.4412 233.177 62.1347C233.715 61.8282 234.342 61.2249 235.058 60.3224C235.741 61.8379 236.73 62.5944 238.027 62.5944C238.846 62.5944 239.672 62.2928 240.509 61.6883C240.971 61.3538 241.412 60.9804 241.833 60.5706C241.98 60.7725 242.145 60.9622 242.325 61.1385C243.315 62.1091 244.705 62.5944 246.497 62.5944C247.81 62.5944 249.043 62.2709 250.194 61.6238C250.466 61.4706 250.723 61.3149 250.967 61.1544C251.208 61.0935 251.441 60.9525 251.665 60.7299C251.811 60.5888 251.953 60.4465 252.093 60.3018C252.385 60.0439 252.643 59.7776 252.869 59.5051C252.95 59.4103 253.022 59.3057 253.083 59.1913C253.178 59.0758 253.275 58.9602 253.367 58.8423C253.888 58.1782 254.412 57.3451 254.941 56.3404C255.18 56.6129 255.436 56.9315 255.709 57.2976C255.982 57.6637 256.208 58.042 256.387 58.4336C256.566 58.8252 256.664 59.2424 256.681 59.6851C256.527 59.6681 256.3 59.6389 256.003 59.5963C255.704 59.5538 255.443 59.5319 255.223 59.5319C254.591 59.5319 254.113 59.6936 253.789 60.0172C253.465 60.3407 253.303 60.7238 253.303 61.1665C253.303 61.6773 253.537 62.1371 254.006 62.5458C254.475 62.9544 255.153 63.1587 256.041 63.1587C256.809 63.1587 257.49 62.9629 258.087 62.5713C258.685 62.1797 259.149 61.6652 259.482 61.0267C259.815 60.3881 259.981 59.7119 259.981 58.9967C259.986 58.3959 259.844 57.8474 259.563 57.3451ZM237.759 47.1954C237.989 45.3406 238.266 43.8374 238.59 42.6892C238.914 41.5399 239.238 40.9658 239.563 40.9658C239.716 40.9658 239.848 41.1446 239.959 41.5022C240.07 41.8597 240.125 42.362 240.125 43.0091C240.125 45.5279 239.169 48.8653 237.259 53.0176C237.362 50.9914 237.529 49.0514 237.759 47.1954ZM222.584 59.2217C222.183 59.6644 221.71 59.8858 221.164 59.8858C220.669 59.8858 220.238 59.6389 219.871 59.1451C219.504 58.6513 219.322 57.9362 219.322 57.0009C219.322 55.8101 219.547 54.8858 219.999 54.2302C220.452 53.5747 221.018 53.2475 221.701 53.2475H221.829C221.778 53.5199 221.752 53.7924 221.752 54.0648C221.752 54.7119 221.893 55.3249 222.174 55.9038C222.456 56.4827 222.86 56.951 223.39 57.3086C223.253 58.1405 222.984 58.779 222.584 59.2217ZM233.165 59.617C232.841 59.8809 232.517 60.0123 232.192 60.0123C231.339 60.0123 230.912 59.3908 230.912 58.149C230.912 56.9741 231.223 55.9062 231.846 54.9442C232.469 53.9821 233.249 53.357 234.188 53.0675C234.154 53.987 234.137 54.6511 234.137 55.0585C234.137 56.1993 234.222 57.2283 234.393 58.1478C233.899 58.8642 233.489 59.3531 233.165 59.617ZM243.939 56.8209C243.939 55.7834 244.156 54.898 244.591 54.1658C245.027 53.4336 245.559 53.0675 246.191 53.0675C246.498 53.0675 246.741 53.166 246.92 53.3606C247.099 53.5564 247.188 53.8167 247.188 54.139C247.188 54.769 246.898 55.3224 246.317 55.7992C245.737 56.276 244.944 56.6335 243.938 56.8719L243.939 56.8209Z" fill="#2E2849"/>
<path fill-rule="evenodd" clip-rule="evenodd" d="M186.979 73.188C196.741 73.188 204.655 65.2922 204.655 55.5523C204.655 45.8124 196.741 37.9167 186.979 37.9167C177.217 37.9167 169.303 45.8124 169.303 55.5523C169.303 65.2922 177.217 73.188 186.979 73.188ZM185.997 60.7984C186.306 60.2253 186.46 59.5998 186.46 58.9219C186.46 58.5306 186.407 58.1496 186.302 57.7793C186.197 57.4088 186.046 57.0594 185.85 56.7309C185.654 56.4025 185.416 56.1019 185.136 55.8294C184.856 55.5568 184.544 55.3227 184.201 55.127C184.418 54.9313 184.61 54.7112 184.779 54.4666C184.954 54.222 185.101 53.9634 185.22 53.6908C185.339 53.4112 185.43 53.1282 185.493 52.8417C185.563 52.5482 185.598 52.2581 185.598 51.9715C185.598 51.3845 185.465 50.8359 185.199 50.3257C184.94 49.8085 184.579 49.3578 184.117 48.9734C183.661 48.582 183.129 48.2745 182.519 48.0509C181.91 47.8272 181.259 47.7154 180.565 47.7154C179.879 47.7154 179.231 47.8272 178.621 48.0509C178.012 48.2745 177.479 48.582 177.024 48.9734C176.569 49.3578 176.208 49.8085 175.942 50.3257C175.683 50.8359 175.553 51.3845 175.553 51.9715C175.553 52.2581 175.585 52.5482 175.648 52.8417C175.711 53.1282 175.802 53.4078 175.921 53.6804C176.047 53.9529 176.194 54.2115 176.362 54.4561C176.537 54.7007 176.733 54.9173 176.951 55.1061C176.6 55.3018 176.285 55.5393 176.005 55.8189C175.725 56.0915 175.483 56.392 175.28 56.7204C175.084 57.0489 174.933 57.4019 174.828 57.7793C174.723 58.1496 174.67 58.5306 174.67 58.9219C174.67 59.5998 174.825 60.2253 175.133 60.7984C175.441 61.3715 175.861 61.8677 176.394 62.2869C176.933 62.6994 177.56 63.0208 178.274 63.2514C178.989 63.4891 179.752 63.6079 180.565 63.6079C181.378 63.6079 182.141 63.4891 182.856 63.2514C183.57 63.0208 184.194 62.6994 184.726 62.2869C185.265 61.8677 185.689 61.3715 185.997 60.7984ZM182.477 51.6152C182.589 51.8247 182.646 52.0519 182.646 52.2965C182.646 52.5411 182.589 52.7683 182.477 52.978C182.372 53.1876 182.225 53.3693 182.036 53.5231C181.854 53.6769 181.637 53.7991 181.385 53.8899C181.132 53.9808 180.866 54.0263 180.586 54.0263C180.299 54.0263 180.029 53.9808 179.777 53.8899C179.525 53.7991 179.304 53.6769 179.115 53.5231C178.933 53.3693 178.786 53.1876 178.674 52.978C178.569 52.7683 178.516 52.5411 178.516 52.2965C178.516 52.0519 178.569 51.8247 178.674 51.6152C178.786 51.3984 178.933 51.2098 179.115 51.049C179.304 50.8884 179.525 50.7625 179.777 50.6716C180.029 50.5808 180.299 50.5354 180.586 50.5354C180.866 50.5354 181.132 50.5808 181.385 50.6716C181.637 50.7625 181.854 50.8884 182.036 51.049C182.225 51.2098 182.372 51.3984 182.477 51.6152ZM183.234 57.905C183.388 58.1916 183.465 58.5026 183.465 58.838C183.465 59.1735 183.388 59.4811 183.234 59.7605C183.087 60.04 182.88 60.2812 182.614 60.4839C182.355 60.6866 182.047 60.8473 181.689 60.9661C181.339 61.078 180.964 61.1338 180.565 61.1338C180.166 61.1338 179.791 61.078 179.441 60.9661C179.091 60.8473 178.782 60.6866 178.516 60.4839C178.257 60.2812 178.05 60.04 177.896 59.7605C177.749 59.4811 177.676 59.1735 177.676 58.838C177.676 58.5026 177.749 58.1916 177.896 57.905C178.05 57.6116 178.257 57.3564 178.516 57.1398C178.782 56.9232 179.091 56.7519 179.441 56.6261C179.791 56.5003 180.166 56.4374 180.565 56.4374C180.964 56.4374 181.339 56.5003 181.689 56.6261C182.047 56.7519 182.355 56.9232 182.614 57.1398C182.88 57.3564 183.087 57.6116 183.234 57.905ZM197.955 60.2113H199.458V57.2131H197.955V49.6967H194.939V57.2131H190.789L192.102 48.1872H189.087L187.406 60.2113H194.939V63.2199H197.955V60.2113Z" fill="#2E2849"/>
</g>
<defs>
<clipPath id="clip0_9_1089">
<rect width="260" height="74" fill="white"/>
</clipPath>
</defs>
</svg>
