<svg xmlns="http://www.w3.org/2000/svg" viewBox="0 0 1200 1200"><defs><style>.cls-1{fill:#002db3;fill-rule:evenodd;}.cls-2{fill:#fcfcfc;}.cls-3{fill:#fff;}</style></defs><g id="Background"><path class="cls-1" d="M133,0h935a133.07,133.07,0,0,1,133,133v935a133.07,133.07,0,0,1-133,133H133A133.07,133.07,0,0,1,0,1068V133A133.07,133.07,0,0,1,133,0Z"/></g><g id="Text"><path class="cls-2" d="M202,920.91l-2.65,98H161l7.41-176.46h39.75l42.39,112.34,42.4-112.34h39.74l7.42,176.46H301.66l-2.65-98-30.74,75.24h-35.5Z"/><path class="cls-2" d="M519.45,1018.94H478.12l-9.54-34.44H409.49L400,1018.94H358.62l53.79-176.46h53Zm-101-67.56H459L438.9,877.45Z"/><path class="cls-2" d="M540.65,1018.94V842.48h39.74v176.46Z"/><path class="cls-2" d="M616.16,1018.94V842.48h39.75V983.7h69.94v35.24Z"/><path class="cls-2" d="M748.37,1018.94V842.48h111v35.24H788.12V910h65.71v35.24H788.12V983.7h71.27v35.24Z"/><path class="cls-2" d="M952.92,964.09H929.61v54.85H889.86V842.48h73.4c42.92,0,58.82,17,58.82,50.08v21.72c0,22-8,36.83-25.7,44.25l42.65,60.41H991.87Zm29.41-67.82c0-13.25-5-18.55-21.19-18.55H929.61v51.93h31.53c17,0,21.19-6.09,21.19-19.34Z"/><path class="cls-3" d="M0,200.61,600,578.56,1201,200V130.79q0-6.64-.65-13.13L600,495.83.59,118.25C.21,122.38,0,126.56,0,130.79Z"/></g></svg>