<?xml version="1.0" encoding="UTF-8"?><svg id="Camada_2" xmlns="http://www.w3.org/2000/svg" viewBox="0 0 78.22 88.11"><defs><style>.cls-1{fill:none;}.cls-1,.cls-2,.cls-3{stroke-miterlimit:10;}.cls-1,.cls-3{stroke:#00b7c5;stroke-width:1.3px;}.cls-2{stroke:#f84f37;stroke-width:1.2px;}.cls-2,.cls-3{fill:#fff;}</style></defs><g id="Camada_1-2"><line class="cls-3" x1="5.3" y1="5.3" x2="72.92" y2="5.3"/><line class="cls-1" x1="5.3" y1="57.47" x2="5.3" y2="5.3"/><line class="cls-1" x1="72.92" y1="57.47" x2="5.3" y2="57.47"/><line class="cls-1" x1="72.92" y1="5.3" x2="72.92" y2="57.47"/><line class="cls-1" x1="72.92" y1="32.05" x2="5.3" y2="32.05"/><line class="cls-1" x1="5.3" y1="57.47" x2="39.18" y2="7.53"/><line class="cls-1" x1="72.92" y1="57.47" x2="39.18" y2="7.53"/><line class="cls-1" x1="69.41" y1="56.96" x2="39.18" y2="31.39"/><line class="cls-1" x1="7.24" y1="57.47" x2="39.18" y2="31.39"/><line class="cls-1" x1="7.24" y1="32.05" x2="35.85" y2="57.91"/><line class="cls-1" x1="39.11" y1="57.47" x2="8.66" y2="4.67"/><line class="cls-1" x1="35.37" y1="31.07" x2="8.66" y2="4.67"/><line class="cls-1" x1="38.42" y1="5.3" x2="6.57" y2="33.1"/><line class="cls-1" x1="7.14" y1="6.86" x2="37.09" y2="81.96"/><line class="cls-1" x1="41.08" y1="81.77" x2="71.4" y2="6.1"/><line class="cls-1" x1="69.88" y1="33.19" x2="42.22" y2="57.91"/><line class="cls-1" x1="41.17" y1="54.87" x2="69.69" y2="5.3"/><line class="cls-1" x1="71.02" y1="4.29" x2="42.31" y2="32.05"/><line class="cls-1" x1="69.41" y1="31.07" x2="41.84" y2="7.24"/><line class="cls-1" x1="8.28" y1="59.33" x2="35.66" y2="84.43"/><line class="cls-1" x1="43.07" y1="84.14" x2="71.31" y2="58.38"/><circle class="cls-2" cx="5.3" cy="5.3" r="4.7"/><circle class="cls-2" cx="39.18" cy="31.39" r="4.7"/><circle class="cls-2" cx="39.18" cy="5.3" r="4.7"/><circle class="cls-2" cx="72.92" cy="5.3" r="4.7"/><circle class="cls-2" cx="72.92" cy="31.39" r="4.7"/><circle class="cls-2" cx="5.3" cy="31.39" r="4.7"/><circle class="cls-2" cx="39.18" cy="57.47" r="4.7"/><circle class="cls-2" cx="72.92" cy="57.47" r="4.7"/><circle class="cls-2" cx="5.3" cy="57.47" r="4.7"/><circle class="cls-2" cx="39.18" cy="82.81" r="4.7"/></g></svg>