<?xml version="1.0" encoding="UTF-8"?><svg id="Camada_2" xmlns="http://www.w3.org/2000/svg" viewBox="0 0 78.42 88.31"><defs><style>.cls-1{fill:none;}.cls-1,.cls-2{stroke:#00b7c5;stroke-width:1.3px;}.cls-1,.cls-2,.cls-3{stroke-miterlimit:10;}.cls-2,.cls-3{fill:#fff;}.cls-3{stroke:#f84f37;stroke-width:1.4px;}</style></defs><g id="Camada_1-2"><line class="cls-2" x1="5.4" y1="5.4" x2="73.02" y2="5.4"/><line class="cls-1" x1="5.4" y1="57.57" x2="5.4" y2="5.4"/><line class="cls-1" x1="73.02" y1="57.57" x2="5.4" y2="57.57"/><line class="cls-1" x1="73.02" y1="5.4" x2="73.02" y2="57.57"/><line class="cls-1" x1="73.02" y1="32.15" x2="5.4" y2="32.15"/><line class="cls-1" x1="5.4" y1="57.57" x2="39.28" y2="7.63"/><line class="cls-1" x1="73.02" y1="57.57" x2="39.28" y2="7.63"/><line class="cls-1" x1="69.51" y1="57.06" x2="39.28" y2="31.49"/><line class="cls-1" x1="7.34" y1="57.57" x2="39.28" y2="31.49"/><line class="cls-1" x1="7.34" y1="32.15" x2="35.95" y2="58.01"/><line class="cls-1" x1="39.21" y1="57.57" x2="8.76" y2="4.77"/><line class="cls-1" x1="35.47" y1="31.17" x2="8.76" y2="4.77"/><line class="cls-1" x1="38.52" y1="5.4" x2="6.67" y2="33.2"/><line class="cls-1" x1="7.24" y1="6.96" x2="37.19" y2="82.06"/><line class="cls-1" x1="41.18" y1="81.87" x2="71.5" y2="6.2"/><line class="cls-1" x1="69.98" y1="33.29" x2="42.32" y2="58.01"/><line class="cls-1" x1="41.27" y1="54.97" x2="69.79" y2="5.4"/><line class="cls-1" x1="71.12" y1="4.39" x2="42.41" y2="32.15"/><line class="cls-1" x1="69.51" y1="31.17" x2="41.94" y2="7.34"/><line class="cls-1" x1="8.38" y1="59.43" x2="35.76" y2="84.53"/><line class="cls-1" x1="43.17" y1="84.24" x2="71.41" y2="58.48"/><circle class="cls-3" cx="5.4" cy="5.4" r="4.7"/><circle class="cls-3" cx="39.28" cy="31.49" r="4.7"/><circle class="cls-3" cx="39.28" cy="5.4" r="4.7"/><circle class="cls-3" cx="73.02" cy="5.4" r="4.7"/><circle class="cls-3" cx="73.02" cy="31.49" r="4.7"/><circle class="cls-3" cx="5.4" cy="31.49" r="4.7"/><circle class="cls-3" cx="39.28" cy="57.57" r="4.7"/><circle class="cls-3" cx="73.02" cy="57.57" r="4.7"/><circle class="cls-3" cx="5.4" cy="57.57" r="4.7"/><circle class="cls-3" cx="39.28" cy="82.91" r="4.7"/></g></svg>