<?xml version="1.0" encoding="utf-8"?>
<!-- Generator: Adobe Illustrator 26.5.0, SVG Export Plug-In . SVG Version: 6.00 Build 0)  -->
<svg version="1.1" id="Camada_2_00000103232325802186023590000012172666285158764434_"
	 xmlns="http://www.w3.org/2000/svg" xmlns:xlink="http://www.w3.org/1999/xlink" x="0px" y="0px" viewBox="0 0 336.8 336.8"
	 style="enable-background:new 0 0 336.8 336.8;" xml:space="preserve">
<style type="text/css">
	.st0{fill:#364F9E;}
	.st1{fill:#C92366;}
</style>
<g id="Layer_1">
	<g>
		<path class="st0" d="M21,134.8c6.4,0,11.3,1.8,14.5,5.5c3.3,3.5,5,8,5,13.1s-1.7,9.4-5.1,13c-3.4,3.5-8.5,5.4-15.2,5.4H9.9v21.7
			H0.7v-58.7L21,134.8L21,134.8z M20.5,163.4c7.1,0,10.7-4.6,10.7-10.1s-3.5-9.8-9.8-9.8H9.9v19.9H20.5z"/>
		<path class="st0" d="M59.5,193.5h-8.8v-60.3h8.8V193.5z"/>
		<path class="st0" d="M106.7,150.7h8.4v42.8h-8.4v-5.9c-3.9,4.6-8.8,6.9-14.7,6.9c-5.9,0-11.3-2.1-15.3-6.5c-4.1-4.4-6-9.7-6-16.2
			s2-11.7,6-15.9c4.1-4.2,9.2-6.3,15.3-6.3c5.8,0,10.7,2.4,14.7,6.9L106.7,150.7L106.7,150.7z M103.2,182.4
			c2.6-2.7,3.9-6.2,3.9-10.2s-1.3-7.3-3.9-10.2c-2.6-2.7-5.9-4.2-10-4.2c-4,0-7.3,1.4-10,4.2c-2.5,2.7-3.8,6.2-3.8,10.2
			s1.3,7.5,3.8,10.2c2.5,2.7,5.9,4.2,10,4.2C97.3,186.6,100.6,185.1,103.2,182.4z"/>
		<path class="st0" d="M132.5,188.1c-4.2-4.2-6.4-9.6-6.4-16.1c0-6.6,2.1-11.9,6.4-16.1c4.3-4.2,9.8-6.4,16.5-6.4
			c8.7,0,16.2,4.3,19.7,11.4l-7.2,4.1c-2.6-4.6-7.3-7.5-12.4-7.5c-4.1,0-7.5,1.3-10.2,4.2c-2.7,2.7-4.1,6.2-4.1,10.3
			c0,4.2,1.3,7.3,3.9,10.2c2.6,2.7,5.9,4.2,10,4.2c5.1,0,10.2-3.1,12.4-7.3l7.2,4.2c-3.5,6.7-11.3,11.1-19.8,11.1
			C142.2,194.4,136.7,192.4,132.5,188.1L132.5,188.1z"/>
		<path class="st0" d="M218.7,175.4h-33.4c1.3,6.7,5.9,11.3,14.3,11.3c4.9,0,10.7-1.8,14.5-4.6l3.7,6.4c-4.3,3.3-11.3,5.9-18.5,5.9
			c-16.1,0-22.9-11.3-22.9-22.5c0-6.4,2-11.8,6-16c4.1-4.2,9.4-6.4,15.9-6.4c6.4,0,11.3,2,15.1,5.8c3.9,3.9,5.9,9.2,5.9,15.9
			C219.1,172.4,219,173.9,218.7,175.4L218.7,175.4z M185.3,168.3h24.9c-0.7-6.8-5.8-11.1-12.2-11.1S186.7,161.7,185.3,168.3z"/>
		<path class="st1" d="M236.6,185.8c-5.8-5.8-8.7-13-8.7-21.3c0-8.4,2.9-15.7,8.9-21.7c5.9-5.9,13.1-9,21.5-9
			c8.4,0,15.6,2.9,21.6,8.9c5.9,5.9,8.9,13.1,8.9,21.5c0,8.4-2.9,15.6-8.9,21.5c-5.9,5.9-13.2,8.8-21.9,8.8
			C249.5,194.5,242.3,191.6,236.6,185.8L236.6,185.8z M273.1,179.5c4.1-4.1,6.2-9.2,6.2-15.2c0-6-2.1-11.3-6.2-15.3
			c-4-4-9-6.2-14.8-6.2c-5.8,0-10.7,2.1-14.8,6.2s-6,9.2-6,15.2s2,11,5.9,15.1c4.1,4.1,9,6.2,14.9,6.2
			C264.2,185.5,269,183.6,273.1,179.5z"/>
		<path class="st1" d="M296,182.8l6.2-5.9c3.3,5.9,8.8,9,14.5,9c5.8,0,10-3.5,10-8c0-2.9-2-5.5-5.8-7.6c-0.9-0.5-2.9-1.3-5.9-2.6
			c-2.9-1.3-5.2-2.5-6.8-3.3c-5.9-3.5-8.9-8.4-8.9-14.3c0-4.6,1.7-8.5,5.1-11.7c3.4-3.1,7.9-4.7,13.4-4.7c7.3,0,13.4,2.7,17.8,8.4
			l-5.6,6.3c-3.3-4.1-7.3-6-12.2-6c-5.1,0-8.8,2.7-8.8,7.2c0,2.7,1.7,5.1,5,6.9c1.1,0.5,3.1,1.7,6.5,3.3s5.8,2.7,7.2,3.5
			c5.9,3.3,9,8,9,14c0,5-2,9.2-5.6,12.4c-3.8,3.1-8.7,4.7-14.4,4.7C308.2,194.4,300.2,190.3,296,182.8L296,182.8z"/>
	</g>
</g>
</svg>
