<svg xmlns="http://www.w3.org/2000/svg" width="210mm" height="57.3mm" viewBox="0 0 595.28 162.43">
  <defs>
    <style>
      .a {
        fill: #f28c00;
      }
    </style>
  </defs>
  <title>texenergo-desktop</title>
  <path class="a" d="M303.52,85.05H303A152.7,152.7,0,0,0,296.26,70c-4.05-7.64-13.45-25.27-13.45-25.27h-18.9v72.82h17.26V75.63h.53A122.11,122.11,0,0,0,288.2,90c4.4,8,14.88,27.53,14.88,27.53h17.69V44.71H303.52ZM202.28,117.54h49.5v-16H220.17V88.8h27v-16h-27V60.67h31v-16H202.28Zm-77.51-16H93.16V88.8h27v-16h-27V60.67h31v-16H75.27v72.83h49.5Zm-10,60.85,49.05-44.89H150.5l12-21.75,12,21.75h20.89l-22.58-37.8,24.23-42h-9.24l20.47-35.5L208,2,161.34,44.71h12.17L162.7,65.06,151.87,44.71H131.08l21.33,35.82L126.9,124.74h9.27l-21.65,37.51ZM11.14,60.67H29.05v56.87H46.94V60.67h17.9v-16H11.14Zm545.28-17.1c-16,0-27.73,10.43-27.73,29.9v15.9c0,19.38,12.28,29.31,27.73,29.31,17.06,0,27.72-11.84,27.72-29.31V73.47C584.14,53.82,572.25,43.57,556.42,43.57Zm0,59.15c-5.08,0-9.82-2.42-9.82-15.5V75.46c0-12.65,3.93-15.94,9.82-15.94,6.1,0,9.76,3.5,9.81,15.94,0,.31,0,11.43,0,11.76C566.24,100.52,561.4,102.72,556.42,102.72Zm-104-34.59c0-12-8.69-23.42-24.85-23.42H398.74v72.83h17.9V90.43h6l12.88,27.11h20.77L440.58,87.15a20.92,20.92,0,0,0,11.86-19M426.23,75.5h-9.59V60.77h9.59c5.36,0,8.31,2.73,8.31,7.36s-3,7.37-8.31,7.37m-89.13,42h49.51v-16H355V88.8h27v-16H355V60.67h31.61v-16H337.1ZM517.46,76.69V89.37c0,17.47-10.66,29.31-27.72,29.31-15.45,0-27.72-9.93-27.72-29.31V73.47c0-19.47,11.7-29.9,27.72-29.9,14.2,0,25.23,8.26,27.35,24.13H498.85c-1.34-6.22-4.55-8.19-9.11-8.19-5.89,0-9.79,3.3-9.82,15.95V87.22c0,13.08,4.74,15.5,9.82,15.5,4.45,0,8.79-1.76,9.66-11.66h-9.78V76.69Z"/>
</svg>
