<?xml version="1.0" encoding="UTF-8"?><svg id="Camada_2" xmlns="http://www.w3.org/2000/svg" viewBox="0 0 103.17 102.26"><defs><style>.cls-1{fill:#dedee6;}.cls-1,.cls-2{fill-rule:evenodd;}.cls-2{fill:#7d7d8d;}</style></defs><g id="screenshot"><circle cx="51.58" cy="51.24" r="51.02"/><g id="shape-1a0c6a6d-ddc1-11eb-a240-f339d1219827"><g id="shape-1a0c6a6e-ddc1-11eb-a240-f339d1219827"><g id="shape-1a0c9172-ddc1-11eb-a240-f339d1219827"><g id="Page-Flow"><g id="shape-1a0c9173-ddc1-11eb-a240-f339d1219827"><g id="_0a---Loading"><g id="shape-1a0c9174-ddc1-11eb-a240-f339d1219827"><g id="logo-full"><g id="shape-1a0c9176-ddc1-11eb-a240-f339d1219827"><g id="vulk-marque"><g id="shape-1a0c9177-ddc1-11eb-a240-f339d1219827"><path id="Shape-path" class="cls-1" d="M103.17,51.38C103.17,23,80.07,0,51.58,0S0,23,0,51.38c0,11.67,3.91,22.44,10.49,31.06,0,0,14.87-12.04,13.38-15.23-2.34-3.33-2.5-.97-7.35-3.87-2.35-1.41-2.21-3.31,.83-4.01,3.04-.7,4.8-2.5,6.52-3.04,1.73-.54,6.48-3.24,8.4-4.6,1.92-1.37,6.33-6.7,9.48-9.2,3.15-2.5,12.4-5.69,12.4-5.69l3.04,.61,4.62-.48s13.17-11.93,15.45-13.56c2.28-1.63,3.11,2.14,3.11,2.14,0,0,.8,.9,2.34,3.2,1.55,2.32,1.57,5.3,1.47,7.37-.1,2.07-1.67,8.19-1.67,8.19,0,0,2.68-.21,3.49,.41,.81,.62,1.2,2.02,.81,3.55-.38,1.53-1.56,4.02-2.82,5.87-1.26,1.85-4.55,7.04-4.55,7.04,0,0-7.06,7.68-4.85,20.32,1.38,7.91-2.39,17.03-2.39,17.03,18.23-7.92,30.98-26.04,30.98-47.12Z"/></g><g id="shape-1a0c9178-ddc1-11eb-a240-f339d1219827"><path id="Shape" class="cls-2" d="M79.69,45.42l2.68-1.17s1.67-10.09,.83-9.95c-.84,.14-3.8,2.51-6.3,6.42-.78,.78-6.63,6.25-6.63,6.25,0,0-.79,1.49-.36,3,.51,1.81,4.31-.29,5.28-1.16,.98-.87,2.8-2.42,2.8-2.42l-.37-2.66,2.07,1.69Z"/></g><g id="shape-1a0c9179-ddc1-11eb-a240-f339d1219827"><path id="Shape-2" class="cls-2" d="M56.82,41.1c-1.17,.61-.8,.32-2.09,.47s-2.09-.38-2.68-.09c-.58,.29-1.67,3.33-1.67,3.33,0,0,4.01-1.57,4.62-1.94,.61-.37,.73-.53,.73-.53,0,0,.31-.33,1.32-1.12,1.02-.79,1.55-1.83,1.55-1.83l-1.79,1.71Z"/></g></g></g></g></g></g></g></g></g></g></g></g></svg>