<svg xmlns="http://www.w3.org/2000/svg" viewBox="0 0 64 64"><defs><style>.cls-1{fill:#fdb71b;}.cls-2{fill:#f68026;}.cls-3{fill:#f36523;}.cls-4{fill:#f79220;}</style></defs><title>Protel</title><g id="Layer_2" data-name="Layer 2"><g id="svg3118"><path class="cls-1" d="M55.22,10A32,32,0,1,0,64,32,32,32,0,0,0,55.22,10ZM44.43,44.93A17.95,17.95,0,1,1,49.94,32,17.88,17.88,0,0,1,44.43,44.93Z"/><path class="cls-2" d="M32,14.06a17.92,17.92,0,0,1,5.59.89L41.74,1.52A32,32,0,0,0,25.93.58L20.48,18.25A17.87,17.87,0,0,1,32,14.06Z"/><path class="cls-3" d="M14.06,32a17.9,17.9,0,0,1,6.42-13.75L25.93.58A32,32,0,0,0,9.27,54.52l5.46-17.66A17.94,17.94,0,0,1,14.06,32Z"/><path class="cls-4" d="M49.56,28.32,55.22,10A32,32,0,0,0,41.74,1.52L37.59,15A18,18,0,0,1,49.56,28.32Z"/><path class="cls-4" d="M32,49.94a17.94,17.94,0,0,1-5-.71L22.86,62.67a32,32,0,0,0,15.91.61l5.67-18.35A17.88,17.88,0,0,1,32,49.94Z"/><path class="cls-2" d="M14.73,36.86,9.27,54.52a32,32,0,0,0,13.58,8.14L27,49.23A18,18,0,0,1,14.73,36.86Z"/></g></g></svg>