<?xml version="1.0" encoding="UTF-8"?><svg id="Camada_2" xmlns="http://www.w3.org/2000/svg" viewBox="0 0 20.12 23"><g id="Layer_1"><path d="M7.98,9.65c-.66,0-1.17,.57-1.17,1.28s.53,1.28,1.17,1.28,1.17-.57,1.17-1.28c.01-.7-.52-1.28-1.17-1.28Zm4.2,0c-.66,0-1.17,.57-1.17,1.28s.53,1.28,1.17,1.28,1.17-.57,1.17-1.28-.52-1.28-1.17-1.28Z"/><path d="M17.77,0H2.36C1.06,0,0,1.06,0,2.37v15.55c0,1.31,1.06,2.37,2.36,2.37H15.4l-.61-2.13,1.47,1.37,1.39,1.29,2.47,2.18V2.37c0-1.31-1.06-2.37-2.36-2.37Zm-4.44,15.02s-.41-.49-.76-.93c1.51-.43,2.08-1.37,2.08-1.37-.47,.31-.92,.53-1.32,.68-.57,.24-1.13,.4-1.67,.49-1.1,.21-2.12,.15-2.98-.01-.66-.13-1.22-.31-1.69-.49-.26-.1-.55-.23-.84-.39-.03-.02-.07-.03-.1-.06-.02-.01-.03-.02-.05-.03-.21-.11-.32-.2-.32-.2,0,0,.55,.92,2.01,1.36-.35,.44-.77,.95-.77,.95-2.54-.08-3.51-1.75-3.51-1.75,0-3.7,1.66-6.7,1.66-6.7,1.66-1.24,3.23-1.21,3.23-1.21l.11,.14c-2.07,.6-3.02,1.51-3.02,1.51,0,0,.25-.14,.68-.33,1.23-.54,2.21-.69,2.61-.72,.07-.01,.13-.02,.2-.02,.7-.09,1.49-.11,2.32-.02,1.09,.13,2.27,.45,3.46,1.1,0,0-.91-.86-2.86-1.46l.16-.18s1.58-.03,3.23,1.21c0,0,1.66,3,1.66,6.7,0,0-.98,1.67-3.52,1.75h0Z"/></g></svg>