<?xml version="1.0" encoding="UTF-8"?><svg id="Camada_2" xmlns="http://www.w3.org/2000/svg" viewBox="0 0 26 16.92"><defs><style>.cls-1{fill:#231f20;}</style></defs><g id="Layer_1"><g id="Layer_2"><g id="Layer_1-2"><path class="cls-1" d="M8.6,6.72v3.4h4.6c-.7,2.2-1.9,3.4-4.6,3.4s-5-2.2-5-5S5.9,3.52,8.6,3.52c1.2,0,2.4,.4,3.3,1.2,.7-.7,.6-.8,2.4-2.5C10.8-.98,5.4-.68,2.2,2.82h0C.8,4.32,0,6.32,0,8.42c0,4.7,3.9,8.5,8.6,8.5h0c7.1,0,8.8-6.1,8.2-10.1l-8.2-.1Zm14.4,.2V3.92h-2v3h-3v2h3v3h2v-3h3v-2h-3Z"/></g></g></g></svg>