<?xml version="1.0" encoding="UTF-8"?><svg id="Camada_2" xmlns="http://www.w3.org/2000/svg" viewBox="0 0 22 16.94"><g id="Layer_1"><path id="libera" d="M8.87,.01h0s-.04,.01-.06,.01c-.03,.01-.05,.01-.07,.02-.02,0-.04,0-.06,.01-.02,0-.04,.01-.06,.01-.02,.01-.04,.01-.06,.02-.02,0-.04,.01-.06,.01s-.04,.01-.06,.01c-.02,.01-.04,.01-.06,.02-.02,0-.04,.01-.06,.01-.02,.01-.04,.01-.06,.02-.02,0-.04,.01-.06,.01-.02,.01-.04,.01-.06,.02-.02,0-.04,.01-.06,.01-.02,.01-.04,.02-.06,.02-.02,.01-.04,.01-.06,.02-.02,0-.04,.01-.06,.02-.02,0-.04,.01-.06,.01-.02,.01-.04,.01-.06,.02-.02,.01-.04,.01-.06,.02-.02,0-.03,.01-.05,.02-.02,0-.04,.01-.06,.02-.02,0-.04,.01-.06,.01-.02,.01-.04,.02-.06,.03-.02,0-.04,.01-.06,.01-.02,.01-.04,.02-.06,.02-.02,.01-.04,.02-.06,.02-.02,.01-.04,.02-.06,.02-.02,.01-.03,.02-.05,.03-.02,0-.04,.01-.06,.02-.02,.01-.04,.01-.06,.02-.02,.01-.04,.01-.06,.02-.02,.01-.04,.02-.05,.02-.03,.01-.04,.02-.06,.03-.02,0-.04,.01-.06,.02,0,0-.02,.01-.04,.01,1.06,3.5,2.11,6.99,3.17,10.48l.49-.57L8.87,.01Zm4.21-.01l-1.16,8.83,.93-1.09,.19,.29L15.11,.59s-.04-.01-.05-.02c-.02-.01-.04-.01-.06-.02-.02-.01-.04-.02-.06-.02-.02-.01-.04-.02-.06-.02-.02-.01-.04-.02-.05-.03-.02,0-.04-.01-.06-.02-.02-.01-.04-.01-.06-.02-.02-.01-.04-.01-.06-.02-.02-.01-.04-.01-.06-.02-.02-.01-.04-.01-.06-.02-.02-.01-.04-.01-.06-.02,0-.01-.03-.01-.06-.02,0,0-.03-.01-.05-.02-.02,0-.04-.01-.06-.02-.02,0-.04-.01-.06-.01-.02-.01-.04-.02-.06-.02-.02-.01-.04-.01-.06-.02-.02,0-.04-.01-.06-.02-.02,0-.04-.01-.06-.01-.02-.01-.04-.01-.06-.02-.02-.01-.04-.01-.06-.02-.02,0-.04-.01-.06-.01-.02-.01-.04-.01-.06-.02-.02,0-.04-.01-.06-.01-.02-.01-.04-.01-.06-.02-.02,0-.04-.01-.06-.01-.02-.01-.04-.01-.06-.02-.02,0-.04-.01-.06-.01-.02-.01-.04-.01-.06-.01-.02-.01-.04-.01-.06-.02-.02,0-.04-.01-.06-.01s-.04-.01-.06-.01c-.02-.01-.04-.01-.06-.02-.02,0-.04,0-.06-.01h-.02ZM3.16,3.06s-.03,.02-.04,.03c0,.02-.03,.03-.04,.05-.02,.01-.03,.03-.04,.04-.02,.02-.03,.03-.05,.05,0,.01-.02,.03-.04,.04,0,.02-.03,.03-.04,.05-.02,.01-.03,.03-.04,.04-.02,.02-.03,.03-.04,.05-.02,.01-.03,.03-.05,.04,0,.02-.02,.03-.04,.05,0,.02-.03,.03-.04,.04,0,.02-.02,.04-.04,.05,0,.02-.03,.03-.04,.05,0,.01-.03,.03-.04,.04,0,.02-.02,.04-.04,.05,0,.02-.03,.03-.04,.05s-.02,.03-.04,.05c0,.01-.02,.03-.04,.04,0,.02-.02,.04-.04,.05,0,.02-.02,.04-.03,.05-.02,.02-.03,.03-.04,.05,0,.01-.03,.03-.04,.05,0,.01-.03,.03-.04,.05,0,.01-.02,.03-.04,.04l-.03,.06s-.03,.03-.04,.04c0,.02-.02,.04-.03,.05-.02,.02-.03,.04-.04,.05,0,.02-.02,.04-.04,.05,0,.02-.02,.04-.03,.05,0,.02-.03,.04-.04,.05,0,.02-.02,.04-.03,.05,0,.02-.03,.04-.04,.05l-.03,.06s-.02,.03-.04,.05h0l6.04,6.6,.46-.59h.02S3.16,3.06,3.16,3.06Zm15.56-.12l-4.46,7.04,.5,.82,5.41-6.13s-.02-.03-.03-.04c-.01-.02-.02-.03-.03-.05-.02-.02-.03-.04-.04-.05-.01-.02-.02-.04-.03-.05-.01-.02-.03-.04-.04-.05-.01-.02-.02-.04-.04-.05-.01-.02-.02-.04-.03-.05-.01-.02-.02-.04-.04-.05-.01-.02-.02-.04-.03-.05-.02-.02-.03-.04-.04-.05-.01-.02-.02-.03-.04-.05-.01-.02-.02-.03-.03-.05-.02-.02-.03-.03-.04-.05-.01-.01-.03-.03-.04-.05-.01-.01-.03-.03-.04-.05l-.04-.04s-.02-.04-.04-.05c-.01-.02-.02-.03-.04-.05-.01-.01-.02-.03-.04-.04-.01-.02-.02-.04-.03-.05l-.05-.05s-.02-.03-.03-.05c-.02-.01-.03-.03-.05-.04-.01-.02-.02-.03-.04-.05-.01-.01-.02-.03-.04-.05l-.04-.04s-.03-.03-.04-.05l-.04-.04s-.03-.03-.04-.05c-.02-.01-.03-.03-.05-.04-.01-.02-.02-.03-.04-.05l-.04-.04s-.03-.03-.04-.04l-.05-.05-.04-.04s-.03-.03-.04-.05c-.02-.01-.03-.02-.05-.04h0ZM.2,8.61s0,.04,0,.06,0,.04,0,.06c0,.02,0,.04,0,.06,0,.02,0,.04,0,.06,0,.02,0,.04,0,.06,0,.02,0,.04,0,.06,0,.02,0,.05,0,.06,0,.02,0,.04,0,.06,0,.03,0,.05,0,.07s0,.04,0,.06,0,.04,0,.06v.06s0,.04,0,.06c0,.02,0,.04,0,.06s0,.04,0,.06v.06s0,.04,0,.06,0,.04,0,.06v.13s0,.04,0,.06v.06s0,.04,0,.06v.06s0,.04,0,.06v.19s0,.04,0,.06v.35l6.44,2.42,.5-.65L.2,8.61Zm21.63,.19l-6.13,3.5,.48,.77,5.82-2.11v-.62s-.01-.05-.01-.07v-.12s-.01-.04-.01-.06v-.12s-.01-.04-.01-.06v-.06s-.01-.05-.01-.07v-.06s-.01-.04-.01-.06,0-.04-.01-.06v-.06s0-.04-.01-.06v-.06s-.01-.04-.01-.06c-.01-.02-.01-.04-.01-.06,0-.03,0-.05-.01-.07,0-.01,0-.03-.01-.06,0-.02,0-.04-.01-.06v-.06s-.01-.04-.01-.06c-.01-.02-.01-.04-.01-.06-.01-.02-.01-.04-.01-.06-.01-.02-.01-.04-.01-.06h-.01s0-.01,0-.01ZM.89,14.97s0,.03,.02,.04l.03,.06s0,.04,.02,.06c0,.02,.02,.03,.03,.05,0,.02,0,.04,.02,.06,0,.02,.02,.04,.03,.05,0,.02,0,.04,.02,.06,0,.02,.02,.04,.03,.05l.03,.06,.03,.06s0,.03,.02,.05l.03,.06s.02,.03,.03,.05c0,.02,.02,.04,.03,.05l.03,.06s.02,.03,.03,.05l.03,.06s0,.03,.03,.05c0,.02,.02,.04,.03,.05,0,.02,.02,.04,.03,.06,0,.01,.02,.03,.03,.05,0,.02,.02,.04,.03,.05l.03,.06s.02,.03,.03,.05c0,.02,.02,.03,.03,.05,0,.02,.02,.04,.03,.05,.02,.02,.03,.04,.04,.06,0,.01,.02,.03,.03,.05,0,.01,.02,.03,.03,.05,0,.02,.03,.03,.04,.05s.02,.04,.03,.05c0,.02,.02,.04,.04,.05,0,.02,.02,.04,.03,.05l.03,.06s.03,.03,.04,.05c0,.01,.02,.03,.03,.05,.02,.01,.03,.03,.04,.05h0l1.89-.42,.04-.05h-.05l1.18-1.52-4.17,.02Zm16.51,.05l.91,1.52,1.7,.38s.01-.01,.01-.02c.02-.02,.03-.03,.04-.05,.01-.02,.02-.03,.03-.05,.02-.02,.03-.03,.04-.05,.01-.02,.02-.03,.03-.05,.01-.02,.03-.03,.04-.05,.01-.02,.02-.04,.03-.05,.01-.02,.02-.04,.03-.06,.01-.01,.03-.03,.04-.05,.01-.01,.02-.03,.03-.05,.01-.02,.02-.03,.03-.05,.01-.02,.02-.04,.04-.05,.01-.02,.02-.04,.03-.06,.01-.01,.02-.03,.03-.05,.01-.02,.02-.03,.03-.05,.01-.02,.02-.04,.03-.06,.01-.01,.02-.03,.03-.05,.01-.02,.02-.03,.03-.05,.01-.02,.02-.04,.03-.05,.01-.02,.03-.04,.03-.06,.01-.02,.02-.03,.03-.05,.01-.02,.02-.04,.03-.06,.01-.01,.02-.03,.03-.05,.01-.02,.02-.04,.03-.05,.01-.02,.02-.04,.03-.06s.02-.04,.03-.05c.01-.02,.02-.04,.03-.06,0-.02,.01-.03,.02-.05,.01-.02,.02-.04,.03-.06s.02-.04,.03-.05c.01-.02,.02-.04,.02-.06,.01-.02,.02-.04,.03-.05,.01-.02,.02-.04,.03-.06,0-.02,.01-.04,.02-.06,.01-.02,.02-.03,.03-.05h0l-3.66-.07Zm-4.41-7.56l-3.2,3.66-1.47-.65-4.77,6.13h.42s2.97-3.79,4.45-5.7l1.46,.64,3.06-3.5c1.69,2.89,3.52,5.66,5.18,8.56h.42L12.99,7.46Zm-.06,1.1l-2.97,3.41-1.46-.6-4.1,5.23h.45l3.76-4.81,1.44,.59,2.83-3.24,4.45,7.48h.44s-4.84-8.06-4.84-8.06Zm-7.64,8.03l3.43-4.37,1.47,.6,2.67-3.07,4.01,6.85H5.29Z"/></g></svg>