<?xml version="1.0" encoding="UTF-8"?><svg id="Camada_2" xmlns="http://www.w3.org/2000/svg" viewBox="0 0 22.05 20.01"><g id="Layer_1"><path d="M22.05,9.51c0-1.4-1.1-2.5-2.5-2.5-1,0-1.9,.6-2.3,1.4-1.6-.8-3.4-1.3-5.3-1.4V3.01h3.3c.6,1,1.8,1.3,2.7,.7,1.1-.5,1.4-1.7,.8-2.7s-1.7-1.3-2.7-.7c-.3,.2-.6,.4-.7,.7h-3.3c-1.1,0-2,.9-2,2V7.01c-1.8,.1-3.6,.6-5.3,1.4-.6-1.3-2.1-1.8-3.3-1.2C.15,7.81-.35,9.31,.25,10.51c.2,.5,.7,.9,1.2,1.2-.3,.6-.4,1.2-.4,1.8,0,3.6,4.5,6.5,10,6.5s10-2.9,10-6.5c0-.6-.1-1.2-.4-1.8,.9-.4,1.4-1.3,1.4-2.2ZM7.05,14.01c-1.1,0-2-.9-2-2s.9-2,2-2,2,.9,2,2-.9,2-2,2Zm8,0c-1.1,0-2-.9-2-2s.9-2,2-2,2,.9,2,2-.9,2-2,2Z"/></g></svg>