<?xml version="1.0" encoding="UTF-8"?>
<svg width="24px" height="24px" viewBox="0 0 24 24" version="1.1" xmlns="http://www.w3.org/2000/svg" xmlns:xlink="http://www.w3.org/1999/xlink">
    <title>Icon - Shuttle</title>
    <g id="Icon---Shuttle" stroke="none" stroke-width="1" fill="none" fill-rule="evenodd">
        <path d="M12,4 C13.104,4 14,4.896 14,6 L10,6 C10,4.896 10.896,4 12,4 L12,4 Z M21,20 C21,18.079 20.237,16.237 18.879,14.879 L15,11 L15,5 C15,3.343 13.657,2 12,2 C10.343,2 9,3.343 9,5 L9,11 L5.121,14.879 C3.763,16.237 3,18.079 3,20 L9,20 L9,22 L15,22 L15,20 L21,20 Z" id="Fill-2" fill="#000000"></path>
    </g>
</svg>