<?xml version="1.0" encoding="UTF-8"?><svg id="Camada_2" xmlns="http://www.w3.org/2000/svg" viewBox="0 0 24 20"><defs><style>.cls-1{fill-rule:evenodd;}</style></defs><g id="Layer_1"><path id="telegram" class="cls-1" d="M18.38,19.78c.32,.23,.74,.29,1.11,.14,.37-.14,.64-.46,.72-.84,.87-4.08,2.98-14.42,3.77-18.14,.06-.28-.04-.57-.26-.76-.22-.19-.53-.24-.8-.14C18.73,1.6,5.82,6.45,.54,8.4,.21,8.52-.01,8.85,0,9.2c.01,.35,.25,.66,.59,.76,2.37,.71,5.47,1.69,5.47,1.69,0,0,1.45,4.39,2.21,6.61,.1,.28,.31,.5,.6,.58,.29,.07,.6,0,.81-.21,1.22-1.15,3.1-2.92,3.1-2.92,0,0,3.57,2.62,5.6,4.06ZM7.37,11.1l1.68,5.54,.37-3.51S15.91,7.28,19.61,3.95c.11-.1,.12-.26,.03-.38-.09-.11-.25-.14-.38-.06-4.29,2.74-11.89,7.6-11.89,7.6Z"/></g></svg>