<?xml version="1.0" encoding="UTF-8"?><svg id="Camada_2" xmlns="http://www.w3.org/2000/svg" viewBox="0 0 22.1 18"><g id="Layer_1"><path d="M19.8,4.5v.5c.1,7.1-5.5,12.9-12.6,13h-.3c-2.5,0-4.9-.7-6.9-2H1.1c2,0,4-.7,5.6-2-1.9,0-3.6-1.3-4.2-3.2,.3,.1,.6,.1,.9,.1,.4,0,.8-.1,1.2-.2-2.1-.4-3.6-2.3-3.6-4.5h0c.6,.3,1.3,.5,2,.6C1,5.5,.4,2.8,1.6,.7,3.9,3.5,7.3,5.3,10.9,5.5c-.1-.3-.1-.7-.1-1,0-2.5,2-4.5,4.5-4.5,1.3,0,2.5,.5,3.3,1.4,1-.2,2-.6,2.9-1.1-.3,1.1-1,2-2,2.5,.9-.1,1.8-.4,2.6-.7-.7,.9-1.5,1.7-2.3,2.4Z"/></g></svg>